<svg width="165" height="37" viewBox="0 0 165 37" fill="none" xmlns="http://www.w3.org/2000/svg">
<path d="M31.6372 13.8939L31.6151 13.8718C31.6133 13.8705 31.6118 13.8689 31.6109 13.867L17.7758 0.0314941L3.94085 13.8666C3.93926 13.8682 3.93837 13.8703 3.93676 13.8714L3.91393 13.8935C1.79837 16.021 0.454625 18.7945 0.0963089 21.7734C-0.262007 24.7522 0.38567 27.7653 1.93637 30.3338C3.48708 32.9023 5.85183 34.8788 8.6547 35.9489C11.4576 37.0189 14.5377 37.1215 17.4055 36.2399C17.6468 36.1661 17.9047 36.1661 18.1461 36.2399C21.0136 37.1211 24.0936 37.0186 26.8963 35.9483C29.699 34.8781 32.0634 32.9018 33.614 30.3335C35.1647 27.7652 35.8124 24.7522 35.4542 21.7735C35.0961 18.7949 33.7525 16.0213 31.6372 13.8939ZM8.86039 23.0172C8.79304 23.0846 8.73963 23.1646 8.70321 23.2525C8.66676 23.3404 8.64801 23.4347 8.64802 23.5299C8.67264 25.9718 9.36273 28.3606 10.644 30.4394C10.6731 30.4866 10.6866 30.5418 10.6824 30.597C10.6783 30.6522 10.6568 30.7047 10.621 30.747C10.5852 30.7894 10.537 30.8192 10.4832 30.8324C10.4294 30.8456 10.3728 30.8415 10.3215 30.8206C9.35823 30.4155 8.48317 29.8265 7.74524 29.0867C6.23298 27.5742 5.3828 25.5232 5.38143 23.3843C5.38005 21.2455 6.2276 19.1934 7.73794 17.679L17.7758 7.64207L27.8132 17.679C29.3238 19.1932 30.1716 21.2453 30.1702 23.3843C30.169 25.5232 29.3186 27.5742 27.8063 29.0867C27.0683 29.8265 26.1933 30.4155 25.2302 30.8206C25.1788 30.8415 25.1222 30.8456 25.0684 30.8324C25.0146 30.8192 24.9664 30.7892 24.9305 30.747C24.8948 30.7047 24.8731 30.6522 24.869 30.5968C24.8649 30.5416 24.8783 30.4864 24.9074 30.4392C26.189 28.3606 26.8795 25.9718 26.9045 23.5299C26.9045 23.4347 26.8855 23.3404 26.8489 23.2523C26.8123 23.1643 26.7587 23.0844 26.6912 23.0171L21.9434 17.9812C21.8961 17.9417 21.8366 17.9201 21.775 17.9201C21.7135 17.9201 21.6539 17.9417 21.6067 17.9812C21.5594 18.0205 21.5276 18.0753 21.5165 18.1359C21.5054 18.1964 21.5159 18.2588 21.5463 18.3124C23.3902 21.6492 21.8046 26.4421 19.1604 29.0867L19.1464 29.1007C18.7815 29.4617 18.2888 29.6641 17.7755 29.6639C17.2621 29.6637 16.7695 29.461 16.4048 29.0998L16.392 29.0867C13.7468 26.4421 12.162 21.6497 14.0062 18.3131C14.0365 18.2595 14.0471 18.1971 14.0361 18.1366C14.025 18.076 13.9931 18.0212 13.9459 17.9819C13.8986 17.9424 13.839 17.9208 13.7775 17.9208C13.7159 17.9208 13.6563 17.9424 13.6091 17.9819L8.86039 23.0172Z" fill="url(#paint0_linear_8_362)"/>
<path d="M65.6736 11.5864H70.2526L65.503 27.4562H60.27L58.0516 18.0708L55.8048 27.4562H50.5718L45.8223 11.5864H50.6856L53.1599 22.7351L55.6058 11.5864H60.7535L63.1993 22.7351L65.6736 11.5864Z" fill="#18181B"/>
<path d="M82.1466 22.4222C82.8482 21.7397 83.1989 20.7727 83.1989 19.5213C83.1989 18.2699 82.8482 17.3124 82.1466 16.6488C81.4451 15.9663 80.6393 15.625 79.7292 15.625C78.8191 15.625 78.0133 15.9663 77.3118 16.6488C76.6102 17.3314 76.2595 18.2984 76.2595 19.5497C76.2595 20.8011 76.6102 21.7681 77.3118 22.4507C78.0133 23.1143 78.8191 23.4461 79.7292 23.4461C80.6393 23.4461 81.4451 23.1048 82.1466 22.4222ZM73.4154 25.38C72.0124 23.8632 71.3108 21.9198 71.3108 19.5497C71.3108 17.1797 72.0124 15.2363 73.4154 13.7195C74.8185 12.1837 76.5249 11.4158 78.5347 11.4158C80.5634 11.4158 82.1182 12.1647 83.1989 13.6626V11.5864H88.0622V27.4562H83.1989V25.1525C82.0234 26.821 80.4497 27.6553 78.4778 27.6553C76.506 27.6553 74.8185 26.8968 73.4154 25.38Z" fill="#18181B"/>
<path d="M90.3159 11.5864H95.4921L99.104 23.3892L102.716 11.5864H107.892L102.261 27.4562H95.9471L90.3159 11.5864Z" fill="#18181B"/>
<path d="M116.879 27.6553C114.565 27.6553 112.669 26.9158 111.19 25.4369C109.712 23.939 108.972 21.9577 108.972 19.4929C108.972 17.028 109.702 15.0656 111.162 13.6057C112.641 12.1458 114.546 11.4158 116.879 11.4158C119.211 11.4158 121.145 12.1363 122.68 13.5773C124.216 15.0182 124.984 17.0186 124.984 19.5782C124.984 20.128 124.946 20.64 124.87 21.114H113.949C114.044 21.8155 114.357 22.3938 114.888 22.8488C115.419 23.2849 115.987 23.503 116.594 23.503C117.22 23.503 117.684 23.4461 117.988 23.3323C118.291 23.1996 118.509 23.0764 118.642 22.9626C118.794 22.8299 118.983 22.6213 119.211 22.3369H124.472C124.017 23.9296 123.107 25.2189 121.742 26.2048C120.377 27.1718 118.756 27.6553 116.879 27.6553ZM119.922 18.0708C119.846 17.3314 119.524 16.7342 118.955 16.2791C118.386 15.8051 117.713 15.5681 116.935 15.5681C116.158 15.5681 115.504 15.8051 114.973 16.2791C114.442 16.7342 114.11 17.3314 113.978 18.0708H119.922Z" fill="#18181B"/>
<path d="M132.971 11.5864V14.5442C134.109 12.4586 135.626 11.4158 137.522 11.4158V16.3644H136.327C135.208 16.3644 134.365 16.6299 133.796 17.1608C133.246 17.6916 132.971 18.6207 132.971 19.9479V27.4562H128.108V11.5864H132.971Z" fill="#18181B"/>
<path d="M144.598 9.7947C144.049 10.3445 143.375 10.6195 142.579 10.6195C141.783 10.6195 141.11 10.3445 140.56 9.7947C140.01 9.24485 139.735 8.57176 139.735 7.77543C139.735 6.96014 140.01 6.27757 140.56 5.72772C141.11 5.17788 141.783 4.90295 142.579 4.90295C143.375 4.90295 144.049 5.17788 144.598 5.72772C145.148 6.27757 145.423 6.96014 145.423 7.77543C145.423 8.57176 145.148 9.24485 144.598 9.7947ZM140.162 27.4562V11.5864H145.025V27.4562H140.162Z" fill="#18181B"/>
<path d="M158.827 22.4791C159.471 21.7965 159.794 20.8106 159.794 19.5213C159.794 18.232 159.462 17.2556 158.798 16.5919C158.135 15.9094 157.348 15.5681 156.438 15.5681C155.528 15.5681 154.741 15.9094 154.077 16.5919C153.433 17.2556 153.11 18.232 153.11 19.5213C153.11 20.8106 153.442 21.7965 154.106 22.4791C154.788 23.1617 155.585 23.503 156.495 23.503C157.405 23.503 158.182 23.1617 158.827 22.4791ZM150.551 25.4085C148.958 23.9106 148.162 21.9387 148.162 19.4929C148.162 17.047 148.958 15.0941 150.551 13.6342C152.143 12.1553 154.115 11.4158 156.466 11.4158C158.817 11.4158 160.78 12.1553 162.353 13.6342C163.946 15.0941 164.742 17.047 164.742 19.4929C164.742 21.9387 163.956 23.9106 162.382 25.4085C160.808 26.9063 158.846 27.6553 156.495 27.6553C154.144 27.6553 152.162 26.9063 150.551 25.4085Z" fill="#18181B"/>
<defs>
<linearGradient id="paint0_linear_8_362" x1="17.7752" y1="0.0314941" x2="17.7752" y2="36.8337" gradientUnits="userSpaceOnUse">
<stop stop-color="#F0B645"/>
<stop offset="1" stop-color="#D694FF"/>
</linearGradient>
</defs>
</svg>
