<svg width="188" height="40" viewBox="0 0 188 40" fill="none" xmlns="http://www.w3.org/2000/svg">
<path d="M21.9858 6.70351L23.4728 5.21643C26.3931 2.29621 31.1472 2.22393 34.0843 5.12733C35.1971 6.22993 35.9368 7.65344 36.1991 9.19792C36.4614 10.7424 36.2333 12.3303 35.5469 13.7385C35.2176 14.4112 35.1067 15.1699 35.2295 15.9087C35.3524 16.6475 35.7029 17.3294 36.2322 17.8593C37.2055 16.8838 37.9768 15.7261 38.5025 14.4524C39.0281 13.1786 39.2977 11.8138 39.2958 10.4359C39.2937 9.05793 39.0205 7.69387 38.4912 6.42162C37.9619 5.14936 37.1871 3.99385 36.2111 3.0211C32.1042 -1.06266 25.4379 -0.981395 21.3425 3.11384L7.16817 17.2878L6.00291 16.1225C3.03315 13.1528 3.01422 8.29843 6.03637 5.38145C7.15503 4.30505 8.58023 3.60237 10.1153 3.37043C11.6503 3.13849 13.2195 3.38871 14.6062 4.08655C15.2392 4.41091 15.9584 4.52693 16.6613 4.41808C17.3641 4.30922 18.0146 3.98104 18.5198 3.4804L18.5559 3.44445C18.5672 3.43328 18.5761 3.41999 18.5822 3.40535C18.5883 3.39072 18.5914 3.37502 18.5914 3.35917C18.5914 3.34332 18.5883 3.32762 18.5822 3.31299C18.5761 3.29836 18.5672 3.28507 18.5559 3.27389C16.605 1.372 13.9907 0.303712 11.2662 0.295074C8.54164 0.286439 5.92059 1.33813 3.95768 3.22761C-0.270652 7.30947 -0.255542 14.0972 3.90031 18.2531L18.0704 32.4232L16.5652 33.9284C13.645 36.8487 8.89063 36.9209 5.95376 34.0175C4.84088 32.915 4.10132 31.4914 3.83895 29.947C3.5766 28.4025 3.80461 26.8147 4.49097 25.4064C4.82026 24.7337 4.93124 23.975 4.80843 23.2363C4.68559 22.4974 4.33508 21.8154 3.80585 21.2855C2.83263 22.2611 2.06115 23.4187 1.53548 24.6924C1.0098 25.9663 0.740245 27.331 0.742198 28.709C0.744151 30.0869 1.01758 31.4511 1.54686 32.7232C2.07614 33.9955 2.85091 35.151 3.82689 36.1238C7.9336 40.2077 14.6001 40.1266 18.6955 36.0312L32.8882 21.8383L34.0579 23.008C36.9781 25.9282 37.0504 30.6824 34.147 33.6192C33.0444 34.7323 31.6209 35.4717 30.0764 35.7343C28.532 35.9966 26.9441 35.7685 25.5358 35.082C24.863 34.7526 24.1038 34.6415 23.3648 34.7646C22.6257 34.8876 21.9435 35.2384 21.4136 35.7681C22.3892 36.7414 23.5468 37.5129 24.8205 38.0386C26.0944 38.5642 27.4591 38.8338 28.8372 38.8319C30.215 38.8298 31.5792 38.5564 32.8513 38.0271C34.1237 37.4978 35.2792 36.723 36.2519 35.7471C40.3358 31.6404 40.2546 24.9739 36.1593 20.8786L21.9858 6.70351ZM20.1864 30.3063L9.28472 19.4045L19.869 8.82044L30.7707 19.7222L20.1864 30.3063Z" fill="#0EA5E9"/>
<path d="M57.3936 32.2151C55.2243 32.2151 53.5659 31.5786 52.4184 30.3057C51.28 29.0328 50.6435 27.2937 50.5091 25.0885L53.9513 24.2279C54.1217 27.6702 55.2691 29.3914 57.3936 29.3914C59.1148 29.3914 59.9753 28.5308 59.9753 26.8096C59.9753 26.2987 59.9036 25.828 59.7602 25.3978C59.6257 24.9585 59.4151 24.5596 59.1282 24.201C58.8414 23.8335 58.5814 23.5422 58.3483 23.327C58.1153 23.1029 57.797 22.8295 57.3936 22.5068L53.0908 19.0645C52.3019 18.446 51.6699 17.6616 51.1948 16.7114C50.7287 15.7522 50.4956 14.663 50.4956 13.4439C50.4956 11.6689 51.0469 10.2571 52.1495 9.20824C53.2521 8.15942 54.7133 7.63501 56.5331 7.63501C58.4873 7.63501 60.0381 8.1146 61.1855 9.07378C62.3419 10.024 63.0546 11.3731 63.3235 13.1212C63.3504 13.3094 63.3818 13.5694 63.4176 13.9011L59.9753 14.7616C59.9664 14.6092 59.944 14.3806 59.9081 14.0759C59.7557 12.9822 59.4106 12.1082 58.8727 11.4538C58.3438 10.7904 57.564 10.4588 56.5331 10.4588C55.7083 10.4588 55.0719 10.6918 54.6237 11.158C54.1754 11.6152 53.9513 12.2561 53.9513 13.0808C53.9513 14.4344 54.5251 15.5684 55.6725 16.4828L59.9753 19.9251C62.2702 21.7807 63.4176 23.9993 63.4176 26.581C63.4176 28.347 62.8708 29.7275 61.7772 30.7226C60.6925 31.7176 59.2313 32.2151 57.3936 32.2151Z" fill="#18181B"/>
<path d="M70.6115 29.3914C71.5169 29.3914 72.3775 29.1583 73.1932 28.6921V18.0426C73.1573 18.0246 73.0677 17.9708 72.9243 17.8812C72.7808 17.7916 72.6778 17.7333 72.615 17.7064C72.5612 17.6705 72.4671 17.6168 72.3326 17.545C72.1982 17.4733 72.0861 17.424 71.9965 17.3971C71.9158 17.3613 71.8082 17.3254 71.6738 17.2896C71.5483 17.2447 71.4228 17.2134 71.2973 17.1954C71.1807 17.1775 71.0552 17.1685 70.9208 17.1685C70.6339 17.1685 70.3784 17.2358 70.1543 17.3702C69.9392 17.4957 69.7599 17.6481 69.6164 17.8274C69.473 18.0067 69.3475 18.2622 69.2399 18.5939C69.1413 18.9255 69.0696 19.2214 69.0248 19.4813C68.98 19.7323 68.9441 20.073 68.9172 20.5033C68.8903 20.9246 68.8724 21.2518 68.8634 21.4848C68.8634 21.7179 68.8634 22.0451 68.8634 22.4664C68.8634 22.4844 68.8634 22.4978 68.8634 22.5068C68.8634 22.6592 68.8634 22.9057 68.8634 23.2463C68.8634 23.587 68.8634 23.9142 68.8634 24.2279C68.8634 24.5417 68.8634 24.8375 68.8634 25.1154C68.8724 25.716 68.8993 26.2449 68.9441 26.7021C68.9979 27.1503 69.0831 27.594 69.1996 28.0333C69.3251 28.4636 69.5044 28.7997 69.7375 29.0417C69.9795 29.2748 70.2708 29.3914 70.6115 29.3914ZM73.1932 37.1365V30.4267C72.6822 30.9556 72.1533 31.3859 71.6065 31.7176C71.0687 32.0493 70.4501 32.2151 69.7509 32.2151C69.0876 32.2151 68.4959 32.0493 67.976 31.7176C67.465 31.3769 67.0527 30.9422 66.7389 30.4133C66.4341 29.8844 66.1786 29.2614 65.9725 28.5442C65.7752 27.8181 65.6363 27.1055 65.5556 26.4062C65.4839 25.707 65.4481 24.9809 65.4481 24.2279V21.6059C65.4481 20.826 65.4839 20.1133 65.5556 19.4679C65.6273 18.8225 65.7573 18.186 65.9456 17.5585C66.1338 16.931 66.3803 16.4021 66.6851 15.9718C66.9989 15.5326 67.4112 15.1829 67.9222 14.923C68.4332 14.6541 69.0248 14.5196 69.6971 14.5196C70.0826 14.5196 70.4412 14.5734 70.7728 14.6809C71.1135 14.7796 71.4362 14.9409 71.741 15.165C72.0547 15.3891 72.2968 15.5863 72.4671 15.7567C72.6464 15.918 72.8884 16.1601 73.1932 16.4828V14.7616H76.6355V37.1365H73.1932Z" fill="#18181B"/>
<path d="M81.8527 32.2151C81.0997 32.2151 80.4946 31.9507 80.0374 31.4218C79.5803 30.8839 79.3517 30.2206 79.3517 29.4317V14.7616H82.794V28.3829C82.794 28.7414 82.9015 29.0328 83.1167 29.2569C83.3408 29.481 83.6276 29.5931 83.9773 29.5931C84.1655 29.5931 84.3493 29.5706 84.5286 29.5258C84.7078 29.481 84.8826 29.4048 85.053 29.2972C85.2323 29.1807 85.3712 29.0911 85.4698 29.0283C85.5684 28.9566 85.7074 28.8401 85.8866 28.6787C86.0749 28.5173 86.1914 28.4187 86.2363 28.3829V14.7616H89.6785V31.9731H86.2363V30.1175C85.8956 30.4133 85.6446 30.6284 85.4833 30.7629C85.3309 30.8974 85.0933 31.0811 84.7706 31.3142C84.4479 31.5383 84.161 31.7041 83.91 31.8117C83.668 31.9103 83.3632 32 82.9957 32.0806C82.6281 32.1703 82.2471 32.2151 81.8527 32.2151Z" fill="#18181B"/>
<path d="M97.3968 29.3914C97.6388 29.3914 97.8719 29.3196 98.096 29.1762C98.3291 29.0328 98.5039 28.8938 98.6204 28.7594C98.737 28.6249 98.8804 28.4456 99.0507 28.2215C99.0776 28.1767 99.1 28.1453 99.1179 28.1274V23.3673C98.9745 23.466 98.737 23.6183 98.4053 23.8245C98.0736 24.0307 97.8092 24.201 97.6119 24.3355C97.4147 24.461 97.1772 24.6403 96.8993 24.8734C96.6214 25.0975 96.4062 25.3171 96.2539 25.5322C96.1015 25.7384 95.967 25.9939 95.8505 26.2987C95.7339 26.6035 95.6757 26.9217 95.6757 27.2534C95.6757 28.6787 96.2494 29.3914 97.3968 29.3914ZM95.6757 32.2151C94.7165 32.2151 93.9007 31.8028 93.2284 30.978C92.565 30.1444 92.2334 29.2076 92.2334 28.1677C92.2334 27.334 92.3723 26.5766 92.6502 25.8953C92.9371 25.214 93.2374 24.6717 93.5511 24.2683C93.8649 23.8559 94.3893 23.4346 95.1244 23.0043C95.8594 22.565 96.4152 22.2647 96.7917 22.1034C97.1682 21.942 97.8226 21.6776 98.7549 21.31C98.9163 21.2473 99.0373 21.198 99.1179 21.1621V19.9251C99.1179 19.0555 98.9969 18.3832 98.7549 17.9081C98.5129 17.424 98.0602 17.182 97.3968 17.182C96.8052 17.182 96.3794 17.3882 96.1194 17.8005C95.8684 18.2039 95.725 18.7642 95.6891 19.4813C95.6801 19.5799 95.6757 19.7278 95.6757 19.9251H92.2334C92.2513 18.2756 92.713 16.9624 93.6184 15.9853C94.5237 15.0081 95.7832 14.5196 97.3968 14.5196C99.0014 14.5196 100.261 15.0171 101.175 16.0121C102.099 16.9982 102.56 18.3025 102.56 19.9251V27.6702C102.56 29.4631 102.708 30.8974 103.004 31.9731H99.5751L99.1179 29.3914C98.9387 29.7499 98.7908 30.0278 98.6742 30.225C98.5666 30.4222 98.4053 30.6688 98.1901 30.9646C97.975 31.2514 97.7599 31.4756 97.5447 31.6369C97.3296 31.7893 97.0606 31.9238 96.7379 32.0403C96.4152 32.1568 96.0611 32.2151 95.6757 32.2151Z" fill="#18181B"/>
<path d="M105.532 31.9731V14.7616H108.974V17.061C109.324 16.3797 109.83 15.788 110.494 15.286C111.166 14.7751 111.91 14.5196 112.726 14.5196C112.753 14.5196 112.936 14.5375 113.277 14.5734V18.3787C112.641 18.1277 112.004 18.0022 111.368 18.0022C110.651 18.0022 110.072 18.2174 109.633 18.6476C109.194 19.0779 108.974 19.6472 108.974 20.3553V31.9731H105.532Z" fill="#18181B"/>
<path d="M119.597 32.2151C118.763 32.2151 118.037 32.0717 117.419 31.7848C116.809 31.498 116.32 31.1259 115.953 30.6688C115.594 30.2026 115.303 29.611 115.079 28.8938C114.855 28.1677 114.698 27.4461 114.608 26.729C114.528 26.0029 114.478 25.1602 114.46 24.201C114.433 23.448 114.433 22.695 114.46 21.942C114.487 21.0456 114.546 20.2523 114.635 19.562C114.734 18.8628 114.9 18.186 115.133 17.5316C115.366 16.8772 115.666 16.3393 116.034 15.918C116.41 15.4967 116.899 15.1605 117.499 14.9095C118.109 14.6496 118.817 14.5196 119.624 14.5196C120.359 14.5196 121.004 14.6182 121.56 14.8154C122.125 15.0037 122.591 15.295 122.958 15.6894C123.335 16.0749 123.644 16.5052 123.886 16.9803C124.137 17.4554 124.326 18.0336 124.451 18.7149C124.577 19.3872 124.662 20.0506 124.707 20.705C124.76 21.3593 124.787 22.1123 124.787 22.964V23.3673H117.903V24.2279C117.903 24.3445 117.903 24.5282 117.903 24.7792C117.885 25.1109 117.88 25.456 117.889 25.8146C117.907 26.1642 117.925 26.5093 117.943 26.85C117.961 27.1906 118.01 27.5178 118.091 27.8316C118.172 28.1364 118.27 28.4053 118.387 28.6384C118.503 28.8714 118.665 29.0552 118.871 29.1897C119.086 29.3241 119.337 29.3914 119.624 29.3914C119.982 29.3914 120.278 29.3241 120.511 29.1897C120.744 29.0462 120.915 28.8356 121.022 28.5577C121.139 28.2798 121.219 28.0019 121.264 27.724C121.309 27.4461 121.336 27.0965 121.345 26.6752V25.9491H124.76V26.6348C124.68 28.4725 124.227 29.862 123.402 30.8032C122.578 31.7445 121.309 32.2151 119.597 32.2151ZM117.903 21.6462H121.318V20.6108C121.309 20.1536 121.282 19.7547 121.237 19.4141C121.193 19.0735 121.112 18.7328 120.995 18.3922C120.888 18.0515 120.717 17.7916 120.484 17.6123C120.251 17.433 119.964 17.3433 119.624 17.3433C119.274 17.3433 118.978 17.4375 118.736 17.6257C118.503 17.814 118.328 18.0874 118.212 18.446C118.104 18.7956 118.028 19.1407 117.983 19.4813C117.938 19.822 117.912 20.2298 117.903 20.705V21.6462Z" fill="#18181B"/>
<path d="M133.716 32.2151C131.546 32.2151 129.888 31.5786 128.74 30.3057C127.602 29.0328 126.966 27.2937 126.831 25.0885L130.273 24.2279C130.444 27.6702 131.591 29.3914 133.716 29.3914C135.437 29.3914 136.297 28.5308 136.297 26.8096C136.297 26.2987 136.226 25.828 136.082 25.3978C135.948 24.9585 135.737 24.5596 135.45 24.201C135.163 23.8335 134.903 23.5422 134.67 23.327C134.437 23.1029 134.119 22.8295 133.716 22.5068L129.413 19.0645C128.624 18.446 127.992 17.6616 127.517 16.7114C127.051 15.7522 126.818 14.663 126.818 13.4439C126.818 11.6689 127.369 10.2571 128.472 9.20824C129.574 8.15942 131.035 7.63501 132.855 7.63501C134.809 7.63501 136.36 8.1146 137.508 9.07378C138.664 10.024 139.377 11.3731 139.646 13.1212C139.672 13.3094 139.704 13.5694 139.74 13.9011L136.297 14.7616C136.288 14.6092 136.266 14.3806 136.23 14.0759C136.078 12.9822 135.733 12.1082 135.195 11.4538C134.666 10.7904 133.886 10.4588 132.855 10.4588C132.03 10.4588 131.394 10.6918 130.946 11.158C130.497 11.6152 130.273 12.2561 130.273 13.0808C130.273 14.4344 130.847 15.5684 131.995 16.4828L136.297 19.9251C138.592 21.7807 139.74 23.9993 139.74 26.581C139.74 28.347 139.193 29.7275 138.099 30.7226C137.015 31.7176 135.553 32.2151 133.716 32.2151Z" fill="#18181B"/>
<path d="M146.88 32.2151C145.526 32.2151 144.54 31.87 143.922 31.1797C143.312 30.4895 142.998 29.4451 142.98 28.0467V17.3433H141.259V14.7616H142.98V8.73762H146.423V14.7616H149.004V17.3433H146.423V27.3878C146.423 28.0781 146.517 28.5846 146.705 28.9073C146.893 29.23 147.274 29.3914 147.848 29.3914C148.099 29.3914 148.484 29.3465 149.004 29.2569V32.0538C148.144 32.1613 147.436 32.2151 146.88 32.2151Z" fill="#18181B"/>
<path d="M160.219 30.6015C159.421 31.6773 158.099 32.2151 156.252 32.2151C154.405 32.2151 153.083 31.6773 152.285 30.6015C151.487 29.5258 151.088 27.975 151.088 25.9491V20.7856C151.088 18.7597 151.487 17.2089 152.285 16.1332C153.083 15.0574 154.405 14.5196 156.252 14.5196C158.099 14.5196 159.421 15.0574 160.219 16.1332C161.016 17.2089 161.415 18.7597 161.415 20.7856V25.9491C161.415 27.975 161.016 29.5258 160.219 30.6015ZM155.606 29.2838C155.795 29.3555 156.01 29.3914 156.252 29.3914C156.494 29.3914 156.705 29.3555 156.884 29.2838C157.072 29.2121 157.225 29.1269 157.341 29.0283C157.467 28.9207 157.57 28.7683 157.65 28.5711C157.731 28.3649 157.794 28.1857 157.839 28.0333C157.883 27.8809 157.915 27.6612 157.933 27.3744C157.951 27.0875 157.96 26.8634 157.96 26.7021C157.969 26.5317 157.973 26.2807 157.973 25.9491V20.7856C157.973 20.454 157.969 20.2074 157.96 20.0461C157.96 19.8758 157.951 19.6472 157.933 19.3603C157.915 19.0735 157.883 18.8538 157.839 18.7014C157.794 18.549 157.731 18.3742 157.65 18.177C157.57 17.9708 157.467 17.8184 157.341 17.7198C157.225 17.6123 157.072 17.5226 156.884 17.4509C156.705 17.3792 156.494 17.3433 156.252 17.3433C156.01 17.3433 155.795 17.3792 155.606 17.4509C155.427 17.5226 155.275 17.6123 155.149 17.7198C155.033 17.8184 154.934 17.9708 154.853 18.177C154.773 18.3742 154.71 18.549 154.665 18.7014C154.62 18.8538 154.589 19.0735 154.571 19.3603C154.553 19.6472 154.54 19.8758 154.531 20.0461C154.531 20.2074 154.531 20.454 154.531 20.7856V25.9491C154.531 26.2807 154.531 26.5317 154.531 26.7021C154.54 26.8634 154.553 27.0875 154.571 27.3744C154.589 27.6612 154.62 27.8809 154.665 28.0333C154.71 28.1857 154.773 28.3649 154.853 28.5711C154.934 28.7683 155.033 28.9207 155.149 29.0283C155.275 29.1269 155.427 29.2121 155.606 29.2838Z" fill="#18181B"/>
<path d="M164.239 31.9731V14.7616H167.681V16.6172C168.192 16.1511 168.609 15.797 168.932 15.555C169.255 15.304 169.698 15.0709 170.263 14.8558C170.837 14.6316 171.446 14.5196 172.092 14.5196C172.827 14.5196 173.423 14.7885 173.88 15.3264C174.337 15.8642 174.566 16.5231 174.566 17.303V31.9731H171.124V19.0645C171.124 18.4639 171.038 18.0291 170.868 17.7602C170.698 17.4823 170.353 17.3433 169.833 17.3433C169.537 17.3433 169.241 17.4061 168.945 17.5316C168.658 17.6481 168.443 17.7602 168.3 17.8678C168.156 17.9664 167.95 18.1277 167.681 18.3518V31.9731H164.239Z" fill="#18181B"/>
<path d="M182.446 32.2151C181.612 32.2151 180.886 32.0717 180.267 31.7848C179.658 31.498 179.169 31.1259 178.802 30.6688C178.443 30.2026 178.152 29.611 177.928 28.8938C177.703 28.1677 177.547 27.4461 177.457 26.729C177.376 26.0029 177.327 25.1602 177.309 24.201C177.282 23.448 177.282 22.695 177.309 21.942C177.336 21.0456 177.394 20.2523 177.484 19.562C177.582 18.8628 177.748 18.186 177.981 17.5316C178.214 16.8772 178.515 16.3393 178.882 15.918C179.259 15.4967 179.747 15.1605 180.348 14.9095C180.957 14.6496 181.666 14.5196 182.472 14.5196C183.208 14.5196 183.853 14.6182 184.409 14.8154C184.973 15.0037 185.44 15.295 185.807 15.6894C186.184 16.0749 186.493 16.5052 186.735 16.9803C186.986 17.4554 187.174 18.0336 187.3 18.7149C187.425 19.3872 187.51 20.0506 187.555 20.705C187.609 21.3593 187.636 22.1123 187.636 22.964V23.3673H180.751V24.2279C180.751 24.3445 180.751 24.5282 180.751 24.7792C180.733 25.1109 180.729 25.456 180.738 25.8146C180.756 26.1642 180.774 26.5093 180.792 26.85C180.81 27.1906 180.859 27.5178 180.94 27.8316C181.02 28.1364 181.119 28.4053 181.235 28.6384C181.352 28.8714 181.513 29.0552 181.719 29.1897C181.935 29.3241 182.186 29.3914 182.472 29.3914C182.831 29.3914 183.127 29.3241 183.36 29.1897C183.593 29.0462 183.763 28.8356 183.871 28.5577C183.987 28.2798 184.068 28.0019 184.113 27.724C184.158 27.4461 184.185 27.0965 184.194 26.6752V25.9491H187.609V26.6348C187.528 28.4725 187.076 29.862 186.251 30.8032C185.426 31.7445 184.158 32.2151 182.446 32.2151ZM180.751 21.6462H184.167V20.6108C184.158 20.1536 184.131 19.7547 184.086 19.4141C184.041 19.0735 183.961 18.7328 183.844 18.3922C183.736 18.0515 183.566 17.7916 183.333 17.6123C183.1 17.433 182.813 17.3433 182.472 17.3433C182.123 17.3433 181.827 17.4375 181.585 17.6257C181.352 17.814 181.177 18.0874 181.061 18.446C180.953 18.7956 180.877 19.1407 180.832 19.4813C180.787 19.822 180.76 20.2298 180.751 20.705V21.6462Z" fill="#18181B"/>
</svg>
