<svg width="177" height="31" viewBox="0 0 177 31" fill="none" xmlns="http://www.w3.org/2000/svg">
<path d="M170.798 24.8618C170.234 24.2323 169.756 23.5299 169.375 22.7732C168.774 21.5871 167.944 20.5341 166.933 19.6763C165.922 18.8185 164.751 18.1731 163.488 17.7784C162.384 17.4345 161.229 17.2886 160.075 17.3472C160.915 17.2989 161.742 17.572 162.39 18.112C163.039 18.652 163.461 19.4189 163.571 20.259C163.875 22.0742 164.674 23.7686 165.878 25.1529C167.083 26.5373 168.646 27.557 170.393 28.0984C172.39 28.7167 174.53 28.6833 176.508 28.0032C174.305 27.6413 172.291 26.5332 170.798 24.8618Z" fill="#22D3EE"/>
<path d="M156.637 17.1675C156.894 18.2882 157.346 19.3559 157.973 20.3224C157.515 19.6206 157.339 18.774 157.479 17.9497C157.619 17.1253 158.065 16.383 158.73 15.8691C160.141 14.7106 161.2 13.1861 161.79 11.4653C162.379 9.74449 162.476 7.89502 162.069 6.12284C161.605 4.09551 160.504 2.26714 158.924 0.901611C159.711 2.98795 159.756 5.27827 159.052 7.39361C158.783 8.19221 158.409 8.95203 157.939 9.65338C157.218 10.7551 156.727 11.9893 156.495 13.2828C156.262 14.5763 156.293 15.9028 156.587 17.1841L156.637 17.1675Z" fill="#8B5CF6"/>
<path d="M161.558 21.0693C161.185 21.8233 160.545 22.4061 159.766 22.7007C158.988 22.9954 158.128 22.9801 157.361 22.658C155.668 22.0137 153.833 21.8602 152.06 22.2146C150.287 22.5689 148.645 23.4173 147.319 24.6647C145.807 26.0935 144.781 27.9732 144.389 30.0328C145.796 28.2979 147.743 27.1024 149.909 26.6436C150.723 26.4744 151.554 26.4089 152.384 26.4485C153.685 26.517 154.987 26.32 156.212 25.8691C157.437 25.4181 158.561 24.7224 159.517 23.823C160.354 23.0336 161.048 22.1017 161.569 21.0693H161.558Z" fill="#2DD4BF"/>
<path d="M0.635742 29.9017H5.35174V18.4177C5.35174 17.1457 5.69974 16.1257 6.39574 15.3577C7.09174 14.5897 8.00374 14.2057 9.13174 14.2057C10.2837 14.2057 11.1957 14.5897 11.8677 15.3577C12.5637 16.1017 12.9117 17.1217 12.9117 18.4177V29.9017H17.6277V18.4177C17.6277 17.1457 17.9757 16.1257 18.6717 15.3577C19.3677 14.5897 20.2797 14.2057 21.4077 14.2057C22.5597 14.2057 23.4717 14.5897 24.1437 15.3577C24.8397 16.1017 25.1877 17.1217 25.1877 18.4177V29.9017H29.9037V17.3017C29.9037 15.8377 29.5797 14.5537 28.9317 13.4497C28.3077 12.3217 27.4557 11.4457 26.3757 10.8217C25.2957 10.1977 24.0597 9.88566 22.6677 9.88566C21.3717 9.88566 20.1957 10.1497 19.1397 10.6777C18.1077 11.2057 17.2557 11.9977 16.5837 13.0537C16.0077 12.0937 15.1797 11.3257 14.0997 10.7497C13.0437 10.1737 11.8557 9.88566 10.5357 9.88566C9.31174 9.88566 8.21974 10.1257 7.25974 10.6057C6.29974 11.0857 5.56774 11.8057 5.06374 12.7657V10.3177H0.635742V29.9017Z" fill="#0F172A"/>
<path d="M39.8336 30.3337C42.3776 30.3337 44.4176 29.4937 45.9536 27.8137V29.9017H50.4176V16.8697C50.4176 15.5017 50.0696 14.2897 49.3736 13.2337C48.6776 12.1777 47.7176 11.3617 46.4936 10.7857C45.2936 10.1857 43.8896 9.88566 42.2816 9.88566C40.3136 9.88566 38.5616 10.3537 37.0256 11.2897C35.4896 12.2257 34.4336 13.4617 33.8576 14.9977L37.7096 16.8697C38.0696 15.9817 38.6336 15.2737 39.4016 14.7457C40.1696 14.1937 41.0696 13.9177 42.1016 13.9177C43.1816 13.9177 44.0456 14.2057 44.6936 14.7817C45.3656 15.3337 45.7016 16.0297 45.7016 16.8697V17.5177L39.8696 18.4537C37.5656 18.8377 35.8616 19.5697 34.7576 20.6497C33.6536 21.7297 33.1016 23.0857 33.1016 24.7177C33.1016 26.4457 33.7136 27.8137 34.9376 28.8217C36.1616 29.8297 37.7936 30.3337 39.8336 30.3337ZM37.9976 24.5377C37.9976 23.1697 38.9216 22.3057 40.7696 21.9457L45.7016 21.1177V21.9097C45.7016 23.2537 45.2336 24.3937 44.2976 25.3297C43.3856 26.2657 42.1856 26.7337 40.6976 26.7337C39.9056 26.7337 39.2576 26.5417 38.7536 26.1577C38.2496 25.7497 37.9976 25.2097 37.9976 24.5377Z" fill="#0F172A"/>
<path d="M54.7764 29.9017H59.4924V18.9937C59.4924 17.5057 59.9004 16.3537 60.7164 15.5377C61.5564 14.6977 62.6364 14.2777 63.9564 14.2777H65.6484V10.1017H64.4964C63.2964 10.1017 62.2404 10.3177 61.3284 10.7497C60.4164 11.1817 59.7084 11.9617 59.2044 13.0897V10.3177H54.7764V29.9017Z" fill="#0F172A"/>
<path d="M77.6966 30.1177C78.4886 30.1177 79.2686 30.0577 80.0366 29.9377V25.8697C79.5806 25.9417 79.1606 25.9777 78.7766 25.9777C77.6246 25.9777 76.7846 25.7137 76.2566 25.1857C75.7286 24.6577 75.4646 23.9017 75.4646 22.9177V14.5297H79.9646V10.3177H75.4646V5.85367H70.7486V7.36567C70.7486 8.32567 70.4846 9.05767 69.9566 9.56167C69.4286 10.0657 68.6846 10.3177 67.7246 10.3177H67.3646V14.5297H70.7486V23.1697C70.7486 25.3537 71.3486 27.0577 72.5486 28.2817C73.7726 29.5057 75.4886 30.1177 77.6966 30.1177Z" fill="#0F172A"/>
<path d="M83.6396 8.12167H88.3557V3.08167H83.6396V8.12167ZM83.6396 29.9017H88.3557V10.3177H83.6396V29.9017Z" fill="#0F172A"/>
<path d="M92.71 29.9017H97.426V18.4177C97.426 17.1457 97.786 16.1257 98.506 15.3577C99.25 14.5897 100.21 14.2057 101.386 14.2057C102.562 14.2057 103.51 14.5897 104.23 15.3577C104.974 16.1017 105.346 17.1217 105.346 18.4177V29.9017H110.062V17.3017C110.062 15.8377 109.75 14.5537 109.126 13.4497C108.502 12.3217 107.626 11.4457 106.498 10.8217C105.394 10.1977 104.122 9.88566 102.682 9.88566C101.458 9.88566 100.354 10.1257 99.37 10.6057C98.41 11.0857 97.666 11.7937 97.138 12.7297V10.3177H92.71V29.9017Z" fill="#0F172A"/>
<path d="M123.626 30.3337C125.522 30.3337 127.25 29.9017 128.81 29.0377C130.37 28.1497 131.618 26.9377 132.554 25.4017C133.49 23.8417 133.958 22.0777 133.958 20.1097C133.958 18.1417 133.49 16.3897 132.554 14.8537C131.642 13.3177 130.406 12.1057 128.846 11.2177C127.286 10.3297 125.546 9.88566 123.626 9.88566C121.682 9.88566 119.93 10.3297 118.37 11.2177C116.81 12.1057 115.562 13.3177 114.626 14.8537C113.714 16.3897 113.258 18.1417 113.258 20.1097C113.258 22.0777 113.714 23.8297 114.626 25.3657C115.562 26.9017 116.81 28.1137 118.37 29.0017C119.954 29.8897 121.706 30.3337 123.626 30.3337ZM123.626 26.0137C122.57 26.0137 121.622 25.7617 120.782 25.2577C119.966 24.7537 119.318 24.0577 118.838 23.1697C118.382 22.2577 118.154 21.2377 118.154 20.1097C118.154 18.9817 118.382 17.9737 118.838 17.0857C119.318 16.1977 119.966 15.5017 120.782 14.9977C121.622 14.4697 122.57 14.2057 123.626 14.2057C124.682 14.2057 125.606 14.4697 126.398 14.9977C127.214 15.5017 127.85 16.1977 128.306 17.0857C128.786 17.9737 129.026 18.9817 129.026 20.1097C129.026 21.2377 128.786 22.2577 128.306 23.1697C127.85 24.0577 127.214 24.7537 126.398 25.2577C125.606 25.7617 124.682 26.0137 123.626 26.0137Z" fill="#0F172A"/>
</svg>
