<svg width="763" height="667" viewBox="0 0 763 667" fill="none" xmlns="http://www.w3.org/2000/svg">
<g filter="url(#filter0_f_19_656)">
<rect x="684.096" y="529.7" width="369.285" height="216.031" transform="rotate(171.009 684.096 529.7)" fill="url(#paint0_linear_19_656)"/>
</g>
<rect x="267" y="351.073" width="406.497" height="257.149" rx="16.8438" transform="rotate(-8.78356 267 351.073)" fill="#18181B"/>
<mask id="mask0_19_656" style="mask-type:alpha" maskUnits="userSpaceOnUse" x="269" y="291" width="437" height="312">
<rect x="267" y="351.073" width="406.497" height="257.149" rx="16.8438" transform="rotate(-8.78356 267 351.073)" fill="white"/>
</mask>
<g mask="url(#mask0_19_656)">
<g opacity="0.18">
<line x1="261.821" y1="344.618" x2="619.848" y2="558.588" stroke="white" stroke-width="1.12292"/>
<line x1="256.615" y1="347.695" x2="614.643" y2="561.665" stroke="white" stroke-width="1.12292"/>
<line x1="251.41" y1="350.772" x2="609.438" y2="564.742" stroke="white" stroke-width="1.12292"/>
<line x1="246.203" y1="353.849" x2="604.231" y2="567.819" stroke="white" stroke-width="1.12292"/>
<line x1="240.998" y1="356.926" x2="599.025" y2="570.896" stroke="white" stroke-width="1.12292"/>
<line x1="235.791" y1="360.003" x2="593.819" y2="573.972" stroke="white" stroke-width="1.12292"/>
<line x1="230.586" y1="363.08" x2="588.614" y2="577.049" stroke="white" stroke-width="1.12292"/>
<line x1="225.381" y1="366.156" x2="583.409" y2="580.126" stroke="white" stroke-width="1.12292"/>
<line x1="220.174" y1="369.233" x2="578.202" y2="583.203" stroke="white" stroke-width="1.12292"/>
<line x1="214.969" y1="372.31" x2="572.996" y2="586.28" stroke="white" stroke-width="1.12292"/>
<line x1="209.763" y1="375.387" x2="567.79" y2="589.357" stroke="white" stroke-width="1.12292"/>
<line x1="204.558" y1="378.464" x2="562.585" y2="592.434" stroke="white" stroke-width="1.12292"/>
<line x1="199.351" y1="381.541" x2="557.378" y2="595.51" stroke="white" stroke-width="1.12292"/>
<line x1="194.145" y1="384.618" x2="552.173" y2="598.587" stroke="white" stroke-width="1.12292"/>
<line x1="188.94" y1="387.694" x2="546.967" y2="601.664" stroke="white" stroke-width="1.12292"/>
<line x1="183.734" y1="390.771" x2="541.761" y2="604.741" stroke="white" stroke-width="1.12292"/>
<line x1="178.529" y1="393.848" x2="536.556" y2="607.818" stroke="white" stroke-width="1.12292"/>
<line x1="173.322" y1="396.925" x2="531.349" y2="610.895" stroke="white" stroke-width="1.12292"/>
<line x1="168.116" y1="400.002" x2="526.144" y2="613.972" stroke="white" stroke-width="1.12292"/>
<line x1="162.911" y1="403.079" x2="520.939" y2="617.048" stroke="white" stroke-width="1.12292"/>
<line x1="157.705" y1="406.156" x2="515.732" y2="620.125" stroke="white" stroke-width="1.12292"/>
<line x1="152.499" y1="409.233" x2="510.526" y2="623.202" stroke="white" stroke-width="1.12292"/>
<line x1="147.292" y1="412.309" x2="505.32" y2="626.279" stroke="white" stroke-width="1.12292"/>
<line x1="142.087" y1="415.386" x2="500.115" y2="629.356" stroke="white" stroke-width="1.12292"/>
<line x1="136.882" y1="418.463" x2="494.91" y2="632.433" stroke="white" stroke-width="1.12292"/>
<line x1="131.676" y1="421.54" x2="489.704" y2="635.51" stroke="white" stroke-width="1.12292"/>
<line x1="126.47" y1="424.617" x2="484.497" y2="638.586" stroke="white" stroke-width="1.12292"/>
<line x1="121.264" y1="427.694" x2="479.291" y2="641.663" stroke="white" stroke-width="1.12292"/>
<line x1="116.059" y1="430.77" x2="474.086" y2="644.74" stroke="white" stroke-width="1.12292"/>
<line x1="110.853" y1="433.847" x2="468.881" y2="647.817" stroke="white" stroke-width="1.12292"/>
<line x1="105.646" y1="436.924" x2="463.674" y2="650.894" stroke="white" stroke-width="1.12292"/>
<line x1="268.308" y1="342.48" x2="626.336" y2="556.45" stroke="white" stroke-width="1.12292"/>
<line x1="274.795" y1="340.341" x2="632.822" y2="554.311" stroke="white" stroke-width="1.12292"/>
<line x1="281.283" y1="338.203" x2="639.31" y2="552.172" stroke="white" stroke-width="1.12292"/>
<line x1="287.768" y1="336.064" x2="645.795" y2="550.034" stroke="white" stroke-width="1.12292"/>
<line x1="294.256" y1="333.926" x2="652.283" y2="547.895" stroke="white" stroke-width="1.12292"/>
<line x1="300.744" y1="331.787" x2="658.771" y2="545.757" stroke="white" stroke-width="1.12292"/>
<line x1="307.23" y1="329.648" x2="665.257" y2="543.618" stroke="white" stroke-width="1.12292"/>
<line x1="313.718" y1="327.51" x2="671.745" y2="541.479" stroke="white" stroke-width="1.12292"/>
<line x1="320.205" y1="325.371" x2="678.232" y2="539.341" stroke="white" stroke-width="1.12292"/>
<line x1="326.691" y1="323.233" x2="684.718" y2="537.202" stroke="white" stroke-width="1.12292"/>
<line x1="333.178" y1="321.094" x2="691.205" y2="535.064" stroke="white" stroke-width="1.12292"/>
<line x1="339.665" y1="318.955" x2="697.693" y2="532.925" stroke="white" stroke-width="1.12292"/>
<line x1="346.153" y1="316.817" x2="704.18" y2="530.786" stroke="white" stroke-width="1.12292"/>
<line x1="352.64" y1="314.678" x2="710.667" y2="528.648" stroke="white" stroke-width="1.12292"/>
<line x1="359.126" y1="312.54" x2="717.154" y2="526.509" stroke="white" stroke-width="1.12292"/>
<line x1="365.613" y1="310.401" x2="723.641" y2="524.371" stroke="white" stroke-width="1.12292"/>
<line x1="372.101" y1="308.262" x2="730.128" y2="522.232" stroke="white" stroke-width="1.12292"/>
<line x1="378.587" y1="306.124" x2="736.615" y2="520.094" stroke="white" stroke-width="1.12292"/>
<line x1="385.075" y1="303.985" x2="743.102" y2="517.955" stroke="white" stroke-width="1.12292"/>
<line x1="391.561" y1="301.847" x2="749.589" y2="515.816" stroke="white" stroke-width="1.12292"/>
<line x1="398.048" y1="299.708" x2="756.076" y2="513.678" stroke="white" stroke-width="1.12292"/>
<line x1="404.536" y1="297.57" x2="762.564" y2="511.539" stroke="white" stroke-width="1.12292"/>
<line x1="411.022" y1="295.431" x2="769.05" y2="509.401" stroke="white" stroke-width="1.12292"/>
</g>
<rect x="267" y="351.073" width="406.497" height="257.149" rx="16.8438" transform="rotate(-8.78356 267 351.073)" fill="url(#paint1_linear_19_656)"/>
<g filter="url(#filter1_f_19_656)">
<circle cx="285.714" cy="376.588" r="101.063" transform="rotate(-8.78356 285.714 376.588)" fill="#B4C9FF"/>
</g>
<g filter="url(#filter2_f_19_656)">
<circle cx="690.655" cy="526.496" r="101.063" transform="rotate(-8.78356 690.655 526.496)" fill="white"/>
</g>
</g>
<path d="M376.636 472.337L371.961 442.081C371.359 438.183 366.94 435.62 362.108 436.367L318.596 443.09C313.763 443.837 310.323 447.615 310.925 451.512L315.6 481.768C316.202 485.666 320.623 488.226 325.455 487.48L368.967 480.757C373.799 480.009 377.238 476.234 376.636 472.337ZM325.367 486.913C320.922 487.6 316.856 485.243 316.303 481.66L311.628 451.403C311.074 447.818 314.239 444.344 318.684 443.657L362.196 436.934C366.639 436.247 370.705 438.604 371.258 442.189L375.933 472.446C376.487 476.029 373.322 479.503 368.88 480.19L325.367 486.913Z" fill="#3F3F46"/>
<path d="M368.881 480.191L325.37 486.914C323.233 487.244 321.078 486.876 319.379 485.891C317.679 484.907 316.574 483.386 316.306 481.663L311.63 451.404C311.076 447.819 314.241 444.345 318.686 443.658L362.198 436.935C366.64 436.248 370.706 438.606 371.26 442.19L375.936 472.449C376.489 476.03 373.324 479.504 368.881 480.191Z" fill="url(#paint2_linear_19_656)"/>
<path d="M314.923 476.609L314.835 476.042L334.872 472.946C336.2 472.74 337.407 472.117 338.229 471.215C339.051 470.313 339.421 469.204 339.257 468.133L337.594 457.37C337.427 456.299 336.74 455.354 335.684 454.742C334.628 454.13 333.289 453.901 331.961 454.105L311.924 457.201L311.836 456.633L331.873 453.537C333.388 453.305 334.915 453.566 336.119 454.265C337.323 454.963 338.106 456.041 338.296 457.261L339.959 468.025C340.146 469.246 339.725 470.51 338.788 471.539C337.851 472.568 336.474 473.278 334.96 473.513L314.923 476.609Z" fill="#383335"/>
<path d="M351.593 466.227L349.93 455.464C349.743 454.242 350.164 452.979 351.102 451.949C352.039 450.92 353.416 450.21 354.93 449.975L372.726 447.225L372.813 447.793L355.018 450.542C353.69 450.749 352.482 451.371 351.66 452.273C350.838 453.176 350.469 454.284 350.633 455.355L352.296 466.119C352.463 467.189 353.15 468.134 354.206 468.747C355.262 469.359 356.601 469.588 357.929 469.384L375.725 466.634L375.812 467.201L358.016 469.951C356.502 470.183 354.975 469.922 353.771 469.224C352.567 468.526 351.783 467.448 351.593 466.227Z" fill="#383335"/>
<path d="M350.403 456.195L350.315 455.628L337.979 457.534L338.067 458.101L350.403 456.195Z" fill="#383335"/>
<path d="M351.911 465.954L351.823 465.387L339.487 467.293L339.575 467.86L351.911 465.954Z" fill="#383335"/>
<path d="M332.605 486.086L330.719 473.878L330.016 473.987L331.902 486.194L332.605 486.086Z" fill="#383335"/>
<path d="M327.719 454.47L325.833 442.262L325.13 442.371L327.017 454.578L327.719 454.47Z" fill="#383335"/>
<path d="M363.738 481.275L361.852 469.068L361.149 469.177L363.036 481.384L363.738 481.275Z" fill="#383335"/>
<path d="M358.853 449.659L356.967 437.452L356.264 437.56L358.15 449.768L358.853 449.659Z" fill="#383335"/>
<path d="M374 457.6L373.912 457.033L351.076 460.561L351.164 461.128L374 457.6Z" fill="#383335"/>
<path d="M338.605 463.069L338.517 462.502L313.338 466.392L313.426 466.959L338.605 463.069Z" fill="#383335"/>
<path d="M622.494 526.474L614.345 527.733L614.601 495.643L622.752 494.384L622.494 526.474ZM602.652 497.489L598.209 520.22L596.573 515.726L596.574 515.728L591.657 502.074C591.657 502.074 590.89 499.307 587.355 499.853L574.511 501.838L574.442 502.391C574.442 502.391 578.496 502.601 583.52 504.652L594.802 530.753L603.294 529.441L611.423 496.134L602.652 497.489ZM671.591 518.888L679.074 517.731L667.713 487.436L661.161 488.448C658.136 488.915 657.76 491.362 657.76 491.362L650.081 522.211L658.577 520.898L659.557 515.986L669.918 514.385L671.591 518.888ZM660.912 509.2L663.384 496.824L667.603 508.166L660.912 509.2ZM647.045 498.337L647.169 491.435C647.169 491.435 643.37 490.625 639.628 491.203C635.584 491.828 626.253 495.08 627.581 503.675C628.831 511.762 640.118 510.121 640.775 514.369C641.431 518.616 631.203 519.418 627.452 517.254L627.326 524.47C627.326 524.47 631.238 525.676 636.798 524.817C642.36 523.957 650.305 519.781 649.094 511.944C647.837 503.805 636.346 504.804 635.799 501.266C635.253 497.726 643.261 496.955 647.045 498.337Z" fill="white"/>
<path d="M596.575 515.727L591.657 502.073C591.657 502.073 590.89 499.306 587.356 499.852L574.511 501.837L574.442 502.39C574.442 502.39 580.814 502.716 587.476 506.594C593.846 510.301 596.575 515.727 596.575 515.727Z" fill="#E6A540"/>
<path d="M326.49 549.085L327.015 549.003C327.617 548.91 328.12 548.712 328.523 548.408C328.934 548.103 329.225 547.72 329.396 547.261C329.574 546.8 329.62 546.289 329.534 545.727L328.564 539.453L326.892 539.711L327.871 546.047C327.928 546.421 327.857 546.74 327.656 547.005C327.462 547.259 327.17 547.417 326.779 547.477L326.254 547.559L326.49 549.085ZM332.795 548.11L338.838 547.177L338.611 545.712L334.229 546.389L333.863 544.021L338.001 543.381L337.775 541.916L333.637 542.556L333.276 540.224L337.659 539.547L337.433 538.082L331.39 539.016L332.795 548.11ZM341.165 546.817L342.825 546.561L341.906 540.616L347.146 545.893L348.453 545.691L347.047 536.597L345.387 536.853L346.289 542.688L341.054 537.523L339.76 537.723L341.165 546.817ZM351.323 545.248L352.983 544.991L352.064 539.046L357.304 544.323L358.61 544.121L357.205 535.027L355.545 535.284L356.447 541.119L351.212 535.953L349.918 536.153L351.323 545.248ZM363.8 543.32L365.472 543.061L364.848 539.021L367.119 533.495L365.227 533.788L363.747 537.478L361.223 534.406L359.331 534.699L363.178 539.291L363.8 543.32ZM375.625 541.492L377.53 541.198L378.264 534.385L381.021 540.659L382.925 540.364L383.961 530.893L382.179 531.168L381.551 538.265L378.737 531.7L377.016 531.966L376.302 539.076L373.561 532.5L371.779 532.775L375.625 541.492ZM387.484 539.66L389.144 539.404L387.739 530.309L386.079 530.566L387.484 539.66ZM392.003 538.962L397.557 538.104L397.331 536.639L393.437 537.24L392.258 529.611L390.598 529.867L392.003 538.962ZM403.011 537.411C403.637 537.314 404.169 537.115 404.606 536.815C405.043 536.514 405.365 536.143 405.572 535.703C405.779 535.263 405.842 534.782 405.761 534.261C405.574 533.049 404.72 532.322 403.2 532.082L401.446 531.816C401.104 531.76 400.834 531.652 400.634 531.491C400.441 531.321 400.325 531.11 400.286 530.858C400.234 530.524 400.319 530.236 400.54 529.994C400.768 529.742 401.093 529.583 401.516 529.518C401.988 529.445 402.423 529.507 402.82 529.704C403.216 529.893 403.538 530.201 403.788 530.629L405.061 529.808C404.711 529.162 404.199 528.678 403.524 528.358C402.858 528.036 402.114 527.938 401.292 528.065C400.698 528.157 400.186 528.353 399.758 528.652C399.336 528.942 399.026 529.307 398.827 529.746C398.636 530.184 398.581 530.663 398.661 531.184C398.753 531.778 399.012 532.267 399.438 532.651C399.863 533.027 400.447 533.274 401.19 533.393L403.022 533.685C403.356 533.741 403.614 533.843 403.795 533.99C403.984 534.136 404.099 534.343 404.141 534.612C404.192 534.945 404.099 535.235 403.862 535.48C403.633 535.723 403.303 535.878 402.872 535.945C402.351 536.026 401.86 535.951 401.4 535.723C400.938 535.486 400.558 535.124 400.257 534.637L398.97 535.448C399.211 535.927 399.536 536.331 399.945 536.66C400.361 536.979 400.829 537.206 401.35 537.343C401.88 537.477 402.433 537.5 403.011 537.411ZM413.257 535.828C413.933 535.723 414.541 535.509 415.082 535.183C415.624 534.858 416.077 534.45 416.443 533.961C416.809 533.471 417.066 532.923 417.214 532.317C417.369 531.701 417.395 531.06 417.292 530.392C417.187 529.717 416.969 529.113 416.637 528.581C416.313 528.048 415.903 527.607 415.408 527.259C414.911 526.902 414.356 526.651 413.741 526.504C413.127 526.357 412.482 526.336 411.807 526.44C411.131 526.545 410.523 526.76 409.981 527.085C409.44 527.41 408.987 527.818 408.621 528.308C408.262 528.788 408.004 529.332 407.848 529.939C407.7 530.545 407.678 531.186 407.782 531.862C407.885 532.529 408.1 533.133 408.425 533.675C408.757 534.207 409.172 534.651 409.668 535.007C410.165 535.364 410.721 535.616 411.335 535.762C411.949 535.909 412.59 535.931 413.257 535.828ZM413.023 534.314C412.437 534.405 411.887 534.348 411.372 534.144C410.866 533.939 410.441 533.617 410.098 533.179C409.755 532.74 409.537 532.216 409.443 531.605C409.348 530.995 409.399 530.433 409.595 529.919C409.789 529.398 410.097 528.963 410.518 528.614C410.947 528.265 411.455 528.045 412.041 527.954C412.635 527.862 413.185 527.919 413.692 528.124C414.198 528.329 414.623 528.651 414.966 529.089C415.307 529.52 415.525 530.04 415.619 530.651C415.714 531.261 415.664 531.827 415.469 532.349C415.275 532.87 414.967 533.305 414.546 533.654C414.125 534.002 413.617 534.222 413.023 534.314ZM420.581 534.546L422.242 534.29L421.323 528.345L426.563 533.622L427.869 533.42L426.464 524.326L424.804 524.582L425.705 530.417L420.47 525.252L419.176 525.452L420.581 534.546Z" fill="white"/>
<path opacity="0.5" d="M334.617 570.704C335.268 570.603 335.833 570.403 336.312 570.104C336.799 569.804 337.193 569.447 337.496 569.034C337.798 568.612 337.992 568.174 338.08 567.719L336.484 567.253C336.375 567.736 336.14 568.16 335.78 568.524C335.427 568.879 334.961 569.101 334.383 569.19C333.813 569.278 333.292 569.221 332.819 569.019C332.347 568.817 331.952 568.499 331.635 568.065C331.316 567.622 331.108 567.084 331.01 566.449C330.912 565.814 330.948 565.242 331.12 564.732C331.29 564.214 331.57 563.792 331.961 563.465C332.351 563.13 332.831 562.918 333.4 562.83C333.978 562.741 334.49 562.816 334.935 563.055C335.387 563.285 335.738 563.614 335.987 564.043L337.369 563.117C337.148 562.709 336.831 562.354 336.417 562.051C336.003 561.74 335.518 561.515 334.963 561.376C334.416 561.236 333.818 561.216 333.166 561.316C332.515 561.417 331.931 561.628 331.415 561.949C330.896 562.263 330.466 562.663 330.125 563.149C329.782 563.627 329.541 564.172 329.403 564.785C329.263 565.39 329.245 566.03 329.35 566.706C329.454 567.381 329.665 567.99 329.982 568.533C330.298 569.067 330.692 569.514 331.164 569.875C331.637 570.235 332.168 570.491 332.757 570.641C333.346 570.783 333.966 570.804 334.617 570.704ZM345.388 569.039C346.063 568.935 346.672 568.72 347.213 568.395C347.754 568.07 348.208 567.662 348.574 567.172C348.94 566.682 349.197 566.134 349.345 565.528C349.5 564.913 349.525 564.271 349.422 563.604C349.318 562.929 349.1 562.325 348.768 561.793C348.444 561.26 348.034 560.819 347.538 560.47C347.042 560.114 346.486 559.862 345.872 559.716C345.258 559.569 344.613 559.548 343.937 559.652C343.262 559.756 342.653 559.971 342.112 560.297C341.571 560.622 341.117 561.029 340.751 561.519C340.392 562 340.134 562.544 339.978 563.151C339.83 563.757 339.809 564.398 339.913 565.073C340.016 565.741 340.23 566.345 340.556 566.886C340.888 567.418 341.302 567.863 341.799 568.219C342.296 568.576 342.851 568.827 343.465 568.974C344.08 569.121 344.72 569.143 345.388 569.039ZM345.154 567.526C344.568 567.616 344.018 567.56 343.503 567.356C342.996 567.151 342.571 566.829 342.229 566.39C341.886 565.952 341.667 565.427 341.573 564.817C341.479 564.206 341.529 563.645 341.725 563.131C341.919 562.609 342.227 562.174 342.648 561.826C343.078 561.476 343.585 561.256 344.171 561.166C344.765 561.074 345.316 561.131 345.822 561.336C346.329 561.541 346.754 561.862 347.096 562.301C347.438 562.732 347.656 563.252 347.75 563.862C347.844 564.473 347.794 565.039 347.6 565.56C347.406 566.082 347.098 566.517 346.677 566.865C346.256 567.214 345.748 567.434 345.154 567.526ZM352.712 567.758L355.678 567.299C356.639 567.151 357.443 566.827 358.09 566.327C358.746 565.825 359.216 565.203 359.501 564.459C359.786 563.715 359.86 562.899 359.723 562.012C359.585 561.117 359.268 560.362 358.773 559.747C358.277 559.124 357.645 558.675 356.878 558.402C356.11 558.121 355.241 558.055 354.273 558.205L351.307 558.663L352.712 567.758ZM354.146 566.036L353.193 559.872L354.536 559.664C355.154 559.569 355.707 559.612 356.194 559.796C356.688 559.977 357.098 560.281 357.422 560.706C357.744 561.122 357.954 561.644 358.051 562.271C358.148 562.897 358.106 563.462 357.925 563.965C357.753 564.467 357.458 564.879 357.041 565.201C356.625 565.524 356.107 565.733 355.489 565.829L354.146 566.036ZM362.858 566.19L368.9 565.256L368.674 563.792L364.292 564.469L363.926 562.1L368.064 561.461L367.838 559.996L363.699 560.636L363.339 558.304L367.722 557.627L367.495 556.162L361.453 557.096L362.858 566.19ZM374.497 564.542C375.124 564.445 375.656 564.246 376.093 563.945C376.529 563.644 376.851 563.274 377.058 562.834C377.265 562.393 377.328 561.913 377.248 561.392C377.06 560.179 376.207 559.453 374.686 559.213L372.933 558.946C372.591 558.891 372.32 558.783 372.12 558.622C371.927 558.452 371.811 558.241 371.772 557.988C371.721 557.655 371.806 557.367 372.026 557.124C372.254 556.872 372.58 556.714 373.003 556.648C373.475 556.575 373.909 556.637 374.306 556.834C374.702 557.023 375.025 557.332 375.274 557.76L376.547 556.938C376.197 556.292 375.685 555.809 375.011 555.488C374.344 555.166 373.6 555.069 372.778 555.196C372.184 555.287 371.673 555.483 371.244 555.783C370.822 556.073 370.512 556.437 370.313 556.876C370.123 557.314 370.068 557.793 370.148 558.314C370.24 558.908 370.499 559.398 370.925 559.782C371.349 560.158 371.933 560.405 372.677 560.523L374.509 560.815C374.843 560.872 375.1 560.974 375.281 561.121C375.47 561.267 375.586 561.474 375.627 561.742C375.679 562.076 375.586 562.365 375.349 562.61C375.12 562.854 374.79 563.009 374.358 563.076C373.837 563.156 373.347 563.082 372.887 562.853C372.425 562.616 372.044 562.254 371.744 561.767L370.457 562.579C370.698 563.058 371.023 563.462 371.432 563.79C371.848 564.109 372.316 564.337 372.837 564.473C373.366 564.608 373.92 564.631 374.497 564.542ZM383.52 562.997L387.354 562.405C388.371 562.248 389.127 561.881 389.621 561.305C390.122 560.719 390.305 559.991 390.171 559.12C390.106 558.705 389.965 558.327 389.745 557.986C389.526 557.645 389.193 557.376 388.746 557.178C388.963 556.911 389.107 556.631 389.178 556.336C389.257 556.041 389.273 555.738 389.225 555.429C389.102 554.632 388.749 554.045 388.166 553.668C387.583 553.291 386.843 553.172 385.948 553.311L382.115 553.903L383.52 562.997ZM384.321 557.174L383.994 555.062L386.253 554.714C386.594 554.661 386.881 554.712 387.114 554.868C387.346 555.024 387.487 555.26 387.536 555.578C387.585 555.895 387.523 556.171 387.351 556.406C387.178 556.633 386.921 556.773 386.579 556.825L384.321 557.174ZM384.954 561.276L384.545 558.627L386.889 558.265C387.32 558.198 387.681 558.267 387.971 558.473C388.268 558.668 388.448 558.97 388.51 559.377C388.572 559.775 388.491 560.117 388.269 560.401C388.053 560.676 387.729 560.847 387.298 560.914L384.954 561.276ZM394.901 561.239L396.573 560.981L395.949 556.94L398.22 551.415L396.328 551.707L394.848 555.398L392.324 552.326L390.432 552.618L394.279 557.211L394.901 561.239ZM404.627 559.736L405.152 559.655C405.754 559.562 406.256 559.364 406.659 559.06C407.07 558.754 407.361 558.372 407.532 557.912C407.711 557.451 407.757 556.94 407.67 556.379L406.7 550.104L405.028 550.363L406.007 556.698C406.065 557.073 405.993 557.392 405.793 557.656C405.599 557.911 405.306 558.069 404.916 558.129L404.391 558.21L404.627 559.736ZM412.628 558.5L414.533 558.206L415.267 551.393L418.024 557.666L419.928 557.372L420.964 547.9L419.182 548.176L418.554 555.272L415.74 548.708L414.019 548.973L413.305 556.083L410.564 549.507L408.782 549.783L412.628 558.5Z" fill="white"/>
<path d="M487.028 361.404L489.585 361.009L493.217 345.449L490.678 345.841L487.028 361.404Z" fill="#F43F5E"/>
<path d="M500.242 358.635L502.657 358.262L501.902 353.379L504.175 353.028L507.664 357.488L510.398 357.066L506.542 352.226C507.228 351.804 507.735 351.241 508.062 350.536C508.402 349.829 508.501 349.02 508.36 348.109C508.221 347.209 507.909 346.482 507.423 345.927C506.937 345.371 506.32 344.988 505.572 344.776C504.835 344.551 504.016 344.508 503.116 344.647L498.198 345.407L500.242 358.635ZM501.573 351.248L500.942 347.164L503.481 346.772C504.132 346.671 504.681 346.774 505.129 347.081C505.576 347.387 505.848 347.854 505.945 348.482C506.04 349.097 505.922 349.625 505.59 350.064C505.256 350.491 504.763 350.755 504.112 350.856L501.573 351.248ZM514.227 356.474L516.837 356.071L517.357 353.082L522.471 352.291L523.851 354.987L526.479 354.581L519.871 342.058L516.746 342.541L514.227 356.474ZM517.72 350.844L518.723 344.98L521.449 350.268L517.72 350.844ZM531.28 353.839L533.695 353.466L532.941 348.583L535.213 348.232L538.702 352.692L541.437 352.27L537.58 347.43C538.266 347.009 538.773 346.445 539.101 345.74C539.44 345.034 539.539 344.224 539.398 343.313C539.259 342.413 538.947 341.686 538.461 341.131C537.975 340.575 537.359 340.192 536.611 339.98C535.873 339.755 535.054 339.712 534.155 339.851L529.236 340.611L531.28 353.839ZM532.611 346.452L531.98 342.368L534.519 341.976C535.17 341.875 535.72 341.978 536.167 342.285C536.614 342.592 536.886 343.059 536.983 343.686C537.078 344.302 536.96 344.829 536.628 345.268C536.294 345.695 535.801 345.959 535.15 346.06L532.611 346.452ZM546.349 351.511L555.138 350.153L554.809 348.022L548.434 349.007L547.902 345.562L553.921 344.632L553.592 342.501L547.573 343.431L547.049 340.04L553.423 339.055L553.094 336.924L544.305 338.282L546.349 351.511ZM560.238 349.365L565.813 348.503C567.293 348.275 568.392 347.741 569.111 346.903C569.84 346.051 570.106 344.992 569.911 343.725C569.817 343.121 569.611 342.571 569.292 342.075C568.973 341.579 568.488 341.187 567.838 340.9C568.154 340.512 568.363 340.104 568.467 339.676C568.582 339.246 568.605 338.806 568.536 338.356C568.356 337.196 567.843 336.342 566.995 335.795C566.146 335.247 565.071 335.074 563.769 335.275L558.194 336.136L560.238 349.365ZM561.401 340.895L560.927 337.823L564.212 337.315C564.709 337.239 565.126 337.313 565.464 337.54C565.802 337.767 566.007 338.111 566.078 338.572C566.15 339.034 566.06 339.436 565.81 339.777C565.558 340.107 565.184 340.31 564.686 340.387L561.401 340.895ZM562.323 346.861L561.728 343.008L565.137 342.481C565.765 342.384 566.289 342.485 566.711 342.783C567.143 343.068 567.404 343.506 567.496 344.098C567.585 344.678 567.468 345.175 567.144 345.589C566.831 345.989 566.36 346.237 565.732 346.334L562.323 346.861ZM575.844 346.953L583.923 345.705L583.593 343.574L577.929 344.449L576.214 333.352L573.8 333.725L575.844 346.953ZM595.016 344.209C595.999 344.057 596.884 343.745 597.671 343.272C598.459 342.798 599.118 342.206 599.651 341.493C600.183 340.781 600.557 339.984 600.772 339.102C600.997 338.207 601.035 337.274 600.885 336.303C600.733 335.32 600.416 334.442 599.933 333.669C599.461 332.893 598.865 332.252 598.145 331.745C597.422 331.226 596.614 330.86 595.721 330.647C594.827 330.434 593.889 330.403 592.907 330.555C591.924 330.706 591.039 331.019 590.252 331.492C589.464 331.965 588.804 332.558 588.272 333.27C587.75 333.969 587.375 334.76 587.148 335.644C586.933 336.526 586.901 337.458 587.053 338.44C587.203 339.411 587.515 340.29 587.988 341.077C588.471 341.851 589.074 342.497 589.796 343.016C590.519 343.534 591.327 343.9 592.22 344.114C593.114 344.327 594.046 344.359 595.016 344.209ZM594.676 342.007C593.824 342.139 593.023 342.057 592.275 341.76C591.538 341.462 590.92 340.994 590.421 340.356C589.923 339.718 589.605 338.955 589.468 338.067C589.331 337.179 589.404 336.362 589.689 335.615C589.972 334.856 590.419 334.223 591.032 333.717C591.656 333.208 592.394 332.888 593.247 332.756C594.111 332.623 594.911 332.705 595.648 333.003C596.385 333.302 597.003 333.77 597.502 334.408C597.998 335.034 598.315 335.791 598.452 336.679C598.59 337.567 598.517 338.39 598.234 339.149C597.951 339.907 597.504 340.54 596.891 341.047C596.279 341.554 595.54 341.874 594.676 342.007ZM613.632 341.333C614.579 341.186 615.401 340.896 616.097 340.461C616.806 340.024 617.38 339.505 617.82 338.904C618.259 338.291 618.542 337.653 618.67 336.991L616.347 336.314C616.189 337.017 615.848 337.633 615.324 338.162C614.81 338.678 614.133 339.001 613.292 339.131C612.463 339.259 611.705 339.176 611.018 338.882C610.33 338.589 609.755 338.126 609.294 337.494C608.831 336.851 608.528 336.067 608.386 335.144C608.243 334.221 608.296 333.388 608.545 332.647C608.792 331.894 609.2 331.279 609.769 330.803C610.336 330.316 611.034 330.008 611.863 329.88C612.703 329.75 613.447 329.859 614.095 330.208C614.753 330.542 615.263 331.021 615.626 331.644L617.636 330.297C617.314 329.704 616.852 329.188 616.251 328.747C615.648 328.295 614.943 327.968 614.136 327.765C613.341 327.561 612.469 327.532 611.522 327.678C610.576 327.825 609.726 328.132 608.974 328.599C608.22 329.055 607.595 329.636 607.098 330.343C606.6 331.039 606.25 331.832 606.048 332.724C605.845 333.603 605.819 334.535 605.971 335.517C606.123 336.5 606.429 337.385 606.89 338.175C607.35 338.952 607.923 339.603 608.61 340.127C609.297 340.651 610.07 341.023 610.928 341.241C611.784 341.449 612.685 341.479 613.632 341.333ZM624.465 339.441L626.879 339.068L626.306 335.357L627.755 332.969L632.206 338.244L635.047 337.806L629.102 330.743L632.843 324.602L629.807 325.071L625.743 331.717L624.835 325.839L622.421 326.212L624.465 339.441ZM644.428 336.574C645.339 336.433 646.112 336.144 646.748 335.707C647.383 335.269 647.851 334.73 648.152 334.09C648.453 333.449 648.545 332.75 648.428 331.993C648.156 330.229 646.914 329.173 644.703 328.823L642.152 328.436C641.655 328.355 641.261 328.198 640.97 327.964C640.689 327.716 640.521 327.409 640.464 327.042C640.389 326.557 640.512 326.138 640.833 325.785C641.165 325.419 641.638 325.188 642.254 325.093C642.94 324.987 643.572 325.077 644.15 325.364C644.726 325.638 645.195 326.087 645.558 326.71L647.409 325.515C646.9 324.575 646.155 323.872 645.174 323.406C644.205 322.937 643.123 322.796 641.927 322.98C641.063 323.114 640.319 323.398 639.696 323.834C639.082 324.256 638.631 324.786 638.342 325.425C638.064 326.062 637.984 326.759 638.101 327.516C638.235 328.381 638.611 329.092 639.231 329.651C639.849 330.198 640.698 330.557 641.779 330.73L644.445 331.154C644.93 331.237 645.304 331.385 645.568 331.599C645.843 331.811 646.011 332.112 646.071 332.503C646.146 332.988 646.011 333.409 645.666 333.765C645.333 334.119 644.853 334.345 644.225 334.442C643.468 334.559 642.754 334.451 642.085 334.118C641.413 333.774 640.859 333.247 640.423 332.539L638.551 333.719C638.901 334.416 639.373 335.004 639.968 335.482C640.573 335.946 641.255 336.277 642.012 336.475C642.782 336.671 643.587 336.704 644.428 336.574Z" fill="white"/>
<g filter="url(#filter3_f_19_656)">
<rect x="168.305" y="84.9744" width="376.088" height="209.277" transform="rotate(16.72 168.305 84.9744)" fill="url(#paint3_linear_19_656)"/>
</g>
<g filter="url(#filter4_d_19_656)">
<rect x="149.483" y="42" width="436.721" height="276.268" rx="18.0962" transform="rotate(16.7205 149.483 42)" fill="white"/>
</g>
<mask id="mask1_19_656" style="mask-type:alpha" maskUnits="userSpaceOnUse" x="74" y="46" width="490" height="382">
<rect x="149.483" y="42" width="436.721" height="276.268" rx="18.0962" transform="rotate(16.7205 149.483 42)" fill="white"/>
</mask>
<g mask="url(#mask1_19_656)">
<g opacity="0.18">
<line x1="147.446" y1="33.3451" x2="395.632" y2="406.444" stroke="#18181B" stroke-width="1.20641"/>
<line x1="140.974" y1="33.9205" x2="389.16" y2="407.019" stroke="#18181B" stroke-width="1.20641"/>
<line x1="134.503" y1="34.4959" x2="382.689" y2="407.594" stroke="#18181B" stroke-width="1.20641"/>
<line x1="128.033" y1="35.0713" x2="376.218" y2="408.17" stroke="#18181B" stroke-width="1.20641"/>
<line x1="121.561" y1="35.6466" x2="369.747" y2="408.745" stroke="#18181B" stroke-width="1.20641"/>
<line x1="115.09" y1="36.2219" x2="363.275" y2="409.32" stroke="#18181B" stroke-width="1.20641"/>
<line x1="108.618" y1="36.7974" x2="356.804" y2="409.896" stroke="#18181B" stroke-width="1.20641"/>
<line x1="102.148" y1="37.3727" x2="350.333" y2="410.471" stroke="#18181B" stroke-width="1.20641"/>
<line x1="95.6761" y1="37.948" x2="343.862" y2="411.046" stroke="#18181B" stroke-width="1.20641"/>
<line x1="89.2049" y1="38.5235" x2="337.391" y2="411.622" stroke="#18181B" stroke-width="1.20641"/>
<line x1="82.7332" y1="39.0988" x2="330.919" y2="412.197" stroke="#18181B" stroke-width="1.20641"/>
<line x1="76.263" y1="39.6742" x2="324.449" y2="412.773" stroke="#18181B" stroke-width="1.20641"/>
<line x1="69.7913" y1="40.2495" x2="317.977" y2="413.348" stroke="#18181B" stroke-width="1.20641"/>
<line x1="63.3196" y1="40.8248" x2="311.505" y2="413.923" stroke="#18181B" stroke-width="1.20641"/>
<line x1="56.8484" y1="41.4003" x2="305.034" y2="414.499" stroke="#18181B" stroke-width="1.20641"/>
<line x1="50.3777" y1="41.9756" x2="298.563" y2="415.074" stroke="#18181B" stroke-width="1.20641"/>
<line x1="43.9065" y1="42.5509" x2="292.092" y2="415.649" stroke="#18181B" stroke-width="1.20641"/>
<line x1="37.4349" y1="43.1264" x2="285.621" y2="416.225" stroke="#18181B" stroke-width="1.20641"/>
<line x1="30.9632" y1="43.7017" x2="279.149" y2="416.8" stroke="#18181B" stroke-width="1.20641"/>
<line x1="24.493" y1="44.2771" x2="272.679" y2="417.376" stroke="#18181B" stroke-width="1.20641"/>
<line x1="18.0213" y1="44.8524" x2="266.207" y2="417.951" stroke="#18181B" stroke-width="1.20641"/>
<line x1="11.5501" y1="45.4278" x2="259.736" y2="418.526" stroke="#18181B" stroke-width="1.20641"/>
<line x1="5.07841" y1="46.0032" x2="253.264" y2="419.102" stroke="#18181B" stroke-width="1.20641"/>
<line x1="-1.39181" y1="46.5785" x2="246.794" y2="419.677" stroke="#18181B" stroke-width="1.20641"/>
<line x1="-7.86349" y1="47.1539" x2="240.322" y2="420.252" stroke="#18181B" stroke-width="1.20641"/>
<line x1="-14.3352" y1="47.7293" x2="233.851" y2="420.828" stroke="#18181B" stroke-width="1.20641"/>
<line x1="-20.8064" y1="48.3046" x2="227.379" y2="421.403" stroke="#18181B" stroke-width="1.20641"/>
<line x1="-27.2761" y1="48.88" x2="220.91" y2="421.978" stroke="#18181B" stroke-width="1.20641"/>
<line x1="-33.7473" y1="49.4553" x2="214.438" y2="422.554" stroke="#18181B" stroke-width="1.20641"/>
<line x1="-40.2199" y1="50.0307" x2="207.966" y2="423.129" stroke="#18181B" stroke-width="1.20641"/>
<line x1="-46.6892" y1="50.6061" x2="201.497" y2="423.704" stroke="#18181B" stroke-width="1.20641"/>
<line x1="154.726" y1="34.2722" x2="402.912" y2="407.371" stroke="#18181B" stroke-width="1.20641"/>
<line x1="162.004" y1="35.1994" x2="410.19" y2="408.298" stroke="#18181B" stroke-width="1.20641"/>
<line x1="169.284" y1="36.1266" x2="417.47" y2="409.225" stroke="#18181B" stroke-width="1.20641"/>
<line x1="176.564" y1="37.0537" x2="424.749" y2="410.152" stroke="#18181B" stroke-width="1.20641"/>
<line x1="183.843" y1="37.9809" x2="432.029" y2="411.079" stroke="#18181B" stroke-width="1.20641"/>
<line x1="191.123" y1="38.9079" x2="439.309" y2="412.006" stroke="#18181B" stroke-width="1.20641"/>
<line x1="198.403" y1="39.8351" x2="446.588" y2="412.934" stroke="#18181B" stroke-width="1.20641"/>
<line x1="205.681" y1="40.7622" x2="453.867" y2="413.861" stroke="#18181B" stroke-width="1.20641"/>
<line x1="212.961" y1="41.6893" x2="461.146" y2="414.788" stroke="#18181B" stroke-width="1.20641"/>
<line x1="220.241" y1="42.6165" x2="468.426" y2="415.715" stroke="#18181B" stroke-width="1.20641"/>
<line x1="227.52" y1="43.5436" x2="475.706" y2="416.642" stroke="#18181B" stroke-width="1.20641"/>
<line x1="234.8" y1="44.4707" x2="482.986" y2="417.569" stroke="#18181B" stroke-width="1.20641"/>
<line x1="242.079" y1="45.3978" x2="490.265" y2="418.496" stroke="#18181B" stroke-width="1.20641"/>
<line x1="249.358" y1="46.325" x2="497.544" y2="419.423" stroke="#18181B" stroke-width="1.20641"/>
<line x1="256.638" y1="47.2521" x2="504.824" y2="420.35" stroke="#18181B" stroke-width="1.20641"/>
<line x1="263.917" y1="48.1792" x2="512.103" y2="421.278" stroke="#18181B" stroke-width="1.20641"/>
<line x1="271.197" y1="49.1063" x2="519.383" y2="422.205" stroke="#18181B" stroke-width="1.20641"/>
<line x1="278.477" y1="50.0335" x2="526.663" y2="423.132" stroke="#18181B" stroke-width="1.20641"/>
<line x1="285.757" y1="50.9606" x2="533.942" y2="424.059" stroke="#18181B" stroke-width="1.20641"/>
<line x1="293.035" y1="51.8877" x2="541.221" y2="424.986" stroke="#18181B" stroke-width="1.20641"/>
<line x1="300.315" y1="52.8148" x2="548.5" y2="425.913" stroke="#18181B" stroke-width="1.20641"/>
<line x1="307.595" y1="53.742" x2="555.78" y2="426.84" stroke="#18181B" stroke-width="1.20641"/>
<line x1="314.875" y1="54.6691" x2="563.061" y2="427.767" stroke="#18181B" stroke-width="1.20641"/>
</g>
<rect x="149.483" y="42" width="436.721" height="276.268" rx="18.0962" transform="rotate(16.7205 149.483 42)" fill="url(#paint4_linear_19_656)"/>
<g filter="url(#filter5_f_19_656)">
<circle cx="155.826" cy="75.3973" r="108.577" transform="rotate(16.7205 155.826 75.3973)" fill="#D2D2D2"/>
</g>
<g filter="url(#filter6_f_19_656)">
<circle cx="479.136" cy="408.08" r="108.577" transform="rotate(16.7205 479.136 408.08)" fill="#C8C8C8"/>
</g>
</g>
<path d="M199.698 210.302L209.161 178.801C210.38 174.743 207.281 170.214 202.25 168.703L156.948 155.094C151.916 153.582 146.833 155.654 145.614 159.711L136.151 191.212C134.932 195.27 138.034 199.798 143.065 201.309L188.367 214.918C193.398 216.429 198.479 214.359 199.698 210.302ZM143.242 200.719C138.614 199.329 135.762 195.163 136.882 191.432L146.346 159.931C147.467 156.199 152.143 154.293 156.771 155.684L202.073 169.293C206.699 170.682 209.551 174.849 208.43 178.581L198.966 210.082C197.846 213.813 193.17 215.718 188.544 214.328L143.242 200.719Z" fill="#3F3F46"/>
<path d="M188.544 214.33L143.242 200.721C141.018 200.052 139.099 198.698 137.906 196.958C136.714 195.217 136.345 193.231 136.882 191.436L146.346 159.932C147.467 156.2 152.143 154.295 156.771 155.685L202.073 169.294C206.698 170.684 209.55 174.85 208.429 178.583L198.965 210.086C197.845 213.814 193.169 215.719 188.544 214.33Z" fill="url(#paint5_linear_19_656)"/>
<path d="M137.88 185.896L138.057 185.306L158.919 191.573C160.301 191.987 161.76 191.942 162.974 191.447C164.189 190.952 165.06 190.049 165.396 188.934L168.763 177.728C169.096 176.613 168.867 175.379 168.127 174.297C167.386 173.214 166.194 172.373 164.812 171.956L143.95 165.69L144.128 165.099L164.989 171.366C166.565 171.841 167.925 172.801 168.769 174.035C169.614 175.269 169.875 176.676 169.494 177.948L166.128 189.154C165.744 190.425 164.751 191.455 163.366 192.02C161.982 192.584 160.318 192.635 158.741 192.163L137.88 185.896Z" fill="#383335"/>
<path d="M178.24 192.792L181.606 181.586C181.99 180.315 182.983 179.285 184.368 178.721C185.753 178.156 187.417 178.105 188.994 178.577L207.521 184.143L207.344 184.733L188.816 179.167C187.433 178.753 185.975 178.798 184.76 179.293C183.546 179.788 182.675 180.692 182.338 181.806L178.972 193.012C178.638 194.128 178.867 195.362 179.608 196.444C180.349 197.526 181.541 198.368 182.923 198.784L201.451 204.35L201.274 204.94L182.746 199.374C181.17 198.899 179.81 197.94 178.965 196.706C178.121 195.472 177.86 194.064 178.24 192.792Z" fill="#383335"/>
<path d="M181.726 182.514L181.903 181.924L169.06 178.065L168.883 178.655L181.726 182.514Z" fill="#383335"/>
<path d="M178.674 192.674L178.852 192.084L166.008 188.226L165.831 188.816L178.674 192.674Z" fill="#383335"/>
<path d="M150.642 203.265L154.46 190.555L153.728 190.336L149.91 203.045L150.642 203.265Z" fill="#383335"/>
<path d="M160.531 170.348L164.349 157.639L163.617 157.419L159.799 170.129L160.531 170.348Z" fill="#383335"/>
<path d="M183.057 213.002L186.875 200.293L186.143 200.073L182.325 212.782L183.057 213.002Z" fill="#383335"/>
<path d="M192.944 180.086L196.762 167.376L196.031 167.156L192.212 179.866L192.944 180.086Z" fill="#383335"/>
<path d="M203.959 194.792L204.136 194.202L180.361 187.06L180.184 187.65L203.959 194.792Z" fill="#383335"/>
<path d="M167.108 183.722L167.285 183.132L141.07 175.257L140.893 175.847L167.108 183.722Z" fill="#383335"/>
<path d="M413.054 376.528L404.569 373.979L419.662 342.981L428.148 345.53L413.054 376.528ZM407.221 339.244L392.398 359.23L392.89 354.115L392.891 354.117L394.439 338.603C394.439 338.603 394.975 335.565 391.295 334.459L377.922 330.442L377.599 330.947C377.599 330.947 381.433 333.026 385.356 337.338L384.222 367.867L393.063 370.523L416.353 341.987L407.221 339.244ZM464.17 391.883L471.961 394.224L474.959 359.591L468.138 357.542C464.988 356.596 463.491 358.795 463.491 358.795L441.775 385.156L450.621 387.813L453.844 383.503L464.63 386.744L464.17 391.883ZM458.296 377.55L466.418 366.693L465.263 379.643L458.296 377.55ZM449.875 360.602L453.188 353.967C453.188 353.967 449.879 351.423 445.984 350.253C441.773 348.988 431.221 347.825 428.532 356.774C426.003 365.193 437.708 368.824 436.379 373.246C435.05 377.669 424.762 373.714 422.125 369.881L418.666 376.82C418.666 376.82 421.902 379.799 427.69 381.538C433.481 383.277 443.117 382.903 445.568 374.743C448.113 366.27 436.509 361.923 437.616 358.239C438.724 354.554 446.845 357.51 449.875 360.602Z" fill="#2566AF"/>
<path d="M392.891 354.116L394.439 338.602C394.439 338.602 394.976 335.564 391.296 334.459L377.923 330.441L377.6 330.946C377.6 330.946 383.627 334.209 388.293 341.052C392.755 347.593 392.891 354.116 392.891 354.116Z" fill="#E6A540"/>
<path d="M116.022 261.539L122.313 263.429L122.771 261.904L118.208 260.533L118.949 258.068L123.258 259.362L123.716 257.837L119.407 256.542L120.137 254.115L124.699 255.486L125.157 253.96L118.866 252.071L116.022 261.539ZM128.071 265.325C128.723 265.521 129.331 265.574 129.893 265.484C130.456 265.395 130.94 265.184 131.344 264.853C131.748 264.522 132.032 264.085 132.195 263.543C132.574 262.281 132.082 261.181 130.719 260.245L129.142 259.176C128.836 258.964 128.624 258.734 128.504 258.485C128.396 258.231 128.381 257.973 128.46 257.71C128.564 257.363 128.78 257.122 129.106 256.99C129.443 256.851 129.832 256.847 130.273 256.98C130.764 257.127 131.157 257.389 131.451 257.763C131.747 258.129 131.917 258.578 131.961 259.108L133.576 258.9C133.535 258.112 133.262 257.407 132.757 256.784C132.259 256.163 131.583 255.724 130.727 255.467C130.109 255.282 129.522 255.235 128.968 255.327C128.425 255.413 127.955 255.623 127.559 255.957C127.172 256.293 126.897 256.732 126.734 257.275C126.548 257.893 126.573 258.487 126.808 259.057C127.046 259.618 127.498 260.128 128.164 260.586L129.806 261.717C130.103 261.926 130.306 262.144 130.413 262.371C130.529 262.599 130.545 262.854 130.461 263.133C130.357 263.481 130.133 263.718 129.79 263.846C129.455 263.976 129.063 263.974 128.614 263.839C128.072 263.676 127.63 263.377 127.29 262.943C126.952 262.499 126.75 261.972 126.684 261.361L125.061 261.552C125.073 262.129 125.201 262.671 125.445 263.178C125.701 263.68 126.05 264.117 126.492 264.491C126.943 264.866 127.469 265.144 128.071 265.325ZM135.798 267.48L137.539 268.003L139.925 260.06L142.34 260.785L142.798 259.26L136.189 257.274L135.731 258.8L138.184 259.536L135.798 267.48ZM142.164 269.392L143.892 269.912L145.038 266.099L149.067 267.309L147.921 271.122L149.663 271.645L152.507 262.176L150.766 261.653L149.525 265.784L145.496 264.574L146.737 260.443L145.008 259.924L142.164 269.392ZM152.64 272.539L158.932 274.429L159.39 272.904L154.827 271.534L155.568 269.068L159.876 270.362L160.334 268.837L156.026 267.543L156.755 265.115L161.318 266.486L161.776 264.961L155.485 263.071L152.64 272.539ZM161.354 275.157L163.083 275.676L164.133 272.181L165.76 272.67L166.667 276.753L168.624 277.341L167.593 272.888C168.184 272.826 168.701 272.611 169.144 272.246C169.594 271.882 169.918 271.374 170.114 270.722C170.307 270.078 170.33 269.494 170.183 268.969C170.036 268.444 169.747 267.993 169.316 267.614C168.895 267.229 168.363 266.94 167.719 266.746L164.199 265.689L161.354 275.157ZM164.591 270.656L165.469 267.733L167.287 268.279C167.753 268.419 168.086 268.662 168.287 269.009C168.487 269.356 168.52 269.754 168.385 270.203C168.253 270.643 168.006 270.957 167.645 271.144C167.287 271.323 166.875 271.342 166.409 271.202L164.591 270.656ZM174.327 279.054L176.055 279.573L177.201 275.761L181.23 276.971L180.084 280.784L181.825 281.307L184.67 271.838L182.929 271.315L181.688 275.446L177.659 274.235L178.9 270.105L177.171 269.586L174.327 279.054ZM189.422 283.755C190.125 283.966 190.814 284.039 191.49 283.974C192.165 283.909 192.794 283.724 193.375 283.418C193.957 283.113 194.459 282.7 194.883 282.181C195.318 281.656 195.64 281.046 195.849 280.351C196.06 279.648 196.127 278.961 196.051 278.292C195.984 277.625 195.79 277.008 195.471 276.441C195.154 275.865 194.732 275.365 194.204 274.938C193.677 274.512 193.061 274.193 192.358 273.982C191.655 273.77 190.965 273.697 190.29 273.762C189.615 273.827 188.986 274.012 188.405 274.318C187.834 274.618 187.333 275.026 186.901 275.543C186.477 276.062 186.159 276.674 185.948 277.377C185.739 278.072 185.667 278.757 185.732 279.432C185.808 280.101 186.005 280.724 186.321 281.299C186.638 281.875 187.06 282.376 187.588 282.802C188.116 283.229 188.727 283.546 189.422 283.755ZM189.895 282.179C189.285 281.996 188.778 281.686 188.373 281.251C187.976 280.817 187.714 280.309 187.584 279.725C187.455 279.141 187.485 278.531 187.676 277.896C187.867 277.261 188.176 276.739 188.604 276.332C189.033 275.916 189.533 275.636 190.102 275.493C190.68 275.353 191.274 275.374 191.884 275.557C192.503 275.743 193.01 276.053 193.407 276.486C193.803 276.919 194.066 277.428 194.196 278.012C194.328 278.587 194.298 279.192 194.107 279.828C193.916 280.463 193.606 280.989 193.176 281.405C192.747 281.821 192.247 282.1 191.677 282.243C191.108 282.386 190.514 282.365 189.895 282.179ZM198.635 286.357L200.618 286.952L204.482 280.686L204.253 288.044L206.235 288.64L211.622 279.935L209.766 279.377L205.874 285.968L206.182 278.301L204.39 277.762L200.409 284.326L200.793 276.682L198.938 276.124L198.635 286.357ZM209.697 289.68L211.566 290.241L212.863 288.414L216.523 289.513L216.586 291.749L218.467 292.314L218.045 281.864L215.808 281.192L209.697 289.68ZM213.817 287.037L216.35 283.447L216.486 287.839L213.817 287.037ZM220.676 292.978L222.405 293.497L223.455 290.002L225.081 290.491L225.989 294.574L227.946 295.162L226.914 290.709C227.506 290.646 228.023 290.432 228.465 290.066C228.916 289.703 229.24 289.195 229.436 288.542C229.629 287.898 229.652 287.314 229.505 286.79C229.358 286.265 229.068 285.813 228.637 285.434C228.217 285.049 227.685 284.76 227.041 284.567L223.521 283.509L220.676 292.978ZM223.913 288.477L224.791 285.554L226.608 286.1C227.074 286.24 227.408 286.483 227.608 286.83C227.809 287.176 227.842 287.574 227.707 288.023C227.575 288.464 227.328 288.778 226.967 288.965C226.608 289.143 226.196 289.163 225.73 289.023L223.913 288.477ZM230.234 295.849L233.323 296.777C234.322 297.077 235.252 297.135 236.111 296.949C236.979 296.767 237.723 296.381 238.344 295.791C238.964 295.201 239.413 294.445 239.691 293.521C239.971 292.589 240.013 291.711 239.818 290.885C239.625 290.051 239.219 289.324 238.602 288.705C237.987 288.077 237.175 287.611 236.167 287.308L233.079 286.38L230.234 295.849ZM232.421 294.843L234.349 288.425L235.747 288.845C236.391 289.038 236.906 289.336 237.294 289.739C237.689 290.144 237.946 290.628 238.063 291.19C238.183 291.743 238.145 292.346 237.949 292.998C237.754 293.651 237.452 294.179 237.044 294.583C236.645 294.99 236.168 295.253 235.615 295.373C235.062 295.493 234.463 295.457 233.819 295.263L232.421 294.843Z" fill="#18181B"/>
<path opacity="0.5" d="M109.08 284.647L110.809 285.166L111.859 281.671L113.486 282.16L114.393 286.243L116.35 286.831L115.318 282.378C115.91 282.316 116.427 282.101 116.869 281.735C117.32 281.372 117.644 280.864 117.84 280.212C118.033 279.568 118.056 278.984 117.909 278.459C117.762 277.934 117.473 277.483 117.041 277.104C116.621 276.719 116.089 276.43 115.445 276.236L111.925 275.179L109.08 284.647ZM112.317 280.146L113.195 277.223L115.013 277.769C115.479 277.909 115.812 278.152 116.013 278.499C116.213 278.846 116.246 279.243 116.111 279.692C115.979 280.133 115.732 280.447 115.371 280.634C115.013 280.813 114.6 280.832 114.134 280.692L112.317 280.146ZM118.219 287.392L118.766 287.557C119.393 287.745 119.972 287.785 120.503 287.677C121.043 287.571 121.502 287.335 121.88 286.968C122.266 286.604 122.548 286.129 122.723 285.545L124.686 279.012L122.944 278.489L120.963 285.085C120.846 285.475 120.629 285.751 120.312 285.915C120.006 286.072 119.649 286.09 119.243 285.968L118.696 285.804L118.219 287.392ZM128.198 290.39L131.286 291.318C132.286 291.618 133.215 291.676 134.075 291.49C134.942 291.308 135.687 290.922 136.307 290.332C136.928 289.742 137.377 288.986 137.654 288.062C137.934 287.13 137.976 286.252 137.781 285.426C137.588 284.592 137.183 283.865 136.565 283.246C135.95 282.618 135.139 282.152 134.13 281.849L131.042 280.921L128.198 290.39ZM130.384 289.384L132.312 282.966L133.71 283.386C134.354 283.579 134.87 283.877 135.257 284.28C135.653 284.685 135.909 285.169 136.027 285.731C136.147 286.284 136.109 286.887 135.913 287.539C135.717 288.192 135.415 288.72 135.007 289.124C134.608 289.531 134.132 289.794 133.578 289.914C133.025 290.034 132.426 289.998 131.782 289.804L130.384 289.384ZM138.761 293.563L145.052 295.453L145.51 293.928L140.948 292.557L141.688 290.092L145.997 291.386L146.455 289.861L142.146 288.567L142.876 286.139L147.438 287.51L147.897 285.985L141.605 284.095L138.761 293.563ZM150.004 296.941L151.987 297.536L158.123 289.057L156.242 288.492L151.652 295.053L151.425 287.045L149.544 286.48L150.004 296.941ZM157.492 299.19L163.783 301.08L164.242 299.555L159.679 298.184L160.42 295.719L164.728 297.013L165.186 295.488L160.878 294.194L161.607 291.766L166.17 293.137L166.628 291.612L160.337 289.722L157.492 299.19ZM166.206 301.808L171.989 303.545L172.447 302.02L168.393 300.802L170.779 292.859L169.051 292.339L166.206 301.808ZM178.633 305.707C179.336 305.919 180.025 305.992 180.701 305.927C181.376 305.862 182.005 305.676 182.586 305.371C183.168 305.065 183.67 304.652 184.094 304.133C184.529 303.608 184.851 302.998 185.06 302.303C185.271 301.6 185.338 300.914 185.262 300.244C185.195 299.577 185.001 298.96 184.682 298.393C184.365 297.818 183.943 297.317 183.415 296.89C182.888 296.464 182.272 296.145 181.569 295.934C180.866 295.722 180.176 295.649 179.501 295.714C178.826 295.779 178.197 295.965 177.616 296.27C177.045 296.57 176.544 296.978 176.112 297.495C175.688 298.014 175.37 298.626 175.159 299.329C174.95 300.024 174.878 300.709 174.943 301.384C175.019 302.054 175.216 302.676 175.532 303.252C175.849 303.827 176.271 304.328 176.799 304.755C177.327 305.181 177.938 305.499 178.633 305.707ZM179.106 304.131C178.496 303.948 177.989 303.639 177.584 303.203C177.187 302.77 176.925 302.261 176.795 301.677C176.666 301.093 176.696 300.484 176.887 299.848C177.078 299.213 177.387 298.691 177.815 298.284C178.244 297.868 178.744 297.588 179.313 297.445C179.891 297.305 180.485 297.326 181.095 297.51C181.714 297.696 182.221 298.005 182.618 298.438C183.014 298.871 183.277 299.38 183.407 299.964C183.539 300.539 183.509 301.145 183.318 301.78C183.127 302.416 182.817 302.941 182.387 303.357C181.958 303.773 181.458 304.053 180.888 304.196C180.319 304.339 179.725 304.317 179.106 304.131ZM186.328 307.853L188.056 308.372L189.106 304.877L190.911 305.419C191.555 305.612 192.157 305.668 192.717 305.587C193.28 305.498 193.768 305.27 194.183 304.905C194.606 304.543 194.912 304.048 195.1 303.421C195.293 302.777 195.316 302.193 195.169 301.668C195.022 301.144 194.733 300.692 194.302 300.313C193.881 299.928 193.349 299.639 192.705 299.445L189.172 298.384L186.328 307.853ZM189.564 303.352L190.442 300.428L192.273 300.978C192.739 301.118 193.072 301.362 193.273 301.708C193.473 302.055 193.506 302.453 193.371 302.902C193.239 303.342 192.992 303.656 192.631 303.843C192.273 304.022 191.861 304.041 191.395 303.901L189.564 303.352ZM195.724 310.675L197.453 311.195L199.423 304.637L201.152 309.535L201.356 309.596L205.447 306.585L203.515 313.016L205.257 313.539L208.101 304.07L206.449 303.574L202.09 306.92L200.221 301.703L198.569 301.207L195.724 310.675ZM208.224 314.43L214.515 316.32L214.973 314.795L210.411 313.424L211.151 310.959L215.46 312.253L215.918 310.728L211.61 309.434L212.339 307.006L216.901 308.377L217.36 306.852L211.068 304.962L208.224 314.43ZM216.938 317.048L218.667 317.567L220.526 311.378L223.166 318.919L224.526 319.327L227.37 309.859L225.642 309.34L223.817 315.415L221.13 307.984L219.782 307.58L216.938 317.048ZM229.192 320.729L230.933 321.252L233.319 313.309L235.734 314.034L236.192 312.509L229.583 310.524L229.125 312.049L231.578 312.786L229.192 320.729ZM238.972 323.667L240.701 324.186L243.545 314.718L241.816 314.199L238.972 323.667ZM243.677 325.081L245.406 325.6L247.265 319.41L249.905 326.951L251.265 327.36L254.109 317.891L252.381 317.372L250.556 323.447L247.869 316.017L246.522 315.612L243.677 325.081ZM258.655 329.746C259.333 329.95 259.973 330.018 260.576 329.949C261.187 329.883 261.735 329.72 262.22 329.459C262.707 329.19 263.099 328.855 263.395 328.454L262.062 327.264C261.733 327.682 261.309 327.985 260.791 328.171C260.285 328.351 259.73 328.351 259.129 328.17C258.536 327.992 258.057 327.696 257.692 327.281C257.326 326.867 257.091 326.376 256.984 325.808C256.88 325.232 256.927 324.613 257.126 323.952C257.324 323.291 257.625 322.753 258.026 322.338C258.431 321.915 258.898 321.635 259.429 321.499C259.962 321.354 260.525 321.371 261.118 321.549C261.72 321.73 262.181 322.039 262.502 322.477C262.834 322.91 263.022 323.391 263.066 323.921L264.834 323.663C264.808 323.165 264.664 322.674 264.404 322.189C264.145 321.696 263.779 321.254 263.306 320.862C262.841 320.473 262.269 320.176 261.591 319.973C260.914 319.769 260.25 319.704 259.6 319.776C258.952 319.841 258.351 320.029 257.795 320.343C257.241 320.647 256.755 321.065 256.337 321.595C255.922 322.117 255.609 322.73 255.397 323.433C255.186 324.136 255.109 324.824 255.165 325.497C255.224 326.162 255.4 326.778 255.691 327.346C255.982 327.913 256.379 328.407 256.881 328.826C257.386 329.236 257.978 329.543 258.655 329.746Z" fill="#18181B"/>
<path d="M357.995 154.006L360.657 154.806L371.376 141.399L368.733 140.604L357.995 154.006Z" fill="#F43F5E"/>
<path d="M372.089 157.434L374.603 158.189L376.13 153.106L378.497 153.816L379.816 159.755L382.663 160.611L381.162 154.133C382.023 154.043 382.775 153.731 383.418 153.199C384.074 152.67 384.545 151.932 384.83 150.983C385.111 150.046 385.145 149.196 384.931 148.433C384.717 147.67 384.296 147.013 383.669 146.462C383.058 145.902 382.284 145.481 381.347 145.2L376.226 143.662L372.089 157.434ZM376.797 150.887L378.074 146.635L380.718 147.429C381.395 147.633 381.88 147.987 382.172 148.491C382.464 148.995 382.512 149.574 382.316 150.227C382.123 150.868 381.764 151.325 381.239 151.597C380.718 151.857 380.118 151.885 379.44 151.681L376.797 150.887ZM386.649 161.808L389.367 162.624L391.254 159.966L396.578 161.566L396.669 164.818L399.405 165.64L398.791 150.44L395.538 149.463L386.649 161.808ZM392.641 157.965L396.326 152.743L396.523 159.131L392.641 157.965ZM404.404 167.142L406.918 167.897L408.445 162.813L410.812 163.524L412.131 169.463L414.978 170.318L413.478 163.841C414.338 163.75 415.09 163.439 415.734 162.906C416.39 162.378 416.86 161.639 417.145 160.69C417.427 159.754 417.46 158.904 417.246 158.141C417.032 157.378 416.611 156.721 415.984 156.169C415.373 155.61 414.599 155.189 413.662 154.908L408.541 153.369L404.404 167.142ZM409.112 160.595L410.389 156.343L413.033 157.137C413.711 157.341 414.195 157.695 414.487 158.199C414.779 158.703 414.827 159.282 414.631 159.935C414.438 160.576 414.08 161.032 413.554 161.305C413.033 161.564 412.433 161.593 411.755 161.389L409.112 160.595ZM420.092 171.854L429.243 174.603L429.91 172.385L423.273 170.391L424.35 166.805L430.617 168.688L431.284 166.469L425.017 164.587L426.077 161.056L432.714 163.049L433.38 160.831L424.23 158.082L420.092 171.854ZM434.553 176.199L440.358 177.942C441.898 178.405 443.211 178.396 444.296 177.916C445.397 177.427 446.145 176.523 446.541 175.205C446.73 174.576 446.785 173.947 446.705 173.319C446.625 172.69 446.336 172.086 445.838 171.507C446.324 171.276 446.716 170.978 447.014 170.61C447.325 170.247 447.551 169.831 447.692 169.363C448.054 168.155 447.951 167.089 447.382 166.166C446.813 165.242 445.851 164.577 444.495 164.17L438.69 162.426L434.553 176.199ZM439.6 168.524L440.56 165.326L443.98 166.353C444.498 166.509 444.868 166.774 445.091 167.15C445.314 167.526 445.353 167.955 445.209 168.435C445.065 168.916 444.792 169.264 444.391 169.48C443.994 169.683 443.537 169.707 443.02 169.551L439.6 168.524ZM437.734 174.735L438.939 170.724L442.488 171.79C443.141 171.986 443.603 172.327 443.874 172.811C444.161 173.287 444.212 173.833 444.027 174.449C443.846 175.053 443.502 175.481 442.997 175.732C442.507 175.975 441.936 175.998 441.283 175.802L437.734 174.735ZM450.801 181.079L459.212 183.606L459.879 181.388L453.981 179.616L457.452 168.062L454.938 167.307L450.801 181.079ZM470.661 187.288C471.684 187.595 472.687 187.701 473.669 187.607C474.652 187.512 475.566 187.243 476.412 186.798C477.257 186.353 477.988 185.753 478.605 184.998C479.238 184.234 479.706 183.347 480.009 182.336C480.317 181.313 480.415 180.315 480.304 179.341C480.206 178.371 479.925 177.474 479.46 176.649C479 175.812 478.386 175.083 477.618 174.463C476.85 173.843 475.955 173.379 474.932 173.071C473.909 172.764 472.906 172.658 471.924 172.752C470.942 172.847 470.028 173.116 469.182 173.561C468.352 173.997 467.623 174.591 466.994 175.343C466.378 176.098 465.916 176.987 465.608 178.01C465.305 179.021 465.2 180.017 465.295 180.999C465.405 181.973 465.691 182.879 466.152 183.716C466.612 184.553 467.226 185.281 467.994 185.902C468.762 186.522 469.651 186.984 470.661 187.288ZM471.35 184.995C470.463 184.729 469.725 184.278 469.136 183.645C468.559 183.015 468.177 182.275 467.988 181.426C467.8 180.576 467.845 179.69 468.122 178.765C468.4 177.841 468.85 177.082 469.471 176.49C470.096 175.885 470.823 175.478 471.651 175.27C472.492 175.066 473.356 175.097 474.243 175.364C475.143 175.634 475.881 176.084 476.458 176.714C477.034 177.344 477.417 178.084 477.605 178.933C477.797 179.77 477.754 180.651 477.477 181.575C477.199 182.5 476.748 183.264 476.122 183.869C475.497 184.474 474.771 184.881 473.942 185.089C473.114 185.297 472.25 185.265 471.35 184.995ZM490.043 193.11C491.029 193.406 491.96 193.504 492.837 193.405C493.725 193.309 494.522 193.072 495.228 192.692C495.936 192.3 496.506 191.813 496.936 191.23L494.998 189.499C494.519 190.108 493.903 190.548 493.15 190.818C492.413 191.081 491.607 191.08 490.732 190.818C489.869 190.558 489.172 190.127 488.641 189.524C488.11 188.922 487.767 188.207 487.612 187.381C487.461 186.543 487.53 185.643 487.819 184.682C488.107 183.721 488.544 182.938 489.128 182.334C489.717 181.718 490.396 181.311 491.168 181.113C491.943 180.903 492.763 180.927 493.625 181.186C494.5 181.449 495.171 181.899 495.638 182.537C496.121 183.165 496.394 183.866 496.458 184.637L499.03 184.261C498.992 183.537 498.784 182.823 498.404 182.118C498.028 181.4 497.496 180.757 496.807 180.187C496.131 179.621 495.3 179.19 494.314 178.894C493.328 178.598 492.362 178.502 491.417 178.608C490.475 178.701 489.6 178.976 488.791 179.432C487.986 179.875 487.28 180.482 486.672 181.254C486.067 182.013 485.612 182.904 485.304 183.927C484.997 184.95 484.885 185.95 484.967 186.929C485.053 187.896 485.307 188.792 485.731 189.618C486.155 190.444 486.732 191.161 487.463 191.77C488.197 192.367 489.057 192.814 490.043 193.11ZM501.422 196.286L503.936 197.042L505.097 193.178L507.606 191.533L509.482 198.708L512.44 199.596L509.942 189.998L516.411 185.774L513.25 184.824L506.235 189.388L508.073 183.269L505.559 182.514L501.422 196.286ZM522.105 202.742C523.054 203.027 523.938 203.104 524.757 202.974C525.575 202.843 526.278 202.537 526.867 202.056C527.455 201.574 527.867 200.939 528.104 200.15C528.656 198.314 527.94 196.715 525.958 195.353L523.664 193.797C523.219 193.489 522.91 193.154 522.736 192.793C522.578 192.423 522.557 192.047 522.672 191.665C522.823 191.16 523.137 190.811 523.611 190.617C524.102 190.415 524.668 190.411 525.308 190.603C526.023 190.818 526.594 191.198 527.022 191.743C527.453 192.275 527.701 192.927 527.764 193.699L530.113 193.397C530.054 192.25 529.657 191.224 528.921 190.318C528.198 189.415 527.214 188.777 525.969 188.403C525.07 188.133 524.217 188.065 523.411 188.199C522.62 188.324 521.938 188.63 521.362 189.115C520.798 189.604 520.398 190.243 520.161 191.032C519.891 191.932 519.927 192.796 520.269 193.624C520.615 194.44 521.273 195.182 522.241 195.849L524.629 197.494C525.062 197.798 525.356 198.115 525.513 198.444C525.681 198.777 525.705 199.147 525.582 199.554C525.431 200.059 525.105 200.404 524.606 200.59C524.119 200.78 523.549 200.777 522.896 200.581C522.107 200.344 521.465 199.909 520.97 199.276C520.478 198.632 520.184 197.865 520.089 196.976L517.728 197.254C517.744 198.093 517.931 198.881 518.287 199.619C518.659 200.349 519.166 200.985 519.81 201.528C520.465 202.074 521.23 202.479 522.105 202.742Z" fill="#18181B"/>
<defs>
<filter id="filter0_f_19_656" x="206.984" y="237.719" width="555.717" height="428.297" filterUnits="userSpaceOnUse" color-interpolation-filters="sRGB">
<feFlood flood-opacity="0" result="BackgroundImageFix"/>
<feBlend mode="normal" in="SourceGraphic" in2="BackgroundImageFix" result="shape"/>
<feGaussianBlur stdDeviation="39.3022" result="effect1_foregroundBlur_19_656"/>
</filter>
<filter id="filter1_f_19_656" x="-156.73" y="-65.857" width="884.889" height="884.889" filterUnits="userSpaceOnUse" color-interpolation-filters="sRGB">
<feFlood flood-opacity="0" result="BackgroundImageFix"/>
<feBlend mode="normal" in="SourceGraphic" in2="BackgroundImageFix" result="shape"/>
<feGaussianBlur stdDeviation="170.684" result="effect1_foregroundBlur_19_656"/>
</filter>
<filter id="filter2_f_19_656" x="248.211" y="84.0516" width="884.889" height="884.889" filterUnits="userSpaceOnUse" color-interpolation-filters="sRGB">
<feFlood flood-opacity="0" result="BackgroundImageFix"/>
<feBlend mode="normal" in="SourceGraphic" in2="BackgroundImageFix" result="shape"/>
<feGaussianBlur stdDeviation="170.684" result="effect1_foregroundBlur_19_656"/>
</filter>
<filter id="filter3_f_19_656" x="23.6483" y="0.525497" width="589.293" height="477.526" filterUnits="userSpaceOnUse" color-interpolation-filters="sRGB">
<feFlood flood-opacity="0" result="BackgroundImageFix"/>
<feBlend mode="normal" in="SourceGraphic" in2="BackgroundImageFix" result="shape"/>
<feGaussianBlur stdDeviation="42.2244" result="effect1_foregroundBlur_19_656"/>
</filter>
<filter id="filter4_d_19_656" x="0.473534" y="23.6786" width="636.793" height="529.287" filterUnits="userSpaceOnUse" color-interpolation-filters="sRGB">
<feFlood flood-opacity="0" result="BackgroundImageFix"/>
<feColorMatrix in="SourceAlpha" type="matrix" values="0 0 0 0 0 0 0 0 0 0 0 0 0 0 0 0 0 0 127 0" result="hardAlpha"/>
<feOffset dy="51.2051"/>
<feGaussianBlur stdDeviation="36.9815"/>
<feComposite in2="hardAlpha" operator="out"/>
<feColorMatrix type="matrix" values="0 0 0 0 0.1375 0 0 0 0 0.155242 0 0 0 0 0.4125 0 0 0 0.08 0"/>
<feBlend mode="normal" in2="BackgroundImageFix" result="effect1_dropShadow_19_656"/>
<feBlend mode="normal" in="SourceGraphic" in2="effect1_dropShadow_19_656" result="shape"/>
</filter>
<filter id="filter5_f_19_656" x="-319.53" y="-399.958" width="950.71" height="950.71" filterUnits="userSpaceOnUse" color-interpolation-filters="sRGB">
<feFlood flood-opacity="0" result="BackgroundImageFix"/>
<feBlend mode="normal" in="SourceGraphic" in2="BackgroundImageFix" result="shape"/>
<feGaussianBlur stdDeviation="183.375" result="effect1_foregroundBlur_19_656"/>
</filter>
<filter id="filter6_f_19_656" x="3.78091" y="-67.2751" width="950.71" height="950.71" filterUnits="userSpaceOnUse" color-interpolation-filters="sRGB">
<feFlood flood-opacity="0" result="BackgroundImageFix"/>
<feBlend mode="normal" in="SourceGraphic" in2="BackgroundImageFix" result="shape"/>
<feGaussianBlur stdDeviation="183.375" result="effect1_foregroundBlur_19_656"/>
</filter>
<linearGradient id="paint0_linear_19_656" x1="682.074" y1="637.716" x2="1050.95" y2="637.716" gradientUnits="userSpaceOnUse">
<stop stop-color="#4484FF"/>
<stop offset="0.234375" stop-color="#44B0FF"/>
<stop offset="0.489583" stop-color="#FF44EC"/>
<stop offset="0.739583" stop-color="#44A5FF"/>
<stop offset="1" stop-color="#F2FF5E"/>
</linearGradient>
<linearGradient id="paint1_linear_19_656" x1="543.8" y1="608.222" x2="252.963" y2="331.983" gradientUnits="userSpaceOnUse">
<stop offset="0.507336"/>
<stop offset="1" stop-opacity="0"/>
</linearGradient>
<linearGradient id="paint2_linear_19_656" x1="339.65" y1="435.176" x2="350.684" y2="506.588" gradientUnits="userSpaceOnUse">
<stop stop-color="#F3EC58"/>
<stop offset="0.4" stop-color="#F6CA45"/>
<stop offset="0.77" stop-color="#F9B036"/>
<stop offset="1" stop-color="#FAA631"/>
</linearGradient>
<linearGradient id="paint3_linear_19_656" x1="166.246" y1="189.613" x2="541.921" y2="189.613" gradientUnits="userSpaceOnUse">
<stop stop-color="#44BCFF"/>
<stop offset="0.234375" stop-color="#44B0FF"/>
<stop offset="0.489583" stop-color="#FF44EC"/>
<stop offset="0.739583" stop-color="#FF44EC"/>
<stop offset="1" stop-color="#FF675E"/>
</linearGradient>
<linearGradient id="paint4_linear_19_656" x1="446.864" y1="318.268" x2="134.403" y2="21.491" gradientUnits="userSpaceOnUse">
<stop offset="0.507336" stop-color="white"/>
<stop offset="1" stop-color="white" stop-opacity="0"/>
</linearGradient>
<linearGradient id="paint5_linear_19_656" x1="181.023" y1="157.158" x2="158.687" y2="231.508" gradientUnits="userSpaceOnUse">
<stop stop-color="#F3EC58"/>
<stop offset="0.4" stop-color="#F6CA45"/>
<stop offset="0.77" stop-color="#F9B036"/>
<stop offset="1" stop-color="#FAA631"/>
</linearGradient>
</defs>
</svg>
