<svg width="763" height="667" viewBox="0 0 763 667" fill="none" xmlns="http://www.w3.org/2000/svg">
<g filter="url(#filter0_f_19_656)">
<rect x="684.096" y="529.7" width="369.285" height="216.031" transform="rotate(171.009 684.096 529.7)" fill="url(#paint0_linear_19_656)"/>
</g>
<rect x="267" y="351.073" width="406.497" height="257.149" rx="16.8438" transform="rotate(-8.78356 267 351.073)" fill="#18181B"/>
<mask id="mask0_19_656" style="mask-type:alpha" maskUnits="userSpaceOnUse" x="269" y="291" width="437" height="312">
<rect x="267" y="351.073" width="406.497" height="257.149" rx="16.8438" transform="rotate(-8.78356 267 351.073)" fill="white"/>
</mask>
<g mask="url(#mask0_19_656)">
<g opacity="0.18">
<line x1="261.821" y1="344.618" x2="619.848" y2="558.588" stroke="white" stroke-width="1.12292"/>
<line x1="256.615" y1="347.695" x2="614.643" y2="561.665" stroke="white" stroke-width="1.12292"/>
<line x1="251.41" y1="350.772" x2="609.438" y2="564.742" stroke="white" stroke-width="1.12292"/>
<line x1="246.203" y1="353.849" x2="604.231" y2="567.819" stroke="white" stroke-width="1.12292"/>
<line x1="240.998" y1="356.926" x2="599.025" y2="570.896" stroke="white" stroke-width="1.12292"/>
<line x1="235.791" y1="360.003" x2="593.819" y2="573.972" stroke="white" stroke-width="1.12292"/>
<line x1="230.586" y1="363.08" x2="588.614" y2="577.049" stroke="white" stroke-width="1.12292"/>
<line x1="225.381" y1="366.156" x2="583.409" y2="580.126" stroke="white" stroke-width="1.12292"/>
<line x1="220.174" y1="369.233" x2="578.202" y2="583.203" stroke="white" stroke-width="1.12292"/>
<line x1="214.969" y1="372.31" x2="572.996" y2="586.28" stroke="white" stroke-width="1.12292"/>
<line x1="209.763" y1="375.387" x2="567.79" y2="589.357" stroke="white" stroke-width="1.12292"/>
<line x1="204.558" y1="378.464" x2="562.585" y2="592.434" stroke="white" stroke-width="1.12292"/>
<line x1="199.351" y1="381.541" x2="557.378" y2="595.51" stroke="white" stroke-width="1.12292"/>
<line x1="194.145" y1="384.618" x2="552.173" y2="598.587" stroke="white" stroke-width="1.12292"/>
<line x1="188.94" y1="387.694" x2="546.967" y2="601.664" stroke="white" stroke-width="1.12292"/>
<line x1="183.734" y1="390.771" x2="541.761" y2="604.741" stroke="white" stroke-width="1.12292"/>
<line x1="178.529" y1="393.848" x2="536.556" y2="607.818" stroke="white" stroke-width="1.12292"/>
<line x1="173.322" y1="396.925" x2="531.349" y2="610.895" stroke="white" stroke-width="1.12292"/>
<line x1="168.116" y1="400.002" x2="526.144" y2="613.972" stroke="white" stroke-width="1.12292"/>
<line x1="162.911" y1="403.079" x2="520.939" y2="617.048" stroke="white" stroke-width="1.12292"/>
<line x1="157.705" y1="406.156" x2="515.732" y2="620.125" stroke="white" stroke-width="1.12292"/>
<line x1="152.499" y1="409.233" x2="510.526" y2="623.202" stroke="white" stroke-width="1.12292"/>
<line x1="147.292" y1="412.309" x2="505.32" y2="626.279" stroke="white" stroke-width="1.12292"/>
<line x1="142.087" y1="415.386" x2="500.115" y2="629.356" stroke="white" stroke-width="1.12292"/>
<line x1="136.882" y1="418.463" x2="494.91" y2="632.433" stroke="white" stroke-width="1.12292"/>
<line x1="131.676" y1="421.54" x2="489.704" y2="635.51" stroke="white" stroke-width="1.12292"/>
<line x1="126.47" y1="424.617" x2="484.497" y2="638.586" stroke="white" stroke-width="1.12292"/>
<line x1="121.264" y1="427.694" x2="479.291" y2="641.663" stroke="white" stroke-width="1.12292"/>
<line x1="116.059" y1="430.77" x2="474.086" y2="644.74" stroke="white" stroke-width="1.12292"/>
<line x1="110.853" y1="433.847" x2="468.881" y2="647.817" stroke="white" stroke-width="1.12292"/>
<line x1="105.646" y1="436.924" x2="463.674" y2="650.894" stroke="white" stroke-width="1.12292"/>
<line x1="268.308" y1="342.48" x2="626.336" y2="556.45" stroke="white" stroke-width="1.12292"/>
<line x1="274.795" y1="340.341" x2="632.822" y2="554.311" stroke="white" stroke-width="1.12292"/>
<line x1="281.283" y1="338.203" x2="639.31" y2="552.172" stroke="white" stroke-width="1.12292"/>
<line x1="287.768" y1="336.064" x2="645.795" y2="550.034" stroke="white" stroke-width="1.12292"/>
<line x1="294.256" y1="333.926" x2="652.283" y2="547.895" stroke="white" stroke-width="1.12292"/>
<line x1="300.744" y1="331.787" x2="658.771" y2="545.757" stroke="white" stroke-width="1.12292"/>
<line x1="307.23" y1="329.648" x2="665.257" y2="543.618" stroke="white" stroke-width="1.12292"/>
<line x1="313.718" y1="327.51" x2="671.745" y2="541.479" stroke="white" stroke-width="1.12292"/>
<line x1="320.205" y1="325.371" x2="678.232" y2="539.341" stroke="white" stroke-width="1.12292"/>
<line x1="326.691" y1="323.233" x2="684.718" y2="537.202" stroke="white" stroke-width="1.12292"/>
<line x1="333.178" y1="321.094" x2="691.205" y2="535.064" stroke="white" stroke-width="1.12292"/>
<line x1="339.665" y1="318.955" x2="697.693" y2="532.925" stroke="white" stroke-width="1.12292"/>
<line x1="346.153" y1="316.817" x2="704.18" y2="530.786" stroke="white" stroke-width="1.12292"/>
<line x1="352.64" y1="314.678" x2="710.667" y2="528.648" stroke="white" stroke-width="1.12292"/>
<line x1="359.126" y1="312.54" x2="717.154" y2="526.509" stroke="white" stroke-width="1.12292"/>
<line x1="365.613" y1="310.401" x2="723.641" y2="524.371" stroke="white" stroke-width="1.12292"/>
<line x1="372.101" y1="308.262" x2="730.128" y2="522.232" stroke="white" stroke-width="1.12292"/>
<line x1="378.587" y1="306.124" x2="736.615" y2="520.094" stroke="white" stroke-width="1.12292"/>
<line x1="385.075" y1="303.985" x2="743.102" y2="517.955" stroke="white" stroke-width="1.12292"/>
<line x1="391.561" y1="301.847" x2="749.589" y2="515.816" stroke="white" stroke-width="1.12292"/>
<line x1="398.048" y1="299.708" x2="756.076" y2="513.678" stroke="white" stroke-width="1.12292"/>
<line x1="404.536" y1="297.57" x2="762.564" y2="511.539" stroke="white" stroke-width="1.12292"/>
<line x1="411.022" y1="295.431" x2="769.05" y2="509.401" stroke="white" stroke-width="1.12292"/>
</g>
<rect x="267" y="351.073" width="406.497" height="257.149" rx="16.8438" transform="rotate(-8.78356 267 351.073)" fill="url(#paint1_linear_19_656)"/>
<g filter="url(#filter1_f_19_656)">
<circle cx="285.714" cy="376.588" r="101.063" transform="rotate(-8.78356 285.714 376.588)" fill="#B4C9FF"/>
</g>
<g filter="url(#filter2_f_19_656)">
<circle cx="690.655" cy="526.496" r="101.063" transform="rotate(-8.78356 690.655 526.496)" fill="white"/>
</g>
</g>
<path d="M376.636 472.337L371.961 442.081C371.359 438.183 366.94 435.62 362.108 436.367L318.596 443.09C313.763 443.837 310.323 447.615 310.925 451.512L315.6 481.768C316.202 485.666 320.623 488.226 325.455 487.48L368.967 480.757C373.799 480.009 377.238 476.234 376.636 472.337ZM325.367 486.913C320.922 487.6 316.856 485.243 316.303 481.66L311.628 451.403C311.074 447.818 314.239 444.344 318.684 443.657L362.196 436.934C366.639 436.247 370.705 438.604 371.258 442.189L375.933 472.446C376.487 476.029 373.322 479.503 368.88 480.19L325.367 486.913Z" fill="#3F3F46"/>
<path d="M368.881 480.191L325.37 486.914C323.233 487.244 321.078 486.876 319.379 485.891C317.679 484.907 316.574 483.386 316.306 481.663L311.63 451.404C311.076 447.819 314.241 444.345 318.686 443.658L362.198 436.935C366.64 436.248 370.706 438.606 371.26 442.19L375.936 472.449C376.489 476.03 373.324 479.504 368.881 480.191Z" fill="url(#paint2_linear_19_656)"/>
<path d="M314.923 476.609L314.835 476.042L334.872 472.946C336.2 472.74 337.407 472.117 338.229 471.215C339.051 470.313 339.421 469.204 339.257 468.133L337.594 457.37C337.427 456.299 336.74 455.354 335.684 454.742C334.628 454.13 333.289 453.901 331.961 454.105L311.924 457.201L311.836 456.633L331.873 453.537C333.388 453.305 334.915 453.566 336.119 454.265C337.323 454.963 338.106 456.041 338.296 457.261L339.959 468.025C340.146 469.246 339.725 470.51 338.788 471.539C337.851 472.568 336.474 473.278 334.96 473.513L314.923 476.609Z" fill="#383335"/>
<path d="M351.593 466.227L349.93 455.464C349.743 454.242 350.164 452.979 351.102 451.949C352.039 450.92 353.416 450.21 354.93 449.975L372.726 447.225L372.813 447.793L355.018 450.542C353.69 450.749 352.482 451.371 351.66 452.273C350.838 453.176 350.469 454.284 350.633 455.355L352.296 466.119C352.463 467.189 353.15 468.134 354.206 468.747C355.262 469.359 356.601 469.588 357.929 469.384L375.725 466.634L375.812 467.201L358.016 469.951C356.502 470.183 354.975 469.922 353.771 469.224C352.567 468.526 351.783 467.448 351.593 466.227Z" fill="#383335"/>
<path d="M350.403 456.195L350.315 455.628L337.979 457.534L338.067 458.101L350.403 456.195Z" fill="#383335"/>
<path d="M351.911 465.954L351.823 465.387L339.487 467.293L339.575 467.86L351.911 465.954Z" fill="#383335"/>
<path d="M332.605 486.086L330.719 473.878L330.016 473.987L331.902 486.194L332.605 486.086Z" fill="#383335"/>
<path d="M327.719 454.47L325.833 442.262L325.13 442.371L327.017 454.578L327.719 454.47Z" fill="#383335"/>
<path d="M363.738 481.275L361.852 469.068L361.149 469.177L363.036 481.384L363.738 481.275Z" fill="#383335"/>
<path d="M358.853 449.659L356.967 437.452L356.264 437.56L358.15 449.768L358.853 449.659Z" fill="#383335"/>
<path d="M374 457.6L373.912 457.033L351.076 460.561L351.164 461.128L374 457.6Z" fill="#383335"/>
<path d="M338.605 463.069L338.517 462.502L313.338 466.392L313.426 466.959L338.605 463.069Z" fill="#383335"/>
<path d="M622.494 526.474L614.345 527.733L614.601 495.643L622.752 494.384L622.494 526.474ZM602.652 497.489L598.209 520.22L596.573 515.726L596.574 515.728L591.657 502.074C591.657 502.074 590.89 499.307 587.355 499.853L574.511 501.838L574.442 502.391C574.442 502.391 578.496 502.601 583.52 504.652L594.802 530.753L603.294 529.441L611.423 496.134L602.652 497.489ZM671.591 518.888L679.074 517.731L667.713 487.436L661.161 488.448C658.136 488.915 657.76 491.362 657.76 491.362L650.081 522.211L658.577 520.898L659.557 515.986L669.918 514.385L671.591 518.888ZM660.912 509.2L663.384 496.824L667.603 508.166L660.912 509.2ZM647.045 498.337L647.169 491.435C647.169 491.435 643.37 490.625 639.628 491.203C635.584 491.828 626.253 495.08 627.581 503.675C628.831 511.762 640.118 510.121 640.775 514.369C641.431 518.616 631.203 519.418 627.452 517.254L627.326 524.47C627.326 524.47 631.238 525.676 636.798 524.817C642.36 523.957 650.305 519.781 649.094 511.944C647.837 503.805 636.346 504.804 635.799 501.266C635.253 497.726 643.261 496.955 647.045 498.337Z" fill="white"/>
<path d="M596.575 515.727L591.657 502.073C591.657 502.073 590.89 499.306 587.356 499.852L574.511 501.837L574.442 502.39C574.442 502.39 580.814 502.716 587.476 506.594C593.846 510.301 596.575 515.727 596.575 515.727Z" fill="#E6A540"/>
<path d="M326.893 549.022L325.488 539.928L331.53 538.994L331.757 540.459L327.374 541.136L327.735 543.468L331.873 542.828L332.099 544.293L327.961 544.933L328.327 547.301L332.709 546.624L332.936 548.089L326.893 549.022ZM338.533 547.374C337.955 547.463 337.401 547.44 336.872 547.305C336.351 547.169 335.883 546.942 335.467 546.623C335.058 546.294 334.733 545.89 334.492 545.411L335.779 544.6C336.079 545.086 336.46 545.448 336.922 545.685C337.382 545.914 337.873 545.988 338.394 545.908C338.687 545.863 338.932 545.779 339.13 545.657C339.334 545.525 339.481 545.369 339.57 545.189C339.667 545.007 339.698 544.802 339.662 544.574C339.621 544.306 339.506 544.099 339.316 543.953C339.134 543.798 338.877 543.696 338.544 543.647L336.712 543.356C335.97 543.245 335.386 542.998 334.96 542.614C334.534 542.23 334.275 541.741 334.183 541.147C334.103 540.626 334.158 540.146 334.349 539.709C334.547 539.27 334.858 538.905 335.279 538.615C335.708 538.315 336.219 538.12 336.814 538.028C337.359 537.944 337.874 537.964 338.36 538.089C338.845 538.206 339.276 538.41 339.655 538.701C340.04 538.983 340.349 539.34 340.582 539.77L339.309 540.592C339.06 540.164 338.737 539.855 338.342 539.667C337.945 539.47 337.51 539.408 337.038 539.481C336.761 539.523 336.525 539.61 336.328 539.74C336.13 539.862 335.984 540.018 335.888 540.208C335.799 540.389 335.772 540.593 335.808 540.821C335.847 541.073 335.963 541.284 336.156 541.454C336.347 541.616 336.618 541.724 336.968 541.779L338.722 542.045C339.482 542.169 340.074 542.411 340.496 542.771C340.926 543.129 341.189 543.614 341.283 544.224C341.364 544.745 341.3 545.225 341.093 545.666C340.886 546.106 340.565 546.477 340.128 546.777C339.691 547.078 339.159 547.277 338.533 547.374ZM345.888 546.087L344.709 538.458L342.353 538.822L342.126 537.357L348.474 536.376L348.701 537.841L346.381 538.199L347.56 545.829L345.888 546.087ZM352.002 545.143L350.597 536.048L352.257 535.792L352.87 539.759L356.74 539.161L356.127 535.194L357.799 534.935L359.205 544.03L357.532 544.288L356.966 540.626L353.097 541.224L353.662 544.886L352.002 545.143ZM362.065 543.588L360.66 534.493L366.702 533.56L366.929 535.025L362.546 535.702L362.906 538.033L367.045 537.394L367.271 538.859L363.133 539.498L363.499 541.866L367.881 541.189L368.107 542.654L362.065 543.588ZM370.435 542.294L369.029 533.2L372.411 532.678C373.029 532.582 373.592 532.612 374.099 532.767C374.613 532.912 375.038 533.18 375.373 533.57C375.707 533.951 375.921 534.447 376.016 535.058C376.112 535.684 376.044 536.241 375.811 536.727C375.586 537.211 375.238 537.599 374.766 537.888L377.417 541.216L375.537 541.506L372.686 537.859L373.859 538.328L371.576 538.681L372.095 542.038L370.435 542.294ZM371.35 537.216L373.095 536.946C373.396 536.9 373.648 536.803 373.85 536.655C374.051 536.499 374.196 536.305 374.286 536.075C374.375 535.845 374.398 535.591 374.355 535.314C374.311 535.029 374.213 534.795 374.059 534.61C373.904 534.417 373.708 534.281 373.471 534.201C373.232 534.113 372.963 534.092 372.661 534.139L370.916 534.408L371.35 537.216ZM387.397 539.824C386.73 539.927 386.089 539.905 385.475 539.758C384.86 539.611 384.305 539.36 383.808 539.003C383.311 538.647 382.897 538.202 382.565 537.67C382.239 537.129 382.025 536.525 381.922 535.857C381.818 535.182 381.84 534.541 381.988 533.935C382.136 533.329 382.393 532.781 382.758 532.291C383.124 531.801 383.579 531.398 384.121 531.081C384.663 530.755 385.271 530.541 385.946 530.436C386.622 530.332 387.267 530.353 387.881 530.5C388.495 530.646 389.051 530.898 389.548 531.255C390.043 531.603 390.453 532.044 390.777 532.577C391.109 533.109 391.327 533.713 391.432 534.388C391.535 535.055 391.509 535.697 391.354 536.312C391.198 536.92 390.937 537.468 390.571 537.958C390.205 538.448 389.751 538.856 389.21 539.181C388.677 539.505 388.072 539.719 387.397 539.824ZM387.163 538.31C387.611 538.241 388.01 538.1 388.36 537.887C388.709 537.667 389 537.393 389.233 537.065C389.474 536.736 389.637 536.365 389.723 535.952C389.818 535.537 389.83 535.102 389.759 534.647C389.689 534.191 389.547 533.784 389.333 533.425C389.126 533.057 388.858 532.753 388.529 532.512C388.208 532.262 387.847 532.088 387.449 531.991C387.051 531.895 386.628 531.881 386.18 531.95C385.741 532.018 385.346 532.158 384.995 532.37C384.645 532.583 384.35 532.858 384.11 533.195C383.878 533.522 383.714 533.893 383.62 534.308C383.524 534.714 383.512 535.145 383.582 535.601C383.653 536.057 383.795 536.468 384.01 536.835C384.225 537.201 384.493 537.506 384.814 537.748C385.143 537.989 385.507 538.162 385.907 538.267C386.305 538.363 386.724 538.378 387.163 538.31ZM394.721 538.542L393.316 529.447L394.976 529.191L395.708 533.927L395.232 533.838L398.394 528.663L400.482 528.34L397.52 533.197L397.437 532.01L401.997 537.418L400.043 537.719L396.983 534.093L395.987 535.734L396.381 538.285L394.721 538.542ZM404.116 537.09L402.711 527.996L408.753 527.062L408.98 528.527L404.597 529.204L404.958 531.536L409.096 530.896L409.322 532.361L405.184 533.001L405.55 535.369L409.932 534.692L410.159 536.157L404.116 537.09ZM416.989 535.251C416.321 535.354 415.68 535.333 415.066 535.186C414.452 535.039 413.896 534.787 413.4 534.431C412.903 534.074 412.488 533.63 412.156 533.098C411.831 532.557 411.617 531.952 411.514 531.285C411.409 530.61 411.431 529.969 411.579 529.363C411.727 528.757 411.984 528.209 412.35 527.719C412.716 527.229 413.17 526.825 413.713 526.508C414.254 526.183 414.863 525.968 415.538 525.864C416.213 525.759 416.858 525.781 417.473 525.927C418.087 526.074 418.642 526.326 419.139 526.682C419.635 527.031 420.044 527.471 420.368 528.005C420.701 528.537 420.919 529.14 421.023 529.816C421.126 530.483 421.1 531.125 420.946 531.74C420.789 532.347 420.528 532.896 420.162 533.386C419.796 533.876 419.343 534.283 418.802 534.609C418.268 534.933 417.664 535.147 416.989 535.251ZM416.755 533.738C417.202 533.668 417.601 533.528 417.952 533.315C418.301 533.094 418.592 532.82 418.825 532.493C419.065 532.164 419.229 531.793 419.315 531.38C419.409 530.965 419.421 530.53 419.351 530.074C419.28 529.618 419.138 529.211 418.925 528.853C418.718 528.485 418.45 528.18 418.121 527.939C417.799 527.689 417.439 527.516 417.041 527.419C416.642 527.322 416.22 527.308 415.772 527.378C415.332 527.445 414.937 527.586 414.587 527.798C414.237 528.011 413.942 528.285 413.702 528.622C413.469 528.95 413.306 529.321 413.212 529.735C413.116 530.142 413.103 530.573 413.174 531.029C413.244 531.484 413.387 531.896 413.602 532.262C413.817 532.629 414.085 532.933 414.406 533.176C414.734 533.416 415.099 533.589 415.498 533.694C415.896 533.791 416.315 533.805 416.755 533.738ZM425.771 533.744L421.924 525.027L423.707 524.752L426.821 532.207L426.357 532.279L427.161 524.218L428.883 523.952L432.07 531.396L431.606 531.468L432.325 523.42L434.107 523.145L433.071 532.616L431.167 532.911L427.987 525.678L428.524 525.595L427.675 533.45L425.771 533.744ZM441.894 531.403C441.227 531.506 440.586 531.484 439.972 531.338C439.357 531.191 438.802 530.939 438.305 530.583C437.808 530.226 437.394 529.782 437.062 529.25C436.736 528.709 436.522 528.104 436.419 527.437C436.315 526.761 436.337 526.121 436.485 525.514C436.633 524.908 436.889 524.36 437.255 523.871C437.621 523.381 438.076 522.977 438.618 522.66C439.16 522.335 439.768 522.12 440.443 522.016C441.119 521.911 441.764 521.932 442.378 522.079C442.992 522.226 443.548 522.477 444.045 522.834C444.54 523.182 444.95 523.623 445.274 524.156C445.606 524.688 445.824 525.292 445.929 525.968C446.032 526.635 446.006 527.276 445.851 527.892C445.695 528.499 445.434 529.048 445.068 529.538C444.702 530.028 444.248 530.435 443.707 530.76C443.174 531.084 442.569 531.299 441.894 531.403ZM441.66 529.889C442.108 529.82 442.507 529.679 442.857 529.467C443.206 529.246 443.497 528.972 443.73 528.645C443.971 528.316 444.134 527.945 444.22 527.531C444.315 527.117 444.327 526.682 444.256 526.226C444.186 525.77 444.044 525.363 443.83 525.004C443.623 524.636 443.355 524.332 443.026 524.091C442.704 523.841 442.344 523.668 441.946 523.571C441.548 523.474 441.125 523.46 440.677 523.529C440.238 523.597 439.843 523.737 439.492 523.95C439.142 524.162 438.847 524.437 438.607 524.774C438.375 525.102 438.211 525.473 438.117 525.887C438.021 526.294 438.009 526.725 438.079 527.18C438.15 527.636 438.292 528.047 438.507 528.414C438.722 528.781 438.99 529.085 439.311 529.327C439.64 529.568 440.004 529.741 440.403 529.846C440.802 529.943 441.221 529.957 441.66 529.889Z" fill="white"/>
<path opacity="0.5" d="M334.617 570.704C335.268 570.603 335.833 570.403 336.312 570.104C336.799 569.804 337.193 569.447 337.496 569.034C337.798 568.612 337.992 568.174 338.08 567.719L336.484 567.253C336.375 567.736 336.14 568.16 335.78 568.524C335.427 568.879 334.961 569.101 334.383 569.19C333.813 569.278 333.292 569.221 332.819 569.019C332.347 568.817 331.952 568.499 331.635 568.065C331.316 567.622 331.108 567.084 331.01 566.449C330.912 565.814 330.948 565.242 331.12 564.732C331.29 564.214 331.57 563.792 331.961 563.465C332.351 563.13 332.831 562.918 333.4 562.83C333.978 562.741 334.49 562.816 334.935 563.055C335.387 563.285 335.738 563.614 335.987 564.043L337.369 563.117C337.148 562.709 336.831 562.354 336.417 562.051C336.003 561.74 335.518 561.515 334.963 561.376C334.416 561.236 333.818 561.216 333.166 561.316C332.515 561.417 331.931 561.628 331.415 561.949C330.896 562.263 330.466 562.663 330.125 563.149C329.782 563.627 329.541 564.172 329.403 564.785C329.263 565.39 329.245 566.03 329.35 566.706C329.454 567.381 329.665 567.99 329.982 568.533C330.298 569.067 330.692 569.514 331.164 569.875C331.637 570.235 332.168 570.491 332.757 570.641C333.346 570.783 333.966 570.804 334.617 570.704ZM345.388 569.039C346.063 568.935 346.672 568.72 347.213 568.395C347.754 568.07 348.208 567.662 348.574 567.172C348.94 566.682 349.197 566.134 349.345 565.528C349.5 564.913 349.525 564.271 349.422 563.604C349.318 562.929 349.1 562.325 348.768 561.793C348.444 561.26 348.034 560.819 347.538 560.47C347.042 560.114 346.486 559.862 345.872 559.716C345.258 559.569 344.613 559.548 343.937 559.652C343.262 559.756 342.653 559.971 342.112 560.297C341.571 560.622 341.117 561.029 340.751 561.519C340.392 562 340.134 562.544 339.978 563.151C339.83 563.757 339.809 564.398 339.913 565.073C340.016 565.741 340.23 566.345 340.556 566.886C340.888 567.418 341.302 567.863 341.799 568.219C342.296 568.576 342.851 568.827 343.465 568.974C344.08 569.121 344.72 569.143 345.388 569.039ZM345.154 567.526C344.568 567.616 344.018 567.56 343.503 567.356C342.996 567.151 342.571 566.829 342.229 566.39C341.886 565.952 341.667 565.427 341.573 564.817C341.479 564.206 341.529 563.645 341.725 563.131C341.919 562.609 342.227 562.174 342.648 561.826C343.078 561.476 343.585 561.256 344.171 561.166C344.765 561.074 345.316 561.131 345.822 561.336C346.329 561.541 346.754 561.862 347.096 562.301C347.438 562.732 347.656 563.252 347.75 563.862C347.844 564.473 347.794 565.039 347.6 565.56C347.406 566.082 347.098 566.517 346.677 566.865C346.256 567.214 345.748 567.434 345.154 567.526ZM352.712 567.758L355.678 567.299C356.639 567.151 357.443 566.827 358.09 566.327C358.746 565.825 359.216 565.203 359.501 564.459C359.786 563.715 359.86 562.899 359.723 562.012C359.585 561.117 359.268 560.362 358.773 559.747C358.277 559.124 357.645 558.675 356.878 558.402C356.11 558.121 355.241 558.055 354.273 558.205L351.307 558.663L352.712 567.758ZM354.146 566.036L353.193 559.872L354.536 559.664C355.154 559.569 355.707 559.612 356.194 559.796C356.688 559.977 357.098 560.281 357.422 560.706C357.744 561.122 357.954 561.644 358.051 562.271C358.148 562.897 358.106 563.462 357.925 563.965C357.753 564.467 357.458 564.879 357.041 565.201C356.625 565.524 356.107 565.733 355.489 565.829L354.146 566.036ZM362.858 566.19L368.9 565.256L368.674 563.792L364.292 564.469L363.926 562.1L368.064 561.461L367.838 559.996L363.699 560.636L363.339 558.304L367.722 557.627L367.495 556.162L361.453 557.096L362.858 566.19ZM374.497 564.542C375.124 564.445 375.656 564.246 376.093 563.945C376.529 563.644 376.851 563.274 377.058 562.834C377.265 562.393 377.328 561.913 377.248 561.392C377.06 560.179 376.207 559.453 374.686 559.213L372.933 558.946C372.591 558.891 372.32 558.783 372.12 558.622C371.927 558.452 371.811 558.241 371.772 557.988C371.721 557.655 371.806 557.367 372.026 557.124C372.254 556.872 372.58 556.714 373.003 556.648C373.475 556.575 373.909 556.637 374.306 556.834C374.702 557.023 375.025 557.332 375.274 557.76L376.547 556.938C376.197 556.292 375.685 555.809 375.011 555.488C374.344 555.166 373.6 555.069 372.778 555.196C372.184 555.287 371.673 555.483 371.244 555.783C370.822 556.073 370.512 556.437 370.313 556.876C370.123 557.314 370.068 557.793 370.148 558.314C370.24 558.908 370.499 559.398 370.925 559.782C371.349 560.158 371.933 560.405 372.677 560.523L374.509 560.815C374.843 560.872 375.1 560.974 375.281 561.121C375.47 561.267 375.586 561.474 375.627 561.742C375.679 562.076 375.586 562.365 375.349 562.61C375.12 562.854 374.79 563.009 374.358 563.076C373.837 563.156 373.347 563.082 372.887 562.853C372.425 562.616 372.044 562.254 371.744 561.767L370.457 562.579C370.698 563.058 371.023 563.462 371.432 563.79C371.848 564.109 372.316 564.337 372.837 564.473C373.366 564.608 373.92 564.631 374.497 564.542ZM383.52 562.997L387.354 562.405C388.371 562.248 389.127 561.881 389.621 561.305C390.122 560.719 390.305 559.991 390.171 559.12C390.106 558.705 389.965 558.327 389.745 557.986C389.526 557.645 389.193 557.376 388.746 557.178C388.963 556.911 389.107 556.631 389.178 556.336C389.257 556.041 389.273 555.738 389.225 555.429C389.102 554.632 388.749 554.045 388.166 553.668C387.583 553.291 386.843 553.172 385.948 553.311L382.115 553.903L383.52 562.997ZM384.321 557.174L383.994 555.062L386.253 554.714C386.594 554.661 386.881 554.712 387.114 554.868C387.346 555.024 387.487 555.26 387.536 555.578C387.585 555.895 387.523 556.171 387.351 556.406C387.178 556.633 386.921 556.773 386.579 556.825L384.321 557.174ZM384.954 561.276L384.545 558.627L386.889 558.265C387.32 558.198 387.681 558.267 387.971 558.473C388.268 558.668 388.448 558.97 388.51 559.377C388.572 559.775 388.491 560.117 388.269 560.401C388.053 560.676 387.729 560.847 387.298 560.914L384.954 561.276ZM394.901 561.239L396.573 560.981L395.949 556.94L398.22 551.415L396.328 551.707L394.848 555.398L392.324 552.326L390.432 552.618L394.279 557.211L394.901 561.239ZM404.627 559.736L405.152 559.655C405.754 559.562 406.256 559.364 406.659 559.06C407.07 558.754 407.361 558.372 407.532 557.912C407.711 557.451 407.757 556.94 407.67 556.379L406.7 550.104L405.028 550.363L406.007 556.698C406.065 557.073 405.993 557.392 405.793 557.656C405.599 557.911 405.306 558.069 404.916 558.129L404.391 558.21L404.627 559.736ZM412.628 558.5L414.533 558.206L415.267 551.393L418.024 557.666L419.928 557.372L420.964 547.9L419.182 548.176L418.554 555.272L415.74 548.708L414.019 548.973L413.305 556.083L410.564 549.507L408.782 549.783L412.628 558.5Z" fill="white"/>
<path d="M487.265 362.821L490.897 347.262L493.436 346.87L489.805 362.429L487.265 362.821Z" fill="#F43F5E"/>
<path d="M500.242 358.635L498.198 345.407L500.613 345.033L501.677 351.923L500.985 351.794L505.584 344.265L508.621 343.796L504.313 350.861L504.192 349.135L510.824 357L507.983 357.439L503.532 352.163L502.083 354.551L502.657 358.262L500.242 358.635ZM514.539 356.426L517.059 342.492L520.184 342.01L526.791 354.533L524.163 354.939L522.783 352.243L517.669 353.033L517.149 356.022L514.539 356.426ZM518.032 350.796L521.761 350.219L518.542 343.972L519.216 343.868L518.032 350.796ZM531.592 353.791L529.548 340.563L534.467 339.803C535.366 339.664 536.185 339.707 536.923 339.932C537.671 340.144 538.288 340.533 538.776 341.1C539.262 341.655 539.573 342.377 539.71 343.265C539.851 344.176 539.752 344.985 539.413 345.692C539.085 346.397 538.579 346.96 537.892 347.382L541.749 352.221L539.014 352.644L534.868 347.34L536.573 348.022L533.253 348.535L534.007 353.418L531.592 353.791ZM532.923 346.404L535.463 346.012C535.901 345.944 536.267 345.803 536.561 345.588C536.853 345.361 537.064 345.079 537.194 344.744C537.324 344.409 537.358 344.04 537.296 343.638C537.231 343.223 537.088 342.882 536.865 342.614C536.639 342.333 536.354 342.135 536.009 342.019C535.662 341.89 535.27 341.86 534.832 341.928L532.292 342.32L532.923 346.404ZM546.661 351.462L544.617 338.234L548.931 337.568C550.328 337.352 551.585 337.448 552.703 337.857C553.831 338.253 554.755 338.904 555.477 339.81C556.197 340.705 556.658 341.803 556.859 343.106C557.058 344.396 556.952 345.588 556.539 346.682C556.124 347.764 555.44 348.67 554.486 349.399C553.542 350.114 552.372 350.58 550.975 350.796L546.661 351.462ZM548.746 348.959L550.699 348.657C551.599 348.518 552.346 348.215 552.94 347.747C553.545 347.266 553.979 346.665 554.244 345.946C554.506 345.214 554.567 344.393 554.427 343.481C554.284 342.558 553.978 341.793 553.508 341.187C553.039 340.581 552.445 340.146 551.725 339.881C551.017 339.615 550.214 339.551 549.314 339.69L547.361 339.992L548.746 348.959ZM563.133 348.917L561.09 335.689L562.972 335.398L571.766 344.075L570.82 344.421L569.275 334.424L571.69 334.051L573.734 347.279L571.834 347.573L563.135 338.809L563.993 338.476L565.548 348.544L563.133 348.917ZM586.173 345.575C585.202 345.725 584.27 345.694 583.377 345.48C582.483 345.267 581.675 344.901 580.953 344.382C580.23 343.864 579.628 343.217 579.144 342.444C578.671 341.656 578.36 340.777 578.21 339.807C578.058 338.824 578.09 337.892 578.305 337.01C578.52 336.129 578.894 335.332 579.426 334.619C579.958 333.907 580.619 333.32 581.408 332.858C582.196 332.385 583.081 332.073 584.063 331.921C585.046 331.769 585.984 331.8 586.877 332.013C587.771 332.227 588.579 332.593 589.301 333.111C590.022 333.618 590.618 334.259 591.089 335.035C591.572 335.809 591.89 336.687 592.042 337.669C592.192 338.64 592.154 339.573 591.929 340.468C591.702 341.352 591.322 342.15 590.79 342.862C590.257 343.575 589.598 344.168 588.81 344.641C588.035 345.112 587.156 345.424 586.173 345.575ZM585.833 343.374C586.484 343.273 587.064 343.068 587.574 342.759C588.082 342.438 588.505 342.04 588.844 341.563C589.194 341.085 589.432 340.545 589.557 339.944C589.694 339.341 589.711 338.708 589.609 338.045C589.507 337.382 589.3 336.79 588.989 336.268C588.688 335.733 588.299 335.29 587.82 334.94C587.352 334.576 586.828 334.324 586.249 334.183C585.67 334.042 585.055 334.022 584.403 334.123C583.764 334.222 583.19 334.425 582.68 334.735C582.17 335.044 581.741 335.443 581.393 335.933C581.054 336.41 580.816 336.95 580.679 337.552C580.54 338.144 580.522 338.771 580.625 339.433C580.727 340.096 580.935 340.695 581.247 341.228C581.56 341.761 581.95 342.204 582.416 342.556C582.894 342.907 583.424 343.158 584.005 343.311C584.584 343.451 585.194 343.472 585.833 343.374ZM598.541 343.446L596.498 330.218L600.812 329.551C602.209 329.335 603.466 329.432 604.584 329.841C605.712 330.237 606.636 330.887 607.358 331.794C608.078 332.689 608.539 333.787 608.74 335.089C608.939 336.38 608.833 337.572 608.42 338.666C608.005 339.748 607.321 340.653 606.367 341.383C605.423 342.098 604.253 342.564 602.856 342.779L598.541 343.446ZM600.627 340.942L602.58 340.641C603.48 340.502 604.227 340.198 604.821 339.731C605.426 339.249 605.86 338.649 606.125 337.929C606.387 337.198 606.448 336.377 606.307 335.465C606.165 334.542 605.859 333.777 605.389 333.171C604.92 332.565 604.325 332.129 603.606 331.865C602.898 331.598 602.094 331.535 601.195 331.674L599.242 331.976L600.627 340.942ZM615.014 340.901L612.97 327.673L621.76 326.315L622.089 328.445L615.714 329.43L616.238 332.822L622.258 331.892L622.587 334.022L616.568 334.952L617.1 338.397L623.474 337.412L623.804 339.543L615.014 340.901Z" fill="white"/>
<g filter="url(#filter3_f_19_656)">
<rect x="168.305" y="84.9744" width="376.088" height="209.277" transform="rotate(16.72 168.305 84.9744)" fill="url(#paint3_linear_19_656)"/>
</g>
<g filter="url(#filter4_d_19_656)">
<rect x="149.483" y="42" width="436.721" height="276.268" rx="18.0962" transform="rotate(16.7205 149.483 42)" fill="white"/>
</g>
<mask id="mask1_19_656" style="mask-type:alpha" maskUnits="userSpaceOnUse" x="74" y="46" width="490" height="382">
<rect x="149.483" y="42" width="436.721" height="276.268" rx="18.0962" transform="rotate(16.7205 149.483 42)" fill="white"/>
</mask>
<g mask="url(#mask1_19_656)">
<g opacity="0.18">
<line x1="147.446" y1="33.3451" x2="395.632" y2="406.444" stroke="#18181B" stroke-width="1.20641"/>
<line x1="140.974" y1="33.9205" x2="389.16" y2="407.019" stroke="#18181B" stroke-width="1.20641"/>
<line x1="134.503" y1="34.4959" x2="382.689" y2="407.594" stroke="#18181B" stroke-width="1.20641"/>
<line x1="128.033" y1="35.0713" x2="376.218" y2="408.17" stroke="#18181B" stroke-width="1.20641"/>
<line x1="121.561" y1="35.6466" x2="369.747" y2="408.745" stroke="#18181B" stroke-width="1.20641"/>
<line x1="115.09" y1="36.2219" x2="363.275" y2="409.32" stroke="#18181B" stroke-width="1.20641"/>
<line x1="108.618" y1="36.7974" x2="356.804" y2="409.896" stroke="#18181B" stroke-width="1.20641"/>
<line x1="102.148" y1="37.3727" x2="350.333" y2="410.471" stroke="#18181B" stroke-width="1.20641"/>
<line x1="95.6761" y1="37.948" x2="343.862" y2="411.046" stroke="#18181B" stroke-width="1.20641"/>
<line x1="89.2049" y1="38.5235" x2="337.391" y2="411.622" stroke="#18181B" stroke-width="1.20641"/>
<line x1="82.7332" y1="39.0988" x2="330.919" y2="412.197" stroke="#18181B" stroke-width="1.20641"/>
<line x1="76.263" y1="39.6742" x2="324.449" y2="412.773" stroke="#18181B" stroke-width="1.20641"/>
<line x1="69.7913" y1="40.2495" x2="317.977" y2="413.348" stroke="#18181B" stroke-width="1.20641"/>
<line x1="63.3196" y1="40.8248" x2="311.505" y2="413.923" stroke="#18181B" stroke-width="1.20641"/>
<line x1="56.8484" y1="41.4003" x2="305.034" y2="414.499" stroke="#18181B" stroke-width="1.20641"/>
<line x1="50.3777" y1="41.9756" x2="298.563" y2="415.074" stroke="#18181B" stroke-width="1.20641"/>
<line x1="43.9065" y1="42.5509" x2="292.092" y2="415.649" stroke="#18181B" stroke-width="1.20641"/>
<line x1="37.4349" y1="43.1264" x2="285.621" y2="416.225" stroke="#18181B" stroke-width="1.20641"/>
<line x1="30.9632" y1="43.7017" x2="279.149" y2="416.8" stroke="#18181B" stroke-width="1.20641"/>
<line x1="24.493" y1="44.2771" x2="272.679" y2="417.376" stroke="#18181B" stroke-width="1.20641"/>
<line x1="18.0213" y1="44.8524" x2="266.207" y2="417.951" stroke="#18181B" stroke-width="1.20641"/>
<line x1="11.5501" y1="45.4278" x2="259.736" y2="418.526" stroke="#18181B" stroke-width="1.20641"/>
<line x1="5.07841" y1="46.0032" x2="253.264" y2="419.102" stroke="#18181B" stroke-width="1.20641"/>
<line x1="-1.39181" y1="46.5785" x2="246.794" y2="419.677" stroke="#18181B" stroke-width="1.20641"/>
<line x1="-7.86349" y1="47.1539" x2="240.322" y2="420.252" stroke="#18181B" stroke-width="1.20641"/>
<line x1="-14.3352" y1="47.7293" x2="233.851" y2="420.828" stroke="#18181B" stroke-width="1.20641"/>
<line x1="-20.8064" y1="48.3046" x2="227.379" y2="421.403" stroke="#18181B" stroke-width="1.20641"/>
<line x1="-27.2761" y1="48.88" x2="220.91" y2="421.978" stroke="#18181B" stroke-width="1.20641"/>
<line x1="-33.7473" y1="49.4553" x2="214.438" y2="422.554" stroke="#18181B" stroke-width="1.20641"/>
<line x1="-40.2199" y1="50.0307" x2="207.966" y2="423.129" stroke="#18181B" stroke-width="1.20641"/>
<line x1="-46.6892" y1="50.6061" x2="201.497" y2="423.704" stroke="#18181B" stroke-width="1.20641"/>
<line x1="154.726" y1="34.2722" x2="402.912" y2="407.371" stroke="#18181B" stroke-width="1.20641"/>
<line x1="162.004" y1="35.1994" x2="410.19" y2="408.298" stroke="#18181B" stroke-width="1.20641"/>
<line x1="169.284" y1="36.1266" x2="417.47" y2="409.225" stroke="#18181B" stroke-width="1.20641"/>
<line x1="176.564" y1="37.0537" x2="424.749" y2="410.152" stroke="#18181B" stroke-width="1.20641"/>
<line x1="183.843" y1="37.9809" x2="432.029" y2="411.079" stroke="#18181B" stroke-width="1.20641"/>
<line x1="191.123" y1="38.9079" x2="439.309" y2="412.006" stroke="#18181B" stroke-width="1.20641"/>
<line x1="198.403" y1="39.8351" x2="446.588" y2="412.934" stroke="#18181B" stroke-width="1.20641"/>
<line x1="205.681" y1="40.7622" x2="453.867" y2="413.861" stroke="#18181B" stroke-width="1.20641"/>
<line x1="212.961" y1="41.6893" x2="461.146" y2="414.788" stroke="#18181B" stroke-width="1.20641"/>
<line x1="220.241" y1="42.6165" x2="468.426" y2="415.715" stroke="#18181B" stroke-width="1.20641"/>
<line x1="227.52" y1="43.5436" x2="475.706" y2="416.642" stroke="#18181B" stroke-width="1.20641"/>
<line x1="234.8" y1="44.4707" x2="482.986" y2="417.569" stroke="#18181B" stroke-width="1.20641"/>
<line x1="242.079" y1="45.3978" x2="490.265" y2="418.496" stroke="#18181B" stroke-width="1.20641"/>
<line x1="249.358" y1="46.325" x2="497.544" y2="419.423" stroke="#18181B" stroke-width="1.20641"/>
<line x1="256.638" y1="47.2521" x2="504.824" y2="420.35" stroke="#18181B" stroke-width="1.20641"/>
<line x1="263.917" y1="48.1792" x2="512.103" y2="421.278" stroke="#18181B" stroke-width="1.20641"/>
<line x1="271.197" y1="49.1063" x2="519.383" y2="422.205" stroke="#18181B" stroke-width="1.20641"/>
<line x1="278.477" y1="50.0335" x2="526.663" y2="423.132" stroke="#18181B" stroke-width="1.20641"/>
<line x1="285.757" y1="50.9606" x2="533.942" y2="424.059" stroke="#18181B" stroke-width="1.20641"/>
<line x1="293.035" y1="51.8877" x2="541.221" y2="424.986" stroke="#18181B" stroke-width="1.20641"/>
<line x1="300.315" y1="52.8148" x2="548.5" y2="425.913" stroke="#18181B" stroke-width="1.20641"/>
<line x1="307.595" y1="53.742" x2="555.78" y2="426.84" stroke="#18181B" stroke-width="1.20641"/>
<line x1="314.875" y1="54.6691" x2="563.061" y2="427.767" stroke="#18181B" stroke-width="1.20641"/>
</g>
<rect x="149.483" y="42" width="436.721" height="276.268" rx="18.0962" transform="rotate(16.7205 149.483 42)" fill="url(#paint4_linear_19_656)"/>
<g filter="url(#filter5_f_19_656)">
<circle cx="155.826" cy="75.3973" r="108.577" transform="rotate(16.7205 155.826 75.3973)" fill="#D2D2D2"/>
</g>
<g filter="url(#filter6_f_19_656)">
<circle cx="479.136" cy="408.08" r="108.577" transform="rotate(16.7205 479.136 408.08)" fill="#C8C8C8"/>
</g>
</g>
<path d="M199.698 210.302L209.161 178.801C210.38 174.743 207.281 170.214 202.25 168.703L156.948 155.094C151.916 153.582 146.833 155.654 145.614 159.711L136.151 191.212C134.932 195.27 138.034 199.798 143.065 201.309L188.367 214.918C193.398 216.429 198.479 214.359 199.698 210.302ZM143.242 200.719C138.614 199.329 135.762 195.163 136.882 191.432L146.346 159.931C147.467 156.199 152.143 154.293 156.771 155.684L202.073 169.293C206.699 170.682 209.551 174.849 208.43 178.581L198.966 210.082C197.846 213.813 193.17 215.718 188.544 214.328L143.242 200.719Z" fill="#3F3F46"/>
<path d="M188.544 214.33L143.242 200.721C141.018 200.052 139.099 198.698 137.906 196.958C136.714 195.217 136.345 193.231 136.882 191.436L146.346 159.932C147.467 156.2 152.143 154.295 156.771 155.685L202.073 169.294C206.698 170.684 209.55 174.85 208.429 178.583L198.965 210.086C197.845 213.814 193.169 215.719 188.544 214.33Z" fill="url(#paint5_linear_19_656)"/>
<path d="M137.88 185.896L138.057 185.306L158.919 191.573C160.301 191.987 161.76 191.942 162.974 191.447C164.189 190.952 165.06 190.049 165.396 188.934L168.763 177.728C169.096 176.613 168.867 175.379 168.127 174.297C167.386 173.214 166.194 172.373 164.812 171.956L143.95 165.69L144.128 165.099L164.989 171.366C166.565 171.841 167.925 172.801 168.769 174.035C169.614 175.269 169.875 176.676 169.494 177.948L166.128 189.154C165.744 190.425 164.751 191.455 163.366 192.02C161.982 192.584 160.318 192.635 158.741 192.163L137.88 185.896Z" fill="#383335"/>
<path d="M178.24 192.792L181.606 181.586C181.99 180.315 182.983 179.285 184.368 178.721C185.753 178.156 187.417 178.105 188.994 178.577L207.521 184.143L207.344 184.733L188.816 179.167C187.433 178.753 185.975 178.798 184.76 179.293C183.546 179.788 182.675 180.692 182.338 181.806L178.972 193.012C178.638 194.128 178.867 195.362 179.608 196.444C180.349 197.526 181.541 198.368 182.923 198.784L201.451 204.35L201.274 204.94L182.746 199.374C181.17 198.899 179.81 197.94 178.965 196.706C178.121 195.472 177.86 194.064 178.24 192.792Z" fill="#383335"/>
<path d="M181.726 182.514L181.903 181.924L169.06 178.065L168.883 178.655L181.726 182.514Z" fill="#383335"/>
<path d="M178.674 192.674L178.852 192.084L166.008 188.226L165.831 188.816L178.674 192.674Z" fill="#383335"/>
<path d="M150.642 203.265L154.46 190.555L153.728 190.336L149.91 203.045L150.642 203.265Z" fill="#383335"/>
<path d="M160.531 170.348L164.349 157.639L163.617 157.419L159.799 170.129L160.531 170.348Z" fill="#383335"/>
<path d="M183.057 213.002L186.875 200.293L186.143 200.073L182.325 212.782L183.057 213.002Z" fill="#383335"/>
<path d="M192.944 180.086L196.762 167.376L196.031 167.156L192.212 179.866L192.944 180.086Z" fill="#383335"/>
<path d="M203.959 194.792L204.136 194.202L180.361 187.06L180.184 187.65L203.959 194.792Z" fill="#383335"/>
<path d="M167.108 183.722L167.285 183.132L141.07 175.257L140.893 175.847L167.108 183.722Z" fill="#383335"/>
<path d="M413.054 376.528L404.569 373.979L419.662 342.981L428.148 345.53L413.054 376.528ZM407.221 339.244L392.398 359.23L392.89 354.115L392.891 354.117L394.439 338.603C394.439 338.603 394.975 335.565 391.295 334.459L377.922 330.442L377.599 330.947C377.599 330.947 381.433 333.026 385.356 337.338L384.222 367.867L393.063 370.523L416.353 341.987L407.221 339.244ZM464.17 391.883L471.961 394.224L474.959 359.591L468.138 357.542C464.988 356.596 463.491 358.795 463.491 358.795L441.775 385.156L450.621 387.813L453.844 383.503L464.63 386.744L464.17 391.883ZM458.296 377.55L466.418 366.693L465.263 379.643L458.296 377.55ZM449.875 360.602L453.188 353.967C453.188 353.967 449.879 351.423 445.984 350.253C441.773 348.988 431.221 347.825 428.532 356.774C426.003 365.193 437.708 368.824 436.379 373.246C435.05 377.669 424.762 373.714 422.125 369.881L418.666 376.82C418.666 376.82 421.902 379.799 427.69 381.538C433.481 383.277 443.117 382.903 445.568 374.743C448.113 366.27 436.509 361.923 437.616 358.239C438.724 354.554 446.845 357.51 449.875 360.602Z" fill="#2566AF"/>
<path d="M392.891 354.116L394.439 338.602C394.439 338.602 394.976 335.564 391.296 334.459L377.923 330.441L377.6 330.946C377.6 330.946 383.627 334.209 388.293 341.052C392.755 347.593 392.891 354.116 392.891 354.116Z" fill="#E6A540"/>
<path d="M119.357 262.707C118.755 262.526 118.229 262.248 117.778 261.873C117.336 261.5 116.987 261.062 116.731 260.561C116.487 260.053 116.359 259.511 116.347 258.935L117.97 258.743C118.036 259.354 118.238 259.882 118.576 260.325C118.916 260.76 119.358 261.059 119.9 261.221C120.205 261.313 120.482 261.345 120.73 261.318C120.989 261.285 121.204 261.202 121.373 261.068C121.551 260.937 121.676 260.753 121.747 260.515C121.831 260.236 121.815 259.982 121.699 259.753C121.594 259.518 121.392 259.3 121.092 259.099L119.45 257.969C118.782 257.518 118.33 257.009 118.094 256.439C117.859 255.869 117.834 255.275 118.02 254.657C118.183 254.115 118.458 253.675 118.845 253.339C119.241 253.005 119.711 252.795 120.254 252.709C120.808 252.617 121.395 252.664 122.013 252.85C122.581 253.02 123.071 253.278 123.485 253.624C123.901 253.962 124.225 254.359 124.457 254.817C124.7 255.269 124.835 255.757 124.862 256.283L123.247 256.49C123.203 255.96 123.033 255.512 122.737 255.145C122.443 254.771 122.05 254.51 121.559 254.362C121.271 254.275 121.001 254.25 120.75 254.285C120.502 254.312 120.288 254.396 120.107 254.536C119.938 254.669 119.817 254.855 119.746 255.092C119.667 255.355 119.682 255.613 119.79 255.868C119.901 256.113 120.114 256.344 120.428 256.558L122.005 257.628C122.685 258.1 123.147 258.608 123.39 259.152C123.641 259.699 123.672 260.29 123.481 260.925C123.318 261.468 123.034 261.904 122.63 262.236C122.226 262.567 121.742 262.777 121.179 262.867C120.617 262.956 120.009 262.903 119.357 262.707ZM125.406 264.358L128.25 254.89L129.979 255.409L127.135 264.877L125.406 264.358ZM130.111 265.772L132.956 256.303L134.608 256.799L136.707 262.681L135.919 262.445L140.835 258.67L142.488 259.167L139.643 268.635L137.902 268.112L140.155 260.613L140.779 260.981L135.742 264.692L135.539 264.631L133.471 258.786L134.092 258.792L131.84 266.291L130.111 265.772ZM147.229 271.08C146.535 270.872 145.923 270.554 145.395 270.128C144.868 269.701 144.445 269.2 144.129 268.625C143.812 268.049 143.616 267.427 143.54 266.757C143.475 266.082 143.547 265.397 143.755 264.702C143.967 263.999 144.284 263.387 144.708 262.868C145.132 262.349 145.635 261.936 146.216 261.631C146.797 261.325 147.425 261.144 148.097 261.087C148.773 261.022 149.462 261.095 150.165 261.307C150.869 261.518 151.484 261.837 152.012 262.263C152.54 262.69 152.962 263.191 153.279 263.766C153.598 264.333 153.791 264.95 153.859 265.617C153.935 266.286 153.867 266.973 153.656 267.676C153.447 268.371 153.125 268.981 152.69 269.506C152.258 270.023 151.751 270.434 151.17 270.74C150.588 271.045 149.96 271.231 149.285 271.296C148.618 271.363 147.933 271.292 147.229 271.08ZM147.703 269.504C148.169 269.644 148.621 269.692 149.059 269.648C149.5 269.596 149.909 269.465 150.286 269.255C150.671 269.047 151.001 268.763 151.276 268.402C151.559 268.044 151.772 267.628 151.915 267.153C152.057 266.679 152.108 266.218 152.067 265.771C152.036 265.319 151.917 264.9 151.71 264.514C151.513 264.123 151.244 263.788 150.903 263.51C150.562 263.232 150.158 263.023 149.692 262.883C149.234 262.745 148.787 262.698 148.348 262.742C147.91 262.786 147.497 262.916 147.109 263.132C146.732 263.342 146.402 263.626 146.118 263.985C145.838 264.334 145.626 264.747 145.484 265.221C145.341 265.696 145.289 266.16 145.328 266.615C145.367 267.071 145.486 267.49 145.685 267.873C145.892 268.258 146.165 268.594 146.504 268.881C146.846 269.159 147.245 269.367 147.703 269.504ZM154.924 273.226L157.769 263.757L159.116 264.162L162.219 272.743L161.478 272.673L163.628 265.517L165.356 266.036L162.512 275.505L161.152 275.096L158.14 266.487L158.817 266.539L156.653 273.745L154.924 273.226ZM173.533 278.982C172.838 278.773 172.227 278.456 171.699 278.029C171.171 277.603 170.749 277.102 170.432 276.526C170.116 275.951 169.919 275.328 169.843 274.659C169.778 273.983 169.85 273.298 170.059 272.604C170.27 271.9 170.588 271.289 171.011 270.77C171.435 270.25 171.938 269.838 172.519 269.532C173.101 269.227 173.728 269.046 174.401 268.989C175.076 268.924 175.766 268.997 176.469 269.208C177.172 269.42 177.788 269.738 178.315 270.165C178.843 270.591 179.265 271.092 179.582 271.668C179.901 272.235 180.095 272.852 180.162 273.519C180.238 274.188 180.171 274.875 179.959 275.578C179.751 276.273 179.429 276.883 178.994 277.408C178.562 277.925 178.055 278.336 177.473 278.641C176.892 278.947 176.263 279.133 175.588 279.198C174.921 279.265 174.236 279.193 173.533 278.982ZM174.006 277.406C174.472 277.546 174.924 277.594 175.362 277.55C175.803 277.498 176.212 277.367 176.589 277.157C176.975 276.949 177.305 276.665 177.58 276.304C177.863 275.946 178.076 275.529 178.218 275.055C178.361 274.58 178.411 274.12 178.37 273.673C178.34 273.221 178.221 272.802 178.013 272.416C177.817 272.024 177.548 271.69 177.207 271.411C176.865 271.133 176.461 270.924 175.995 270.784C175.538 270.647 175.09 270.6 174.652 270.644C174.214 270.688 173.801 270.818 173.412 271.034C173.035 271.244 172.705 271.528 172.422 271.886C172.141 272.236 171.93 272.648 171.787 273.123C171.645 273.597 171.593 274.062 171.632 274.517C171.67 274.972 171.789 275.391 171.988 275.774C172.196 276.16 172.469 276.496 172.808 276.783C173.149 277.061 173.549 277.269 174.006 277.406ZM181.228 281.127L184.072 271.659L185.801 272.178L183.414 280.121L187.469 281.339L187.01 282.864L181.228 281.127ZM188.509 283.314L194.619 274.827L196.856 275.499L197.278 285.949L195.397 285.384L195.334 283.148L191.674 282.048L190.377 283.876L188.509 283.314ZM192.628 280.672L195.297 281.474L195.137 276.285L195.62 276.43L192.628 280.672ZM200.532 286.926L202.918 278.983L200.465 278.246L200.923 276.721L207.532 278.706L207.074 280.231L204.659 279.506L202.273 287.449L200.532 286.926ZM210.5 290.087C209.771 289.868 209.169 289.521 208.693 289.045C208.225 288.572 207.911 288.021 207.749 287.39C207.587 286.76 207.608 286.105 207.812 285.428L209.641 279.34L211.369 279.859L209.567 285.858C209.45 286.248 209.429 286.625 209.505 286.989C209.588 287.356 209.756 287.674 210.008 287.944C210.262 288.205 210.584 288.394 210.973 288.511C211.372 288.631 211.745 288.65 212.092 288.57C212.45 288.484 212.761 288.309 213.025 288.047C213.297 287.787 213.492 287.462 213.609 287.072L215.411 281.073L217.139 281.592L215.311 287.68C215.107 288.358 214.764 288.915 214.282 289.352C213.799 289.79 213.229 290.075 212.569 290.21C211.918 290.347 211.229 290.306 210.5 290.087ZM217.176 291.926L220.021 282.458L221.368 282.862L224.471 291.443L223.73 291.373L225.88 284.218L227.608 284.737L224.764 294.206L223.404 293.797L220.392 285.188L221.069 285.239L218.905 292.446L217.176 291.926ZM227.332 294.977L227.81 293.389L228.356 293.553C228.763 293.675 229.119 293.657 229.425 293.5C229.742 293.336 229.959 293.06 230.076 292.67L232.058 286.074L233.799 286.597L231.837 293.13C231.661 293.714 231.38 294.189 230.993 294.553C230.615 294.92 230.156 295.156 229.617 295.262C229.085 295.37 228.506 295.33 227.879 295.142L227.332 294.977ZM233.897 296.949L236.741 287.481L238.47 288L235.625 297.469L233.897 296.949Z" fill="#18181B"/>
<path opacity="0.5" d="M109.08 284.647L111.925 275.179L118.241 277.076L117.783 278.601L113.195 277.223L112.409 279.841L116.425 281.048L115.967 282.573L111.95 281.366L110.809 285.166L109.08 284.647ZM121.285 288.48C120.556 288.261 119.953 287.913 119.477 287.438C119.01 286.965 118.695 286.413 118.534 285.783C118.372 285.152 118.393 284.498 118.597 283.82L120.425 277.732L122.154 278.251L120.352 284.25C120.235 284.64 120.214 285.017 120.289 285.382C120.373 285.749 120.541 286.067 120.792 286.336C121.046 286.597 121.368 286.787 121.758 286.904C122.156 287.023 122.529 287.043 122.876 286.962C123.235 286.876 123.546 286.702 123.81 286.439C124.082 286.179 124.276 285.854 124.393 285.464L126.196 279.466L127.924 279.985L126.095 286.073C125.892 286.75 125.549 287.308 125.066 287.745C124.584 288.182 124.013 288.468 123.354 288.602C122.703 288.739 122.013 288.698 121.285 288.48ZM127.961 290.319L130.805 280.85L132.534 281.37L130.147 289.313L134.202 290.531L133.743 292.056L127.961 290.319ZM136.017 292.739L138.861 283.27L140.59 283.79L138.204 291.733L142.258 292.951L141.8 294.476L136.017 292.739ZM147.408 296.327C146.806 296.146 146.28 295.868 145.83 295.493C145.387 295.12 145.038 294.682 144.783 294.181C144.538 293.673 144.41 293.131 144.398 292.555L146.021 292.363C146.087 292.974 146.289 293.502 146.627 293.945C146.968 294.38 147.409 294.679 147.951 294.841C148.256 294.933 148.533 294.965 148.781 294.938C149.041 294.905 149.255 294.822 149.425 294.688C149.603 294.557 149.727 294.373 149.798 294.135C149.882 293.856 149.866 293.602 149.75 293.373C149.645 293.138 149.443 292.92 149.143 292.719L147.501 291.589C146.833 291.138 146.381 290.629 146.146 290.059C145.91 289.489 145.885 288.895 146.071 288.277C146.234 287.735 146.509 287.295 146.897 286.959C147.293 286.625 147.762 286.415 148.305 286.329C148.86 286.237 149.446 286.284 150.064 286.47C150.632 286.64 151.123 286.898 151.536 287.244C151.952 287.582 152.276 287.979 152.508 288.437C152.751 288.889 152.886 289.377 152.913 289.903L151.299 290.11C151.255 289.58 151.085 289.132 150.788 288.765C150.494 288.391 150.102 288.13 149.61 287.982C149.322 287.896 149.053 287.87 148.802 287.905C148.553 287.933 148.339 288.016 148.158 288.156C147.989 288.289 147.869 288.475 147.797 288.712C147.718 288.975 147.733 289.233 147.841 289.488C147.952 289.733 148.165 289.964 148.479 290.178L150.056 291.248C150.737 291.72 151.198 292.228 151.441 292.772C151.693 293.319 151.723 293.91 151.532 294.545C151.369 295.088 151.086 295.524 150.681 295.856C150.277 296.187 149.793 296.397 149.231 296.487C148.668 296.576 148.06 296.523 147.408 296.327ZM155.135 298.482L157.521 290.539L155.068 289.802L155.527 288.277L162.135 290.262L161.677 291.787L159.262 291.062L156.876 299.005L155.135 298.482ZM160.093 299.972L166.204 291.484L168.441 292.156L168.862 302.606L166.981 302.041L166.919 299.805L163.258 298.705L161.961 300.533L160.093 299.972ZM164.212 297.329L166.881 298.131L166.722 292.942L167.205 293.087L164.212 297.329ZM175.089 304.643C174.412 304.439 173.821 304.128 173.319 303.709C172.825 303.293 172.428 302.8 172.129 302.229C171.837 301.661 171.662 301.045 171.603 300.381C171.544 299.716 171.62 299.033 171.831 298.329C172.043 297.626 172.352 297.012 172.759 296.488C173.177 295.958 173.662 295.54 174.216 295.235C174.78 294.924 175.386 294.737 176.034 294.673C176.684 294.6 177.348 294.666 178.025 294.869C178.703 295.073 179.275 295.369 179.74 295.758C180.213 296.15 180.579 296.593 180.838 297.086C181.098 297.571 181.242 298.062 181.268 298.559L179.5 298.818C179.464 298.29 179.281 297.81 178.949 297.377C178.619 296.937 178.154 296.626 177.552 296.445C176.959 296.267 176.392 296.249 175.85 296.391C175.317 296.536 174.85 296.816 174.448 297.231C174.054 297.648 173.758 298.188 173.56 298.849C173.361 299.51 173.31 300.127 173.405 300.701C173.512 301.268 173.748 301.759 174.113 302.174C174.486 302.591 174.97 302.889 175.563 303.067C176.164 303.248 176.723 303.249 177.238 303.071C177.756 302.885 178.175 302.581 178.496 302.16L179.829 303.351C179.533 303.751 179.141 304.086 178.654 304.356C178.169 304.616 177.621 304.78 177.01 304.846C176.407 304.914 175.767 304.846 175.089 304.643ZM181.685 306.458L184.529 296.989L186.258 297.508L184.776 302.44L184.356 302.133L189.816 298.578L191.99 299.23L186.871 302.57L187.339 301.381L189.26 308.733L187.226 308.122L185.936 303.19L184.211 304.321L183.413 306.977L181.685 306.458ZM194.88 310.422L197.725 300.953L200.813 301.881C201.813 302.181 202.62 302.646 203.235 303.274C203.861 303.896 204.271 304.624 204.464 305.458C204.659 306.283 204.617 307.162 204.337 308.094C204.06 309.018 203.609 309.779 202.986 310.377C202.366 310.966 201.622 311.352 200.754 311.535C199.897 311.712 198.969 311.65 197.969 311.35L194.88 310.422ZM197.067 309.416L198.465 309.836C199.109 310.029 199.704 310.065 200.248 309.942C200.804 309.814 201.285 309.551 201.69 309.156C202.098 308.752 202.4 308.224 202.596 307.571C202.794 306.91 202.833 306.303 202.713 305.75C202.593 305.196 202.335 304.717 201.94 304.312C201.553 303.909 201.037 303.611 200.393 303.418L198.995 302.998L197.067 309.416ZM205.444 313.595L208.288 304.127L214.579 306.017L214.121 307.542L209.559 306.171L208.829 308.598L213.138 309.893L212.68 311.418L208.371 310.124L207.63 312.589L212.193 313.96L211.735 315.485L205.444 313.595ZM216.687 316.973L216.227 306.511L218.108 307.077L218.345 315.697L217.976 315.586L222.925 308.524L224.806 309.089L218.67 317.568L216.687 316.973ZM224.175 319.222L227.02 309.754L233.311 311.643L232.853 313.169L228.29 311.798L227.561 314.225L231.869 315.52L231.411 317.045L227.102 315.751L226.362 318.216L230.924 319.587L230.466 321.112L224.175 319.222ZM232.889 321.84L235.734 312.371L237.462 312.891L235.076 320.834L239.13 322.052L238.672 323.577L232.889 321.84ZM245.316 325.739C244.621 325.53 244.01 325.213 243.482 324.786C242.954 324.36 242.532 323.859 242.215 323.284C241.899 322.708 241.702 322.086 241.626 321.416C241.561 320.741 241.633 320.056 241.842 319.361C242.053 318.658 242.371 318.046 242.794 317.527C243.218 317.008 243.721 316.595 244.302 316.29C244.884 315.984 245.511 315.803 246.184 315.746C246.859 315.681 247.549 315.754 248.252 315.966C248.955 316.177 249.571 316.496 250.098 316.922C250.626 317.349 251.048 317.85 251.365 318.425C251.684 318.992 251.878 319.609 251.945 320.276C252.021 320.945 251.954 321.632 251.742 322.335C251.534 323.03 251.212 323.64 250.777 324.165C250.345 324.682 249.838 325.093 249.256 325.399C248.675 325.704 248.046 325.89 247.371 325.955C246.704 326.022 246.019 325.95 245.316 325.739ZM245.789 324.163C246.255 324.303 246.707 324.351 247.145 324.307C247.586 324.255 247.995 324.124 248.372 323.914C248.758 323.706 249.088 323.422 249.363 323.061C249.646 322.703 249.859 322.286 250.001 321.812C250.144 321.337 250.194 320.877 250.153 320.43C250.123 319.978 250.004 319.559 249.796 319.173C249.6 318.782 249.331 318.447 248.989 318.169C248.648 317.891 248.244 317.682 247.778 317.542C247.321 317.404 246.873 317.357 246.435 317.401C245.997 317.445 245.584 317.575 245.195 317.791C244.818 318.001 244.488 318.285 244.205 318.644C243.924 318.993 243.713 319.406 243.57 319.88C243.428 320.355 243.376 320.819 243.415 321.274C243.453 321.729 243.572 322.149 243.771 322.532C243.979 322.917 244.252 323.253 244.591 323.54C244.932 323.818 245.332 324.026 245.789 324.163ZM253.011 327.884L255.855 318.416L259.388 319.477C260.032 319.671 260.564 319.96 260.984 320.345C261.416 320.724 261.704 321.18 261.848 321.713C261.995 322.237 261.974 322.817 261.783 323.453C261.594 324.08 261.289 324.575 260.866 324.937C260.454 325.294 259.966 325.517 259.404 325.606C258.841 325.696 258.238 325.644 257.594 325.451L255.789 324.909L254.739 328.404L253.011 327.884ZM256.247 323.383L258.077 323.933C258.391 324.027 258.68 324.05 258.944 324C259.211 323.941 259.441 323.821 259.635 323.639C259.828 323.457 259.968 323.222 260.054 322.934C260.143 322.637 260.156 322.364 260.093 322.114C260.032 321.855 259.905 321.632 259.712 321.445C259.521 321.249 259.269 321.104 258.956 321.01L257.125 320.46L256.247 323.383ZM262.407 330.707L265.252 321.239L271.543 323.129L271.085 324.654L266.522 323.283L265.793 325.711L270.101 327.005L269.643 328.53L265.335 327.236L264.594 329.701L269.157 331.072L268.698 332.597L262.407 330.707ZM271.121 333.325L273.966 323.856L277.486 324.914C278.13 325.107 278.662 325.397 279.082 325.781C279.514 326.16 279.802 326.616 279.946 327.15C280.094 327.674 280.072 328.254 279.881 328.89C279.685 329.542 279.361 330.05 278.91 330.413C278.468 330.779 277.951 330.993 277.359 331.056L278.391 335.509L276.434 334.921L275.357 330.066L276.276 331.063L273.9 330.349L272.85 333.844L271.121 333.325ZM274.358 328.824L276.175 329.37C276.489 329.464 276.778 329.486 277.042 329.436C277.309 329.378 277.539 329.258 277.733 329.076C277.926 328.894 278.066 328.658 278.152 328.37C278.241 328.074 278.254 327.801 278.191 327.551C278.13 327.292 278.003 327.069 277.81 326.882C277.619 326.686 277.367 326.541 277.054 326.447L275.236 325.901L274.358 328.824Z" fill="#18181B"/>
<path d="M357.569 155.491L368.289 142.083L370.932 142.877L360.213 156.285L357.569 155.491Z" fill="#F43F5E"/>
<path d="M372.089 157.434L376.226 143.662L378.74 144.417L376.586 151.59L375.974 151.144L383.917 145.972L387.078 146.921L379.632 151.779L380.314 150.049L383.107 160.744L380.149 159.855L378.273 152.681L375.764 154.326L374.603 158.189L372.089 157.434ZM386.974 161.906L395.863 149.561L399.116 150.538L399.73 165.738L396.994 164.916L396.903 161.663L391.579 160.064L389.692 162.722L386.974 161.906ZM392.966 158.062L396.848 159.229L396.616 151.681L397.319 151.892L392.966 158.062ZM404.729 167.239L408.866 153.467L413.987 155.005C414.924 155.287 415.698 155.707 416.309 156.267C416.936 156.818 417.355 157.481 417.565 158.257C417.78 159.02 417.748 159.864 417.47 160.788C417.185 161.737 416.715 162.476 416.059 163.004C415.415 163.536 414.663 163.848 413.803 163.939L415.303 170.416L412.456 169.561L410.889 162.499L412.227 163.949L408.77 162.911L407.243 167.995L404.729 167.239ZM409.437 160.692L412.08 161.487C412.536 161.624 412.957 161.656 413.341 161.583C413.73 161.498 414.064 161.323 414.345 161.058C414.627 160.794 414.83 160.452 414.956 160.033C415.086 159.601 415.104 159.204 415.012 158.84C414.923 158.464 414.738 158.14 414.458 157.867C414.18 157.583 413.814 157.372 413.358 157.235L410.714 156.441L409.437 160.692ZM420.417 171.952L424.555 158.18L429.047 159.529C430.501 159.966 431.675 160.641 432.57 161.555C433.481 162.46 434.076 163.519 434.357 164.732C434.641 165.933 434.579 167.211 434.172 168.566C433.769 169.91 433.114 171.016 432.207 171.886C431.305 172.744 430.223 173.305 428.96 173.571C427.714 173.828 426.364 173.738 424.91 173.302L420.417 171.952ZM423.598 170.489L425.631 171.1C426.568 171.381 427.433 171.433 428.225 171.254C429.034 171.067 429.733 170.686 430.322 170.111C430.915 169.523 431.354 168.755 431.64 167.806C431.928 166.844 431.985 165.961 431.811 165.156C431.636 164.351 431.261 163.654 430.685 163.065C430.122 162.479 429.373 162.046 428.436 161.764L426.402 161.153L423.598 170.489ZM437.568 177.104L441.705 163.332L443.665 163.92L448.179 176.402L447.101 176.3L450.227 165.892L452.742 166.647L448.604 180.42L446.626 179.825L442.245 167.303L443.231 167.378L440.082 177.859L437.568 177.104ZM461.454 184.522C460.444 184.218 459.555 183.756 458.787 183.136C458.019 182.516 457.405 181.787 456.944 180.95C456.484 180.113 456.198 179.207 456.088 178.234C455.993 177.251 456.098 176.255 456.401 175.244C456.708 174.221 457.17 173.332 457.787 172.577C458.404 171.821 459.135 171.221 459.98 170.777C460.826 170.332 461.738 170.069 462.717 169.986C463.699 169.892 464.702 169.998 465.725 170.306C466.748 170.613 467.643 171.077 468.411 171.697C469.178 172.317 469.793 173.046 470.253 173.883C470.718 174.708 470.999 175.605 471.097 176.575C471.208 177.549 471.109 178.547 470.802 179.57C470.499 180.581 470.03 181.468 469.398 182.232C468.769 182.984 468.032 183.582 467.186 184.026C466.34 184.471 465.426 184.741 464.444 184.835C463.474 184.933 462.477 184.829 461.454 184.522ZM462.143 182.229C462.821 182.433 463.478 182.503 464.116 182.439C464.757 182.363 465.351 182.172 465.9 181.867C466.461 181.565 466.941 181.151 467.341 180.626C467.753 180.105 468.062 179.5 468.27 178.809C468.477 178.119 468.55 177.449 468.49 176.8C468.446 176.142 468.273 175.532 467.971 174.971C467.686 174.402 467.295 173.915 466.798 173.51C466.301 173.106 465.714 172.802 465.036 172.598C464.371 172.398 463.719 172.33 463.082 172.394C462.445 172.458 461.844 172.647 461.279 172.961C460.731 173.266 460.25 173.68 459.839 174.201C459.43 174.71 459.123 175.309 458.915 175.999C458.708 176.69 458.633 177.366 458.689 178.027C458.745 178.689 458.918 179.299 459.208 179.856C459.51 180.417 459.907 180.906 460.4 181.323C460.896 181.727 461.477 182.029 462.143 182.229ZM474.432 188.179L478.57 174.406L483.062 175.756C484.516 176.192 485.691 176.868 486.585 177.781C487.496 178.686 488.091 179.745 488.372 180.958C488.656 182.159 488.595 183.437 488.187 184.793C487.784 186.136 487.129 187.243 486.223 188.113C485.32 188.97 484.238 189.532 482.975 189.798C481.729 190.055 480.379 189.965 478.925 189.528L474.432 188.179ZM477.613 186.715L479.647 187.326C480.583 187.608 481.448 187.659 482.24 187.481C483.049 187.294 483.748 186.912 484.337 186.337C484.931 185.749 485.37 184.981 485.655 184.032C485.944 183.071 486.001 182.188 485.826 181.383C485.651 180.578 485.276 179.881 484.701 179.291C484.138 178.706 483.388 178.272 482.451 177.991L480.418 177.38L477.613 186.715ZM491.583 193.331L495.72 179.558L504.871 182.307L504.205 184.526L497.568 182.532L496.507 186.063L502.774 187.945L502.108 190.164L495.841 188.281L494.764 191.868L501.4 193.861L500.734 196.08L491.583 193.331Z" fill="#18181B"/>
<defs>
<filter id="filter0_f_19_656" x="206.984" y="237.719" width="555.717" height="428.297" filterUnits="userSpaceOnUse" color-interpolation-filters="sRGB">
<feFlood flood-opacity="0" result="BackgroundImageFix"/>
<feBlend mode="normal" in="SourceGraphic" in2="BackgroundImageFix" result="shape"/>
<feGaussianBlur stdDeviation="39.3022" result="effect1_foregroundBlur_19_656"/>
</filter>
<filter id="filter1_f_19_656" x="-156.73" y="-65.857" width="884.889" height="884.889" filterUnits="userSpaceOnUse" color-interpolation-filters="sRGB">
<feFlood flood-opacity="0" result="BackgroundImageFix"/>
<feBlend mode="normal" in="SourceGraphic" in2="BackgroundImageFix" result="shape"/>
<feGaussianBlur stdDeviation="170.684" result="effect1_foregroundBlur_19_656"/>
</filter>
<filter id="filter2_f_19_656" x="248.211" y="84.0516" width="884.889" height="884.889" filterUnits="userSpaceOnUse" color-interpolation-filters="sRGB">
<feFlood flood-opacity="0" result="BackgroundImageFix"/>
<feBlend mode="normal" in="SourceGraphic" in2="BackgroundImageFix" result="shape"/>
<feGaussianBlur stdDeviation="170.684" result="effect1_foregroundBlur_19_656"/>
</filter>
<filter id="filter3_f_19_656" x="23.6483" y="0.525497" width="589.293" height="477.526" filterUnits="userSpaceOnUse" color-interpolation-filters="sRGB">
<feFlood flood-opacity="0" result="BackgroundImageFix"/>
<feBlend mode="normal" in="SourceGraphic" in2="BackgroundImageFix" result="shape"/>
<feGaussianBlur stdDeviation="42.2244" result="effect1_foregroundBlur_19_656"/>
</filter>
<filter id="filter4_d_19_656" x="0.473534" y="23.6786" width="636.793" height="529.287" filterUnits="userSpaceOnUse" color-interpolation-filters="sRGB">
<feFlood flood-opacity="0" result="BackgroundImageFix"/>
<feColorMatrix in="SourceAlpha" type="matrix" values="0 0 0 0 0 0 0 0 0 0 0 0 0 0 0 0 0 0 127 0" result="hardAlpha"/>
<feOffset dy="51.2051"/>
<feGaussianBlur stdDeviation="36.9815"/>
<feComposite in2="hardAlpha" operator="out"/>
<feColorMatrix type="matrix" values="0 0 0 0 0.1375 0 0 0 0 0.155242 0 0 0 0 0.4125 0 0 0 0.08 0"/>
<feBlend mode="normal" in2="BackgroundImageFix" result="effect1_dropShadow_19_656"/>
<feBlend mode="normal" in="SourceGraphic" in2="effect1_dropShadow_19_656" result="shape"/>
</filter>
<filter id="filter5_f_19_656" x="-319.53" y="-399.958" width="950.71" height="950.71" filterUnits="userSpaceOnUse" color-interpolation-filters="sRGB">
<feFlood flood-opacity="0" result="BackgroundImageFix"/>
<feBlend mode="normal" in="SourceGraphic" in2="BackgroundImageFix" result="shape"/>
<feGaussianBlur stdDeviation="183.375" result="effect1_foregroundBlur_19_656"/>
</filter>
<filter id="filter6_f_19_656" x="3.78091" y="-67.2751" width="950.71" height="950.71" filterUnits="userSpaceOnUse" color-interpolation-filters="sRGB">
<feFlood flood-opacity="0" result="BackgroundImageFix"/>
<feBlend mode="normal" in="SourceGraphic" in2="BackgroundImageFix" result="shape"/>
<feGaussianBlur stdDeviation="183.375" result="effect1_foregroundBlur_19_656"/>
</filter>
<linearGradient id="paint0_linear_19_656" x1="682.074" y1="637.716" x2="1050.95" y2="637.716" gradientUnits="userSpaceOnUse">
<stop stop-color="#4484FF"/>
<stop offset="0.234375" stop-color="#44B0FF"/>
<stop offset="0.489583" stop-color="#FF44EC"/>
<stop offset="0.739583" stop-color="#44A5FF"/>
<stop offset="1" stop-color="#F2FF5E"/>
</linearGradient>
<linearGradient id="paint1_linear_19_656" x1="543.8" y1="608.222" x2="252.963" y2="331.983" gradientUnits="userSpaceOnUse">
<stop offset="0.507336"/>
<stop offset="1" stop-opacity="0"/>
</linearGradient>
<linearGradient id="paint2_linear_19_656" x1="339.65" y1="435.176" x2="350.684" y2="506.588" gradientUnits="userSpaceOnUse">
<stop stop-color="#F3EC58"/>
<stop offset="0.4" stop-color="#F6CA45"/>
<stop offset="0.77" stop-color="#F9B036"/>
<stop offset="1" stop-color="#FAA631"/>
</linearGradient>
<linearGradient id="paint3_linear_19_656" x1="166.246" y1="189.613" x2="541.921" y2="189.613" gradientUnits="userSpaceOnUse">
<stop stop-color="#44BCFF"/>
<stop offset="0.234375" stop-color="#44B0FF"/>
<stop offset="0.489583" stop-color="#FF44EC"/>
<stop offset="0.739583" stop-color="#FF44EC"/>
<stop offset="1" stop-color="#FF675E"/>
</linearGradient>
<linearGradient id="paint4_linear_19_656" x1="446.864" y1="318.268" x2="134.403" y2="21.491" gradientUnits="userSpaceOnUse">
<stop offset="0.507336" stop-color="white"/>
<stop offset="1" stop-color="white" stop-opacity="0"/>
</linearGradient>
<linearGradient id="paint5_linear_19_656" x1="181.023" y1="157.158" x2="158.687" y2="231.508" gradientUnits="userSpaceOnUse">
<stop stop-color="#F3EC58"/>
<stop offset="0.4" stop-color="#F6CA45"/>
<stop offset="0.77" stop-color="#F9B036"/>
<stop offset="1" stop-color="#FAA631"/>
</linearGradient>
</defs>
</svg>
