<svg width="125" height="30" viewBox="0 0 125 30" fill="none" xmlns="http://www.w3.org/2000/svg">
<path d="M0.256 23.92L5.568 10.72H7.856L2.544 23.92H0.256Z" fill="#F43F5E"/>
<path d="M12.2458 22V10.08H14.4218V16.288L13.8298 16.08L18.9018 10.08H21.6378L16.8858 15.712L17.0138 14.176L21.7818 22H19.2218L16.0218 16.752L14.4218 18.656V22H12.2458ZM25.1291 22L29.2411 10.08H32.0571L36.1691 22H33.8011L32.9531 19.44H28.3451L27.4811 22H25.1291ZM28.9691 17.52H32.3291L30.3451 11.584H30.9531L28.9691 17.52ZM40.4958 22V10.08H44.9278C45.7384 10.08 46.4531 10.2293 47.0718 10.528C47.7011 10.816 48.1918 11.2427 48.5438 11.808C48.8958 12.3627 49.0718 13.04 49.0718 13.84C49.0718 14.6613 48.8744 15.36 48.4798 15.936C48.0958 16.512 47.5731 16.9387 46.9118 17.216L49.6478 22H47.1838L44.2558 16.768L45.6638 17.6H42.6718V22H40.4958ZM42.6718 15.68H44.9598C45.3544 15.68 45.6958 15.6053 45.9838 15.456C46.2718 15.296 46.4958 15.0773 46.6558 14.8C46.8158 14.5227 46.8958 14.2027 46.8958 13.84C46.8958 13.4667 46.8158 13.1467 46.6558 12.88C46.4958 12.6027 46.2718 12.3893 45.9838 12.24C45.6958 12.08 45.3544 12 44.9598 12H42.6718V15.68ZM54.0739 22V10.08H57.9619C59.2205 10.08 60.3139 10.336 61.2419 10.848C62.1805 11.3493 62.9059 12.048 63.4179 12.944C63.9299 13.8293 64.1859 14.8587 64.1859 16.032C64.1859 17.1947 63.9299 18.2293 63.4179 19.136C62.9059 20.032 62.1805 20.736 61.2419 21.248C60.3139 21.7493 59.2205 22 57.9619 22H54.0739ZM56.2499 20.08H58.0099C58.8205 20.08 59.5192 19.9147 60.1059 19.584C60.7032 19.2427 61.1672 18.7733 61.4979 18.176C61.8285 17.568 61.9939 16.8533 61.9939 16.032C61.9939 15.2 61.8285 14.4853 61.4979 13.888C61.1672 13.2907 60.7032 12.8267 60.1059 12.496C59.5192 12.1653 58.8205 12 58.0099 12H56.2499V20.08ZM68.9176 22V10.08H70.6136L77.1736 18.912L76.2936 19.088V10.08H78.4696V22H76.7576L70.2936 13.104L71.0936 12.928V22H68.9176ZM89.649 22.192C88.7743 22.192 87.9583 22.0373 87.201 21.728C86.4437 21.4187 85.7823 20.9867 85.217 20.432C84.6517 19.8773 84.209 19.2267 83.889 18.48C83.5797 17.7227 83.425 16.9067 83.425 16.032C83.425 15.1467 83.5797 14.3307 83.889 13.584C84.1983 12.8373 84.6357 12.1867 85.201 11.632C85.7663 11.0773 86.4277 10.6507 87.185 10.352C87.9423 10.0427 88.7637 9.888 89.649 9.888C90.5343 9.888 91.3557 10.0427 92.113 10.352C92.8703 10.6613 93.5317 11.0933 94.097 11.648C94.6623 12.192 95.0997 12.8373 95.409 13.584C95.729 14.3307 95.889 15.1467 95.889 16.032C95.889 16.9067 95.729 17.7227 95.409 18.48C95.089 19.2267 94.6463 19.8773 94.081 20.432C93.5157 20.9867 92.8543 21.4187 92.097 21.728C91.3503 22.0373 90.5343 22.192 89.649 22.192ZM89.649 20.208C90.2357 20.208 90.7743 20.1067 91.265 19.904C91.7557 19.6907 92.1823 19.3973 92.545 19.024C92.9183 18.6507 93.201 18.208 93.393 17.696C93.5957 17.184 93.697 16.6293 93.697 16.032C93.697 15.4347 93.5957 14.8853 93.393 14.384C93.201 13.872 92.9183 13.4293 92.545 13.056C92.1823 12.672 91.7557 12.3787 91.265 12.176C90.7743 11.9733 90.2357 11.872 89.649 11.872C89.073 11.872 88.5397 11.9733 88.049 12.176C87.5583 12.3787 87.1263 12.672 86.753 13.056C86.3903 13.4293 86.1077 13.872 85.905 14.384C85.7023 14.8853 85.601 15.4347 85.601 16.032C85.601 16.6293 85.7023 17.184 85.905 17.696C86.1077 18.208 86.3903 18.6507 86.753 19.024C87.1263 19.3973 87.5583 19.6907 88.049 19.904C88.5397 20.1067 89.073 20.208 89.649 20.208ZM100.824 22V10.08H104.712C105.971 10.08 107.064 10.336 107.992 10.848C108.931 11.3493 109.656 12.048 110.168 12.944C110.68 13.8293 110.936 14.8587 110.936 16.032C110.936 17.1947 110.68 18.2293 110.168 19.136C109.656 20.032 108.931 20.736 107.992 21.248C107.064 21.7493 105.971 22 104.712 22H100.824ZM103 20.08H104.76C105.571 20.08 106.269 19.9147 106.856 19.584C107.453 19.2427 107.917 18.7733 108.248 18.176C108.579 17.568 108.744 16.8533 108.744 16.032C108.744 15.2 108.579 14.4853 108.248 13.888C107.917 13.2907 107.453 12.8267 106.856 12.496C106.269 12.1653 105.571 12 104.76 12H103V20.08ZM115.668 22V10.08H123.588V12H117.844V15.056H123.268V16.976H117.844V20.08H123.588V22H115.668Z" fill="#18181B"/>
</svg>
