<svg width="147" height="14" viewBox="0 0 147 14" fill="none" xmlns="http://www.w3.org/2000/svg">
<path d="M0.24 13.64H2.544L7.856 0.44H5.568L0.24 13.64Z" fill="#F43F5E"/>
<path d="M12.2458 13H14.4218V8.6H16.4698L18.9338 13H21.3978L18.6618 8.216C19.3231 7.93867 19.8458 7.512 20.2298 6.936C20.6244 6.36 20.8218 5.66133 20.8218 4.84C20.8218 4.02933 20.6458 3.34667 20.2938 2.792C19.9418 2.23733 19.4511 1.816 18.8218 1.528C18.2031 1.22933 17.4884 1.08 16.6778 1.08H12.2458V13ZM14.4218 6.68V3H16.7098C17.2964 3 17.7658 3.16533 18.1178 3.496C18.4698 3.82667 18.6458 4.27467 18.6458 4.84C18.6458 5.39467 18.4698 5.84267 18.1178 6.184C17.7658 6.51467 17.2964 6.68 16.7098 6.68H14.4218ZM24.8479 13H27.1999L28.0639 10.44H32.6719L33.5199 13H35.8879L31.7759 1.08H28.9599L24.8479 13ZM28.6879 8.52L30.3679 3.496L32.0479 8.52H28.6879ZM40.2145 13H42.3905V8.6H44.4385L46.9025 13H49.3665L46.6305 8.216C47.2918 7.93867 47.8145 7.512 48.1985 6.936C48.5932 6.36 48.7905 5.66133 48.7905 4.84C48.7905 4.02933 48.6145 3.34667 48.2625 2.792C47.9105 2.23733 47.4198 1.816 46.7905 1.528C46.1718 1.22933 45.4572 1.08 44.6465 1.08H40.2145V13ZM42.3905 6.68V3H44.6785C45.2652 3 45.7345 3.16533 46.0865 3.496C46.4385 3.82667 46.6145 4.27467 46.6145 4.84C46.6145 5.39467 46.4385 5.84267 46.0865 6.184C45.7345 6.51467 45.2652 6.68 44.6785 6.68H42.3905ZM53.7926 13H61.7126V11.08H55.9686V7.976H61.3926V6.056H55.9686V3H61.7126V1.08H53.7926V13ZM66.3083 13H71.3323C72.6656 13 73.7056 12.68 74.4523 12.04C75.2096 11.3893 75.5883 10.4933 75.5883 9.352C75.5883 8.808 75.4816 8.296 75.2683 7.816C75.0549 7.336 74.6816 6.92533 74.1483 6.584C74.4789 6.28533 74.7189 5.95467 74.8683 5.592C75.0283 5.22933 75.1083 4.84533 75.1083 4.44C75.1083 3.39467 74.7723 2.57333 74.1003 1.976C73.4283 1.37867 72.5056 1.08 71.3323 1.08H66.3083V13ZM68.4843 5.704V2.936H71.4443C71.8923 2.936 72.2496 3.05867 72.5163 3.304C72.7829 3.54933 72.9163 3.88 72.9163 4.296C72.9163 4.712 72.7829 5.05333 72.5163 5.32C72.2496 5.576 71.8923 5.704 71.4443 5.704H68.4843ZM68.4843 11.08V7.608H71.5563C72.1216 7.608 72.5696 7.768 72.9003 8.088C73.2416 8.39733 73.4123 8.81867 73.4123 9.352C73.4123 9.87467 73.2416 10.296 72.9003 10.616C72.5696 10.9253 72.1216 11.08 71.5563 11.08H68.4843ZM80.3708 13H87.6508V11.08H82.5468V1.08H80.3708V13ZM97.6178 13.192C98.5031 13.192 99.3244 13.0373 100.082 12.728C100.839 12.4187 101.5 11.9867 102.066 11.432C102.631 10.8773 103.068 10.2267 103.378 9.48C103.698 8.72267 103.858 7.90667 103.858 7.032C103.858 6.14667 103.698 5.33067 103.378 4.584C103.068 3.83733 102.631 3.192 102.066 2.648C101.5 2.09333 100.839 1.66133 100.082 1.352C99.3244 1.04267 98.5031 0.888 97.6178 0.888C96.7324 0.888 95.9111 1.04267 95.1538 1.352C94.3964 1.66133 93.7351 2.09333 93.1698 2.648C92.6151 3.192 92.1778 3.83733 91.8578 4.584C91.5484 5.33067 91.3938 6.14667 91.3938 7.032C91.3938 7.90667 91.5484 8.72267 91.8578 9.48C92.1778 10.2267 92.6204 10.8773 93.1858 11.432C93.7511 11.9867 94.4124 12.4187 95.1698 12.728C95.9271 13.0373 96.7431 13.192 97.6178 13.192ZM97.6178 11.208C96.8498 11.208 96.1564 11.0267 95.5378 10.664C94.9298 10.3013 94.4498 9.80533 94.0978 9.176C93.7458 8.54667 93.5698 7.832 93.5698 7.032C93.5698 6.232 93.7458 5.52267 94.0978 4.904C94.4498 4.27467 94.9298 3.77867 95.5378 3.416C96.1564 3.05333 96.8498 2.872 97.6178 2.872C98.3964 2.872 99.0898 3.05333 99.6978 3.416C100.306 3.77867 100.786 4.27467 101.138 4.904C101.49 5.52267 101.666 6.232 101.666 7.032C101.666 7.832 101.49 8.54667 101.138 9.176C100.786 9.80533 100.306 10.3013 99.6978 10.664C99.0898 11.0267 98.3964 11.208 97.6178 11.208ZM114.393 13.192C115.246 13.192 116.009 13.048 116.681 12.76C117.363 12.472 117.939 12.0933 118.409 11.624C118.878 11.144 119.214 10.6213 119.417 10.056L117.465 9.144C117.23 9.74133 116.846 10.2373 116.313 10.632C115.79 11.016 115.15 11.208 114.393 11.208C113.646 11.208 112.99 11.032 112.425 10.68C111.859 10.328 111.417 9.84267 111.097 9.224C110.777 8.59467 110.617 7.864 110.617 7.032C110.617 6.2 110.777 5.47467 111.097 4.856C111.417 4.22667 111.859 3.74133 112.425 3.4C112.99 3.048 113.646 2.872 114.393 2.872C115.15 2.872 115.79 3.06933 116.313 3.464C116.846 3.848 117.23 4.33867 117.465 4.936L119.417 4.024C119.214 3.45867 118.878 2.94133 118.409 2.472C117.939 1.992 117.363 1.608 116.681 1.32C116.009 1.032 115.246 0.888 114.393 0.888C113.539 0.888 112.75 1.04267 112.025 1.352C111.299 1.65067 110.67 2.07733 110.137 2.632C109.603 3.176 109.187 3.82667 108.889 4.584C108.59 5.33067 108.441 6.14667 108.441 7.032C108.441 7.91733 108.59 8.73867 108.889 9.496C109.187 10.2427 109.603 10.8933 110.137 11.448C110.67 12.0027 111.299 12.4347 112.025 12.744C112.75 13.0427 113.539 13.192 114.393 13.192ZM124.183 13H126.359V9.656L127.959 7.752L131.159 13H133.719L129.447 5.976L133.575 1.08H130.839L126.359 6.376V1.08H124.183V13ZM142.142 13.192C142.964 13.192 143.684 13.0427 144.302 12.744C144.921 12.4453 145.406 12.0347 145.758 11.512C146.11 10.9893 146.286 10.3867 146.286 9.704C146.286 8.11467 145.337 7.016 143.438 6.408L141.246 5.72C140.82 5.58133 140.494 5.38933 140.27 5.144C140.057 4.888 139.95 4.59467 139.95 4.264C139.95 3.82667 140.116 3.47467 140.446 3.208C140.788 2.93067 141.236 2.792 141.79 2.792C142.409 2.792 142.953 2.95733 143.422 3.288C143.892 3.608 144.244 4.06667 144.478 4.664L146.27 3.864C145.95 2.968 145.39 2.248 144.59 1.704C143.801 1.16 142.868 0.888 141.79 0.888C141.012 0.888 140.318 1.03733 139.71 1.336C139.113 1.624 138.644 2.02933 138.302 2.552C137.972 3.07467 137.806 3.67733 137.806 4.36C137.806 5.13867 138.041 5.816 138.51 6.392C138.98 6.95733 139.678 7.38933 140.606 7.688L142.894 8.424C143.31 8.56267 143.62 8.744 143.822 8.968C144.036 9.192 144.142 9.48 144.142 9.832C144.142 10.2693 143.966 10.6213 143.614 10.888C143.273 11.1547 142.82 11.288 142.254 11.288C141.572 11.288 140.958 11.096 140.414 10.712C139.87 10.3173 139.454 9.77867 139.166 9.096L137.358 9.88C137.572 10.5413 137.908 11.1227 138.366 11.624C138.836 12.1147 139.39 12.4987 140.03 12.776C140.681 13.0533 141.385 13.192 142.142 13.192Z" fill="#18181B"/>
</svg>
